<svg
 xmlns="http://www.w3.org/2000/svg"
 xmlns:xlink="http://www.w3.org/1999/xlink"
 width="414px" height="352px">
<path fill-rule="evenodd"  fill="#4cc2c4"
 d="M413.090,297.008 C412.872,303.806 412.554,309.959 412.135,315.466 C411.715,320.974 411.209,325.309 410.618,328.472 C410.089,329.702 409.471,331.050 408.765,332.513 C408.117,333.742 407.354,335.162 406.472,336.772 C405.590,338.383 404.590,340.095 403.475,341.909 C402.417,343.548 401.388,345.041 400.390,346.387 C399.391,347.732 398.496,348.814 397.704,349.634 C396.911,350.453 396.265,350.935 395.767,351.081 C395.268,351.226 395.020,350.860 395.022,349.981 C394.911,345.704 394.775,340.606 394.609,334.686 C394.444,328.767 394.249,322.379 394.027,315.522 C393.804,308.665 393.538,301.457 393.230,293.897 C392.920,286.337 392.567,278.777 392.170,271.216 C391.773,263.656 391.317,256.228 390.803,248.931 C390.288,241.634 389.713,234.821 389.080,228.491 C391.897,226.093 394.596,223.842 397.179,221.736 C398.293,220.859 399.408,219.969 400.524,219.061 C401.638,218.155 402.724,217.293 403.781,216.474 C404.837,215.656 405.819,214.910 406.729,214.237 C407.638,213.566 408.415,213.025 409.062,212.615 C410.118,211.797 410.733,211.798 410.908,212.618 C411.483,217.953 411.956,224.063 412.326,230.948 C412.694,237.836 412.974,245.044 413.167,252.574 C413.359,260.105 413.449,267.693 413.435,275.341 C413.422,282.988 413.307,290.211 413.090,297.008 ZM395.747,179.076 C392.114,180.925 387.529,182.841 381.997,184.826 C376.463,186.811 370.012,188.730 362.643,190.580 C355.273,192.432 347.105,193.897 338.139,194.975 C338.139,194.975 336.475,195.121 336.475,195.121 C336.475,195.121 336.475,195.121 336.475,195.121 C336.475,195.121 334.724,195.274 334.724,195.274 C334.724,195.274 334.724,195.274 334.724,195.274 C334.724,195.274 334.723,195.274 334.723,195.274 C334.723,195.274 332.797,195.443 332.797,195.443 C329.701,195.714 326.916,195.487 324.441,194.761 C321.964,194.037 319.773,193.022 317.865,191.717 C315.955,190.413 314.342,188.950 313.024,187.328 C311.704,185.708 310.687,184.164 309.971,182.695 C309.439,184.684 308.592,186.612 307.432,188.480 C306.271,190.347 304.830,192.033 303.109,193.537 C301.387,195.043 299.379,196.307 297.086,197.331 C294.793,198.357 292.274,198.988 289.530,199.228 C289.530,199.228 283.662,199.742 283.662,199.742 C283.662,199.742 283.662,199.742 283.662,199.742 C283.662,199.742 282.584,199.836 282.584,199.836 C282.584,199.836 282.260,199.864 282.260,199.864 C282.260,199.864 282.260,199.864 282.260,199.864 C282.260,199.864 282.085,199.879 282.085,199.879 C278.407,200.201 274.929,200.139 271.654,199.688 C268.379,199.240 265.385,198.486 262.675,197.428 C259.964,196.371 257.568,195.036 255.485,193.422 C253.402,191.809 251.743,189.997 250.508,187.986 C248.755,191.494 246.694,194.323 244.323,196.473 C241.952,198.623 239.496,200.310 236.955,201.532 C234.414,202.756 231.886,203.609 229.369,204.094 C226.852,204.579 224.600,204.909 222.615,205.082 C222.615,205.082 217.798,205.504 217.798,205.504 C217.798,205.504 217.798,205.504 217.798,205.504 C217.798,205.504 217.711,205.511 217.711,205.511 C217.711,205.511 217.711,205.512 217.710,205.512 C217.710,205.512 217.710,205.512 217.710,205.512 C217.710,205.512 217.185,205.557 217.185,205.557 C215.083,205.741 213.231,205.757 211.629,205.602 C210.027,205.448 208.622,205.203 207.416,204.867 C206.209,204.531 205.176,204.151 204.316,203.726 C203.454,203.302 202.683,202.884 202.000,202.471 C202.162,207.695 201.637,212.789 200.424,217.751 C199.210,222.713 197.518,227.408 195.346,231.836 C193.174,236.264 190.632,240.341 187.723,244.069 C184.813,247.796 181.772,251.035 178.601,253.785 C175.428,256.535 172.251,258.725 169.070,260.358 C165.888,261.989 162.926,262.926 160.182,263.166 C158.775,263.230 156.835,262.737 154.360,261.689 C151.885,260.639 149.371,259.314 146.819,257.713 C144.266,256.112 141.884,254.437 139.672,252.688 C137.459,250.939 135.885,249.399 134.944,248.069 C134.269,247.069 134.141,246.285 134.562,245.719 C134.984,245.152 135.603,244.833 136.419,244.761 C142.200,244.256 147.539,243.082 152.439,241.241 C157.337,239.400 161.760,237.172 165.710,234.562 C169.659,231.950 173.131,229.101 176.127,226.013 C179.122,222.926 181.579,219.914 183.500,216.980 C185.419,214.045 186.785,211.321 187.595,208.808 C188.404,206.296 188.626,204.290 188.260,202.791 C187.993,201.755 187.262,200.127 186.068,197.906 C184.872,195.686 183.474,193.321 181.873,190.812 C180.270,188.304 178.641,185.828 176.986,183.382 C175.330,180.937 173.904,178.914 172.704,177.311 C173.587,175.292 174.692,172.974 176.023,170.355 C177.352,167.737 178.679,165.253 180.004,162.899 C181.328,160.547 182.565,158.556 183.718,156.924 C184.868,155.293 185.737,154.451 186.321,154.400 C186.554,154.380 187.123,154.992 188.026,156.238 C188.929,157.483 190.051,159.049 191.393,160.931 C192.735,162.816 194.294,164.827 196.069,166.968 C197.845,169.108 199.725,171.093 201.709,172.919 C203.692,174.748 205.763,176.229 207.923,177.364 C210.081,178.500 212.240,178.973 214.401,178.784 C214.401,178.784 216.300,178.618 216.300,178.618 C216.300,178.618 217.554,178.508 217.554,178.508 C220.707,178.232 223.778,177.522 226.767,176.378 C229.756,175.233 232.392,173.590 234.676,171.448 C236.960,169.306 238.713,166.651 239.936,163.483 C241.160,160.316 241.579,156.541 241.196,152.160 C241.135,151.459 241.146,150.575 241.229,149.508 C241.312,148.441 241.531,147.407 241.884,146.405 C242.238,145.403 242.779,144.532 243.509,143.791 C244.238,143.051 245.245,142.623 246.530,142.511 C247.814,142.399 248.882,142.658 249.731,143.290 C250.581,143.922 251.252,144.702 251.745,145.630 C252.237,146.559 252.602,147.528 252.838,148.537 C253.072,149.547 253.219,150.373 253.275,151.015 C253.653,155.338 254.502,158.986 255.821,161.961 C257.141,164.935 258.921,167.296 261.163,169.042 C263.403,170.789 266.097,171.981 269.242,172.618 C272.387,173.256 275.943,173.400 279.915,173.052 C279.915,173.052 281.316,172.930 281.316,172.930 C281.316,172.930 281.316,172.930 281.316,172.930 C281.316,172.930 286.483,172.478 286.483,172.478 C290.512,172.125 293.415,171.180 295.193,169.641 C296.970,168.103 298.046,165.934 298.419,163.134 C298.792,160.335 298.652,156.889 298.000,152.797 C297.347,148.704 296.576,143.931 295.688,138.475 C295.339,136.505 294.942,134.156 294.498,131.428 C294.052,128.700 293.561,125.771 293.023,122.639 C292.484,119.508 291.920,116.261 291.332,112.898 C290.743,109.537 290.189,106.230 289.670,102.979 C288.362,95.442 287.020,87.495 285.643,79.139 C285.898,78.706 286.525,77.974 287.524,76.944 C288.523,75.916 289.673,74.770 290.975,73.508 C292.276,72.246 293.677,70.947 295.179,69.608 C296.679,68.271 298.062,67.105 299.330,66.111 C300.595,65.117 301.692,64.359 302.617,63.837 C303.542,63.314 304.077,63.223 304.225,63.564 C304.236,63.681 304.364,64.641 304.610,66.444 C304.856,68.247 305.187,70.690 305.604,73.773 C306.020,76.857 306.495,80.420 307.025,84.464 C307.555,88.510 308.122,92.815 308.729,97.382 C309.334,101.951 309.949,106.634 310.576,111.436 C311.202,116.237 311.805,120.938 312.383,125.536 C312.962,130.136 313.519,134.487 314.055,138.590 C314.590,142.693 315.054,146.316 315.447,149.460 C315.835,152.547 316.430,155.320 317.234,157.780 C318.037,160.241 319.086,162.297 320.377,163.950 C321.669,165.603 323.203,166.837 324.982,167.653 C326.759,168.468 328.844,168.772 331.239,168.562 C331.239,168.562 332.290,168.470 332.290,168.470 C332.290,168.470 332.290,168.470 332.290,168.470 C332.290,168.470 332.378,168.462 332.378,168.462 C332.378,168.462 332.378,168.462 332.378,168.462 C332.378,168.462 332.378,168.462 332.378,168.462 C332.378,168.462 344.815,167.374 344.815,167.374 C343.598,166.245 342.268,164.493 340.825,162.117 C339.381,159.742 338.378,156.696 337.819,152.977 C337.434,150.598 337.418,148.068 337.773,145.388 C338.126,142.708 338.820,140.058 339.857,137.436 C340.892,134.815 342.230,132.284 343.870,129.845 C345.510,127.406 347.451,125.221 349.695,123.287 C351.938,121.356 354.445,119.753 357.217,118.480 C359.988,117.208 362.980,116.430 366.192,116.149 C368.469,115.950 370.752,115.986 373.041,116.257 C375.329,116.528 377.620,117.151 379.912,118.128 C382.204,119.105 384.473,120.496 386.720,122.300 C388.966,124.105 391.189,126.471 393.386,129.398 C393.724,129.898 393.939,130.512 394.033,131.239 C394.126,131.968 394.038,132.652 393.771,133.293 C393.503,133.934 393.002,134.435 392.270,134.793 C391.536,135.152 390.482,135.214 389.109,134.981 C388.568,134.852 387.833,134.695 386.906,134.512 C385.977,134.328 384.758,134.170 383.246,134.037 C381.734,133.905 379.889,133.845 377.714,133.859 C375.538,133.873 372.937,134.071 369.912,134.453 C367.645,134.770 365.296,135.329 362.865,136.129 C360.434,136.931 358.220,137.846 356.222,138.874 C354.222,139.903 352.591,140.928 351.328,141.951 C350.063,142.974 349.433,143.838 349.437,144.544 C349.460,145.484 350.001,146.629 351.061,147.978 C352.120,149.328 353.536,150.719 355.309,152.153 C357.081,153.587 359.144,154.967 361.496,156.291 C363.848,157.617 366.352,158.678 369.012,159.474 C371.670,160.272 374.418,160.738 377.253,160.872 C380.090,161.008 382.851,160.634 385.539,159.750 C387.771,159.025 389.986,158.288 392.185,157.535 C394.384,156.784 396.428,156.091 398.314,155.454 C400.200,154.818 401.869,154.231 403.322,153.691 C404.776,153.153 405.871,152.733 406.610,152.432 C407.173,152.149 407.590,152.201 407.859,152.588 C408.128,152.977 408.266,153.201 408.271,153.258 C408.271,153.258 403.599,174.504 403.599,174.504 C401.997,175.703 399.380,177.228 395.747,179.076 ZM273.952,93.802 C273.395,96.213 272.949,97.977 272.611,99.093 C271.990,101.153 271.097,103.538 269.929,106.247 C268.761,108.957 267.228,111.745 265.329,114.611 C263.430,117.477 261.120,120.303 258.400,123.091 C255.679,125.880 252.472,128.380 248.778,130.593 C245.083,132.807 240.857,134.602 236.098,135.979 C231.337,137.356 225.970,138.082 219.993,138.155 C214.602,138.221 209.896,137.985 205.875,137.449 C201.854,136.913 198.388,136.165 195.475,135.203 C192.562,134.243 190.116,133.130 188.137,131.865 C186.158,130.601 184.515,129.287 183.210,127.925 C181.904,126.565 180.876,125.185 180.127,123.788 C179.376,122.390 178.760,121.109 178.277,119.942 C176.970,123.358 175.162,126.398 172.851,129.064 C171.868,130.190 170.694,131.288 169.331,132.359 C167.967,133.431 166.425,134.388 164.707,135.229 C162.988,136.072 161.047,136.740 158.886,137.235 C156.723,137.731 154.352,137.934 151.773,137.849 C151.773,137.849 150.077,137.870 150.077,137.870 C150.077,137.870 147.730,137.899 147.730,137.899 C144.272,137.941 140.662,137.546 136.902,136.713 C133.141,135.880 129.650,134.371 126.430,132.183 C123.208,129.995 120.490,126.981 118.275,123.140 C116.059,119.299 114.768,114.392 114.402,108.419 C113.973,102.095 113.511,95.523 113.018,88.701 C112.523,81.880 111.951,74.692 111.302,67.140 C110.652,59.588 109.866,51.598 108.942,43.170 C108.018,34.742 106.882,25.732 105.534,16.136 C105.937,15.663 106.675,14.907 107.748,13.868 C108.819,12.830 110.051,11.701 111.442,10.482 C112.834,9.264 114.298,8.029 115.836,6.780 C117.373,5.530 118.796,4.429 120.103,3.475 C121.410,2.522 122.514,1.805 123.417,1.324 C124.319,0.845 124.861,0.809 125.042,1.216 C125.223,1.625 125.489,3.043 125.842,5.470 C126.193,7.898 126.555,11.131 126.928,15.171 C127.299,19.210 127.680,23.967 128.070,29.442 C128.458,34.917 128.840,40.919 129.214,47.449 C129.587,53.980 129.920,60.920 130.217,68.271 C130.511,75.623 130.737,83.224 130.892,91.075 C131.009,95.938 131.759,99.709 133.141,102.387 C134.521,105.067 136.143,107.053 138.005,108.349 C139.867,109.645 141.751,110.413 143.659,110.653 C145.566,110.894 147.136,111.006 148.366,110.991 C148.366,110.991 150.789,110.961 150.789,110.961 C150.789,110.961 151.619,110.951 151.619,110.951 C156.130,110.896 159.757,110.398 162.501,109.455 C165.243,108.514 167.527,107.108 169.350,105.239 C171.173,103.371 172.756,101.052 174.099,98.280 C175.442,95.510 176.971,92.267 178.683,88.554 C179.198,87.493 179.756,86.446 180.359,85.413 C180.962,84.381 181.639,83.507 182.393,82.795 C183.145,82.082 183.930,81.589 184.748,81.315 C185.565,81.041 186.473,81.074 187.474,81.414 C188.946,81.982 189.705,82.969 189.752,84.375 C189.798,85.781 189.485,87.689 188.812,90.100 C188.305,91.807 187.899,93.423 187.597,94.950 C187.292,96.478 187.251,97.914 187.474,99.259 C187.695,100.605 188.252,101.829 189.145,102.931 C190.037,104.034 191.456,104.983 193.399,105.779 C195.068,103.297 197.172,100.430 199.711,97.175 C202.249,93.921 205.066,90.590 208.160,87.181 C211.252,83.774 214.582,80.422 218.146,77.125 C221.709,73.829 225.350,70.870 229.069,68.244 C232.787,65.621 236.512,63.509 240.244,61.910 C243.974,60.312 247.598,59.490 251.114,59.447 C256.505,59.440 260.823,60.251 264.066,61.881 C267.309,63.512 269.782,65.606 271.484,68.163 C273.186,70.722 274.275,73.566 274.753,76.694 C275.231,79.824 275.356,82.856 275.129,85.788 C274.901,88.722 274.508,91.393 273.952,93.802 ZM263.712,93.884 C263.427,92.160 262.704,90.556 261.543,89.076 C260.382,87.596 258.741,86.385 256.620,85.444 C254.498,84.503 251.768,84.053 248.428,84.094 C243.389,84.274 238.624,85.196 234.133,86.863 C229.639,88.530 225.520,90.603 221.770,93.080 C218.020,95.559 214.669,98.266 211.716,101.203 C208.763,104.140 206.278,106.970 204.260,109.690 C206.314,109.959 208.911,110.248 212.051,110.561 C215.189,110.874 218.635,111.082 222.388,111.182 C226.139,111.283 230.005,111.191 233.988,110.907 C237.969,110.625 241.830,110.035 245.570,109.139 C249.309,108.244 252.752,106.971 255.897,105.320 C259.041,103.670 261.652,101.513 263.729,98.851 C264.002,97.265 263.997,95.610 263.712,93.884 ZM230.052,33.684 C230.052,33.684 244.636,18.649 244.636,18.649 C244.636,18.649 259.584,33.322 259.584,33.322 C259.584,33.322 244.999,48.270 244.999,48.270 C244.999,48.270 230.052,33.684 230.052,33.684 ZM112.922,150.831 C112.885,152.049 112.758,153.561 112.539,155.367 C112.318,157.173 112.000,159.113 111.581,161.183 C111.162,163.254 110.692,165.184 110.175,166.973 C109.657,168.762 109.128,170.257 108.586,171.457 C108.045,172.658 107.513,173.294 106.991,173.367 C104.423,172.782 101.688,172.692 98.787,173.100 C94.609,173.687 90.382,175.096 86.110,177.323 C81.837,179.552 77.993,182.207 74.581,185.290 C71.167,188.374 68.454,191.699 66.440,195.266 C64.426,198.834 63.561,202.255 63.844,205.528 C63.900,206.350 64.643,207.014 66.077,207.522 C67.509,208.031 69.448,208.455 71.892,208.791 C74.336,209.129 77.187,209.423 80.449,209.675 C83.709,209.927 87.191,210.178 90.895,210.426 C96.456,210.829 100.978,211.746 104.464,213.179 C107.950,214.613 110.716,216.295 112.763,218.226 C114.810,220.158 116.267,222.216 117.137,224.402 C118.006,226.588 118.571,228.608 118.832,230.466 C119.770,237.139 119.405,243.286 117.740,248.905 C116.074,254.524 113.091,259.514 108.793,263.877 C104.493,268.238 98.883,271.896 91.961,274.853 C85.038,277.808 76.790,279.958 67.215,281.304 C60.077,282.307 53.259,282.747 46.762,282.625 C40.265,282.502 34.325,281.606 28.942,279.937 C23.559,278.266 18.817,275.693 14.720,272.216 C10.621,268.738 7.386,264.148 5.017,258.445 C2.647,252.742 1.273,245.803 0.894,237.632 C0.514,229.461 1.320,219.819 3.309,208.710 C3.559,207.551 3.851,206.149 4.183,204.504 C4.513,202.860 4.909,201.148 5.369,199.366 C5.829,197.586 6.367,195.839 6.985,194.124 C7.601,192.411 8.321,190.904 9.145,189.604 C9.968,188.305 10.878,187.305 11.875,186.602 C12.870,185.900 14.007,185.667 15.282,185.901 C16.748,186.228 17.666,186.973 18.037,188.133 C18.407,189.294 18.473,190.823 18.238,192.720 C18.001,194.618 17.578,196.867 16.967,199.467 C16.356,202.069 15.832,204.968 15.393,208.166 C14.871,212.027 14.513,216.012 14.322,220.122 C14.130,224.232 14.365,228.224 15.028,232.095 C15.690,235.967 16.892,239.569 18.634,242.906 C20.374,246.241 22.928,249.048 26.297,251.327 C29.664,253.605 33.970,255.189 39.215,256.080 C44.458,256.970 50.885,256.910 58.496,255.900 C66.711,254.568 73.776,253.145 79.688,251.634 C85.601,250.122 90.442,248.570 94.212,246.975 C97.983,245.379 100.699,243.769 102.366,242.145 C104.031,240.520 104.754,238.924 104.533,237.358 C104.460,236.835 103.722,236.540 102.323,236.470 C100.922,236.401 99.099,236.375 96.853,236.395 C94.606,236.414 92.048,236.419 89.177,236.409 C86.304,236.398 83.350,236.221 80.315,235.879 C77.277,235.536 74.281,234.952 71.325,234.125 C68.368,233.298 65.682,232.092 63.271,230.508 C60.859,228.924 58.841,226.885 57.219,224.390 C55.595,221.897 54.581,218.784 54.176,215.054 C53.705,210.446 53.865,205.688 54.655,200.784 C55.445,195.879 56.750,191.051 58.567,186.298 C60.384,181.546 62.674,176.992 65.435,172.639 C68.197,168.287 71.334,164.398 74.847,160.975 C78.361,157.552 82.175,154.694 86.291,152.399 C90.407,150.105 94.728,148.639 99.254,148.003 C103.548,147.399 107.994,147.662 112.591,148.791 C112.847,148.933 112.958,149.613 112.922,150.831 ZM253.005,233.099 C253.005,233.099 242.330,245.825 242.330,245.825 C242.330,245.825 227.479,233.440 227.479,233.440 C227.479,233.440 239.946,218.576 239.946,218.576 C239.946,218.576 252.676,229.331 252.676,229.331 C252.676,229.331 263.419,216.522 263.419,216.522 C263.419,216.522 278.191,229.003 278.191,229.003 C278.191,229.003 265.803,243.772 265.803,243.772 C265.803,243.772 253.005,233.099 253.005,233.099 ZM91.123,312.358 C91.767,312.359 92.294,312.536 92.704,312.888 C93.113,313.240 93.611,313.681 94.197,314.209 C94.781,314.738 95.542,315.325 96.479,315.971 C97.414,316.618 98.718,317.206 100.387,317.736 C102.057,318.266 104.223,318.710 106.890,319.066 C109.555,319.422 112.910,319.604 116.954,319.611 C119.591,319.615 122.228,319.371 124.866,318.877 C127.504,318.385 129.878,317.787 131.989,317.088 C134.100,316.388 135.815,315.659 137.135,314.899 C138.455,314.141 139.116,313.496 139.116,312.969 C139.118,312.325 138.841,311.181 138.287,309.539 C137.733,307.898 136.989,305.963 136.056,303.734 C135.122,301.506 134.071,299.058 132.904,296.389 C131.736,293.721 130.540,291.066 129.314,288.427 C126.453,282.211 123.213,275.319 119.593,267.753 C122.412,264.125 124.967,260.906 127.257,258.098 C128.196,256.928 129.136,255.787 130.076,254.674 C131.015,253.563 131.867,252.583 132.630,251.734 C133.393,250.887 134.024,250.228 134.524,249.760 C135.022,249.292 135.330,249.117 135.448,249.234 C136.148,250.700 137.024,252.840 138.073,255.655 C139.123,258.470 140.274,261.651 141.529,265.198 C142.782,268.747 144.079,272.529 145.421,276.545 C146.761,280.562 148.073,284.519 149.356,288.418 C150.637,292.318 151.862,296.012 153.028,299.500 C154.194,302.989 155.244,305.965 156.177,308.428 C157.402,311.770 158.862,314.322 160.559,316.083 C162.255,317.844 163.952,318.961 165.652,319.432 C166.588,319.727 167.335,319.874 167.892,319.875 C168.449,319.876 169.224,319.878 170.222,319.879 C170.222,319.879 170.309,319.879 170.309,319.879 C170.309,319.879 170.310,319.879 170.310,319.879 C170.310,319.879 170.310,319.879 170.310,319.879 C170.310,319.879 170.397,319.880 170.397,319.880 C170.397,319.880 170.397,319.880 170.397,319.880 C170.397,319.880 170.664,319.880 170.664,319.880 C170.664,319.880 170.925,319.881 170.925,319.881 C170.925,319.881 170.925,319.881 170.925,319.881 C170.925,319.881 172.507,319.883 172.507,319.883 C175.261,319.888 178.103,319.396 181.036,318.404 C183.733,317.472 186.109,315.747 188.165,313.230 C190.220,310.715 192.159,307.846 193.982,304.626 C195.803,301.407 197.626,298.026 199.449,294.483 C201.271,290.941 203.270,287.707 205.443,284.780 C207.616,281.854 210.081,279.441 212.840,277.541 C215.597,275.642 218.822,274.694 222.514,274.701 C225.912,274.707 228.958,275.459 231.652,276.958 C234.344,278.457 236.744,280.410 238.850,282.816 C240.955,285.224 242.854,287.922 244.549,290.913 C246.243,293.905 247.849,296.896 249.368,299.888 C250.536,302.175 251.645,304.506 252.696,306.882 C253.747,309.257 255.003,311.412 256.465,313.349 C257.925,315.285 259.740,316.886 261.906,318.149 C264.071,319.414 266.883,320.048 270.341,320.054 C270.341,320.054 271.044,320.055 271.044,320.055 C271.044,320.055 278.077,320.067 278.077,320.067 C282.881,320.251 288.067,320.040 293.637,319.435 C299.204,318.829 304.832,317.843 310.519,316.476 C316.205,315.109 321.776,313.331 327.229,311.143 C332.683,308.955 337.756,306.341 342.450,303.302 C337.412,301.594 332.976,299.945 329.142,298.356 C325.306,296.767 321.836,295.370 318.733,294.163 C315.628,292.957 312.773,291.999 310.167,291.291 C307.560,290.583 304.968,290.227 302.390,290.223 C302.390,290.223 301.950,290.222 301.950,290.222 C299.781,290.218 297.744,290.566 295.839,291.266 C293.933,291.966 292.246,292.784 290.781,293.719 C289.313,294.654 288.066,295.575 287.040,296.481 C286.012,297.388 285.293,298.046 284.883,298.455 C283.826,299.626 282.827,300.459 281.890,300.955 C280.951,301.452 280.159,301.699 279.515,301.698 C278.518,301.696 277.802,301.198 277.364,300.200 C276.926,299.203 276.855,297.768 277.152,295.892 C277.743,292.729 278.759,289.478 280.202,286.141 C281.643,282.803 283.509,279.789 285.799,277.096 C288.089,274.406 290.832,272.198 294.029,270.474 C297.226,268.752 300.875,267.893 304.978,267.900 C307.966,267.905 311.203,268.469 314.688,269.587 C318.172,270.707 321.861,272.105 325.756,273.782 C329.650,275.459 333.719,277.283 337.965,279.253 C342.210,281.224 346.573,283.048 351.053,284.726 C355.533,286.404 360.086,287.804 364.714,288.925 C369.341,290.047 374.029,290.611 378.776,290.619 C378.776,290.619 378.951,290.620 378.951,290.620 C380.182,290.622 380.870,290.961 381.015,291.634 C381.160,292.309 381.086,292.909 380.792,293.436 C380.792,293.436 372.498,311.881 372.498,311.881 C369.566,312.110 366.254,313.144 362.559,314.984 C358.864,316.823 354.773,319.044 350.285,321.643 C345.798,324.243 340.884,327.019 335.547,329.968 C330.209,332.919 324.447,335.662 318.260,338.201 C312.073,340.739 305.447,342.837 298.384,344.495 C291.318,346.153 283.801,346.975 275.832,346.961 C275.832,346.961 271.350,346.953 271.350,346.953 C271.350,346.953 271.350,346.953 271.350,346.953 C271.350,346.953 270.764,346.952 270.764,346.952 C270.764,346.952 269.679,346.950 269.679,346.950 C267.805,346.947 266.062,346.592 264.451,345.886 C264.230,345.789 264.022,345.676 263.808,345.569 C263.598,345.480 263.388,345.411 263.177,345.313 C260.835,344.225 258.712,343.020 256.811,341.698 C254.908,340.376 253.343,339.158 252.114,338.042 C250.886,336.927 250.213,336.311 250.096,336.192 C249.039,337.597 248.026,338.944 247.056,340.230 C246.087,341.518 245.015,342.659 243.842,343.653 C242.667,344.648 241.363,345.437 239.926,346.020 C238.489,346.603 236.774,346.893 234.782,346.890 C232.790,346.886 230.505,346.546 227.928,345.867 C225.350,345.189 222.700,344.335 219.977,343.304 C217.254,342.274 214.531,341.112 211.808,339.817 C209.086,338.524 206.568,337.274 204.255,336.069 C201.942,334.864 199.966,333.776 198.328,332.806 C196.688,331.836 195.547,331.117 194.903,330.646 C194.021,332.697 193.196,334.687 192.432,336.619 C191.666,338.552 190.520,340.264 188.995,341.756 C187.467,343.247 185.356,344.460 182.659,345.392 C179.962,346.326 176.269,346.788 171.581,346.780 C171.581,346.780 170.468,346.778 170.468,346.778 C170.468,346.778 170.263,346.777 170.263,346.777 C170.263,346.777 170.263,346.777 170.263,346.777 C170.263,346.777 170.263,346.777 170.263,346.777 C170.263,346.777 169.735,346.776 169.735,346.776 C166.044,346.770 162.880,346.076 160.246,344.694 C157.611,343.313 155.386,341.609 153.574,339.584 C151.760,337.559 150.299,335.403 149.190,333.116 C148.080,330.829 147.205,328.805 146.564,327.046 C146.032,329.682 145.104,332.186 143.782,334.557 C142.459,336.928 140.638,339.006 138.321,340.788 C136.002,342.573 133.099,343.988 129.611,345.036 C126.122,346.085 121.946,346.605 117.083,346.597 C111.866,346.588 107.547,345.731 104.121,344.025 C100.696,342.320 97.945,340.206 95.870,337.682 C93.793,335.159 92.275,332.417 91.313,329.455 C90.351,326.495 89.785,323.754 89.613,321.233 C89.442,318.714 89.518,316.605 89.844,314.905 C90.169,313.206 90.596,312.357 91.123,312.358 ZM209.789,313.268 C211.545,314.268 213.535,315.340 215.761,316.486 C217.985,317.633 220.372,318.736 222.919,319.795 C225.466,320.854 227.984,321.709 230.474,322.358 C232.963,323.007 235.336,323.333 237.592,323.337 C239.848,323.341 241.826,322.817 243.528,321.765 C244.173,321.414 244.380,320.463 244.149,318.909 C243.917,317.357 243.377,315.539 242.532,313.456 C241.686,311.376 240.575,309.161 239.203,306.814 C237.830,304.469 236.339,302.312 234.732,300.346 C233.123,298.380 231.470,296.751 229.774,295.458 C228.076,294.167 226.437,293.519 224.855,293.516 C222.862,293.512 220.942,294.124 219.094,295.352 C217.246,296.579 215.514,298.086 213.900,299.870 C212.284,301.655 210.802,303.556 209.451,305.576 C208.098,307.595 206.895,309.425 205.837,311.063 C206.715,311.534 208.033,312.269 209.789,313.268 Z"/>
</svg>
