<?xml version="1.0" standalone="no"?>
<!DOCTYPE svg PUBLIC "-//W3C//DTD SVG 1.1//EN" "http://www.w3.org/Graphics/SVG/1.1/DTD/svg11.dtd" >
<svg>
<metadata>
Created by FontForge 20110222 at Fri Aug  1 15:46:18 2014
 By Orthosie Webhosting
Copyright (c) 2014 by www.moslemebrahimi.com. All rights reserved.
</metadata>
<defs>
<font id="IRAN" horiz-adv-x="0" >
  <font-face 
    font-family="IRAN"
    font-weight="400"
    font-stretch="normal"
    units-per-em="2048"
    panose-1="2 11 6 6 3 8 4 2 2 4"
    ascent="1638"
    descent="-410"
    x-height="1062"
    cap-height="1466"
    bbox="-704 -1301 3883 2193.3"
    underline-thickness="102"
    underline-position="-103"
    unicode-range="U+0020-FEFC"
  />
<missing-glyph horiz-adv-x="1229" 
d="M102 -362v1806h1024v-1806h-1024zM217 -248h795v1577h-795v-1577z" />
    <glyph glyph-name="uni06440627.isol" unicode="&#xfedf;&#xfe8e;" horiz-adv-x="1022" arabic-form="isolated" 
d="M927 542q-18 -150 -60 -253t-102 -171t-136 -106.5t-162 -59.5q-26 -7 -67 -9t-86.5 -0.5t-91 6t-80.5 12t-55 16.5t-15 20q1 4 25 11t63 16.5t90.5 23.5t108 32t116 41.5t113.5 52.5q-91 216 -178 399.5t-156 324.5q-40 81 -78.5 156t-74.5 145q11 24 21 45.5t19 39.5
q8 16 16 30.5t15 24.5t13 15t9 1q2 -2 22 -46t53 -116.5t75 -166.5t87.5 -196.5t90.5 -206t84 -194.5q19 -43 31 -102.5t8 -117.5q40 26 74 57t58 67t36.5 77.5t9.5 88.5q-13 230 -25 390t-23 261l-23 194q20 22 37 40t33 34q13 13 26 25.5t23.5 21t18 11.5t10.5 -1
q2 -4 3.5 -14t1.5 -15q0 -4 1 -9t1 -11.5t1 -15.5q13 -172 21 -334q3 -69 5.5 -142.5t3 -144t-2 -134t-8.5 -113.5zM907 1446q0 -3 -2 0h2z" />
    <glyph glyph-name="uni06440627.fina" unicode="&#xfee0;&#xfe8e;" horiz-adv-x="1191" arabic-form="final" 
d="M1197 192v-192h-10q-39 0 -79.5 20.5t-77 59.5t-68 95.5t-53.5 128.5q-31 -100 -81.5 -166.5t-110.5 -110.5t-124 -69.5t-123 -42.5q-25 -8 -65.5 -10.5t-85.5 -1t-91 7t-81 13t-55.5 17.5t-15.5 21q1 4 24.5 10.5t62.5 16.5t90 23t108 31.5t116.5 42.5t114.5 54
q-91 216 -177 401t-157 326q-40 82 -78.5 156.5t-74.5 143.5q11 25 21 46t19 40q8 16 16 30.5t15 24.5t13 14.5t9 0.5q2 -2 22 -45.5t53 -116t75 -166.5t87.5 -196.5t90.5 -206t84 -194.5q19 -45 31.5 -105.5t7.5 -118.5q42 27 78.5 59t62.5 69.5t41.5 80.5t15.5 93
q0 40 -3.5 97t-9.5 123.5t-14 138t-17 139.5l-47 334q20 21 37 39.5t33 34.5q13 13 26 25.5t23.5 21t18 11.5t10.5 -1q2 -4 2.5 -14.5t2.5 -15.5t5.5 -44.5t8 -104.5t9.5 -150.5t11 -184t12.5 -204.5t13.5 -211q6 -96 31.5 -157.5t58.5 -97t68 -49.5t60 -14h10zM911 1409
q0 -2 -2 0h2z" />
    <glyph glyph-name="uni06440623.isol" unicode="&#xfedf;&#xfe84;" horiz-adv-x="1018" arabic-form="isolated" 
d="M927 542q-18 -150 -60 -253t-102 -171t-136 -106.5t-162 -59.5q-26 -7 -67 -9t-86.5 -0.5t-91 6t-80.5 12t-55 16.5t-15 20q1 4 25 11t63 16.5t90.5 23.5t108 32t116 41.5t113.5 52.5q-91 216 -178 399.5t-156 324.5q-40 81 -78.5 156t-74.5 145q11 24 21 45.5t19 39.5
q8 16 16 30.5t15 24.5t13 15t9 1q2 -2 22 -46t53 -116.5t75 -166.5t87.5 -196.5t90.5 -206t84 -194.5q19 -43 31 -102.5t8 -117.5q40 26 74 57t58 67t36.5 77.5t9.5 88.5q-13 230 -25 390t-23 261l-23 194q20 22 37 40t33 34q13 13 26 25.5t23.5 21t18 11.5t10.5 -1
q2 -4 3.5 -14t1.5 -15q0 -4 1 -9t1 -11.5t1 -15.5q13 -172 21 -334q3 -69 5.5 -142.5t3 -144t-2 -134t-8.5 -113.5zM907 1446q0 -3 -2 0h2zM82 1444l85 50q13 9 25 16q-20 11 -38.5 27.5t-33 37t-22.5 45.5t-6 52q1 19 11 42.5t27 48t38.5 47t46 40t49.5 28t48 9.5
q22 -1 44 -7t43 -19t40 -34.5t35 -53.5q5 -11 -1.5 -18t-31.5 5q-9 5 -36.5 15.5t-83.5 12.5q-29 1 -56.5 -8t-49 -24t-35 -32.5t-14.5 -32.5q-1 -13 15 -35.5t45 -42.5t68 -32.5t84 -4.5v-1l51 9q20 4 41.5 8t34.5 7q2 1 5 0.5t1 -5.5l-17 -48q-4 -10 -7.5 -20.5
t-7.5 -23.5q-50 -9 -106 -22t-111.5 -31t-108.5 -41.5t-98 -53.5z" />
    <glyph glyph-name="uni06440623.fina" unicode="&#xfee0;&#xfe84;" horiz-adv-x="1182" arabic-form="final" 
d="M1197 192v-192h-10q-39 0 -79.5 20.5t-77 59.5t-68 95.5t-53.5 128.5q-31 -100 -81.5 -166.5t-110.5 -110.5t-124 -69.5t-123 -42.5q-25 -8 -65.5 -10.5t-85.5 -1t-91 7t-81 13t-55.5 17.5t-15.5 21q1 4 24.5 10.5t62.5 16.5t90 23t108 31.5t116.5 42.5t114.5 54
q-91 216 -177 401t-157 326q-40 82 -78.5 156.5t-74.5 143.5q11 25 21 46t19 40q8 16 16 30.5t15 24.5t13 14.5t9 0.5q2 -2 22 -45.5t53 -116t75 -166.5t87.5 -196.5t90.5 -206t84 -194.5q19 -45 31.5 -105.5t7.5 -118.5q42 27 78.5 59t62.5 69.5t41.5 80.5t15.5 93
q0 40 -3.5 97t-9.5 123.5t-14 138t-17 139.5l-47 334q20 21 37 39.5t33 34.5q13 13 26 25.5t23.5 21t18 11.5t10.5 -1q2 -4 2.5 -14.5t2.5 -15.5t5.5 -44.5t8 -104.5t9.5 -150.5t11 -184t12.5 -204.5t13.5 -211q6 -96 31.5 -157.5t58.5 -97t68 -49.5t60 -14h10zM911 1409
q0 -2 -2 0h2zM82 1462l85 50q13 9 25 16q-20 11 -38.5 27.5t-33 37t-22.5 45.5t-6 52q1 19 11 42.5t27 48t38.5 47t46 40t49.5 28t48 9.5q22 -1 44 -7t43 -19t40 -34.5t35 -53.5q5 -11 -1.5 -18t-31.5 5q-9 5 -36.5 15.5t-83.5 12.5q-29 1 -56.5 -8t-49 -24t-35 -32.5
t-14.5 -32.5q-1 -13 15 -35.5t45 -42.5t68 -32.5t84 -4.5v-1l51 9q20 4 41.5 8t34.5 7q2 1 5 0.5t1 -5.5l-17 -48q-4 -10 -7.5 -20.5t-7.5 -23.5q-50 -9 -106 -22t-111.5 -31t-108.5 -41.5t-98 -53.5z" />
    <glyph glyph-name="uni06440625.isol" unicode="&#xfedf;&#xfe88;" horiz-adv-x="1039" arabic-form="isolated" 
d="M927 542q-18 -150 -60 -253t-102 -171t-136 -106.5t-162 -59.5q-26 -7 -67 -9t-86.5 -0.5t-91 6t-80.5 12t-55 16.5t-15 20q1 4 25 11t63 16.5t90.5 23.5t108 32t116 41.5t113.5 52.5q-91 216 -178 399.5t-156 324.5q-40 81 -78.5 156t-74.5 145q11 24 21 45.5t19 39.5
q8 16 16 30.5t15 24.5t13 15t9 1q2 -2 22 -46t53 -116.5t75 -166.5t87.5 -196.5t90.5 -206t84 -194.5q19 -43 31 -102.5t8 -117.5q40 26 74 57t58 67t36.5 77.5t9.5 88.5q-13 230 -25 390t-23 261l-23 194q20 22 37 40t33 34q13 13 26 25.5t23.5 21t18 11.5t10.5 -1
q2 -4 3.5 -14t1.5 -15q0 -4 1 -9t1 -11.5t1 -15.5q13 -172 21 -334q3 -69 5.5 -142.5t3 -144t-2 -134t-8.5 -113.5zM907 1446q0 -3 -2 0h2zM465 -531l85 50q13 9 25 16q-20 11 -38.5 27.5t-33 37t-22.5 45.5t-6 52q1 19 11 42.5t27 48t38.5 47t46 40t49.5 28t48 9.5
q22 -1 44 -7t43 -19t40 -34.5t35 -53.5q5 -11 -1.5 -18t-31.5 5q-9 5 -36.5 15.5t-83.5 12.5q-29 1 -56.5 -8t-49 -24t-35 -32.5t-14.5 -32.5q-1 -13 15 -35.5t45 -42.5t68 -32.5t84 -4.5v-1l51 9q20 4 41.5 8t34.5 7q2 1 5 0.5t1 -5.5l-17 -48q-4 -10 -7.5 -20.5
t-7.5 -23.5q-50 -9 -106 -22t-111.5 -31t-108.5 -41.5t-98 -53.5z" />
    <glyph glyph-name="uni06440625.fina" unicode="&#xfee0;&#xfe88;" horiz-adv-x="1181" arabic-form="final" 
d="M1197 192v-192h-10q-39 0 -79.5 20.5t-77 59.5t-68 95.5t-53.5 128.5q-31 -100 -81.5 -166.5t-110.5 -110.5t-124 -69.5t-123 -42.5q-25 -8 -65.5 -10.5t-85.5 -1t-91 7t-81 13t-55.5 17.5t-15.5 21q1 4 24.5 10.5t62.5 16.5t90 23t108 31.5t116.5 42.5t114.5 54
q-91 216 -177 401t-157 326q-40 82 -78.5 156.5t-74.5 143.5q11 25 21 46t19 40q8 16 16 30.5t15 24.5t13 14.5t9 0.5q2 -2 22 -45.5t53 -116t75 -166.5t87.5 -196.5t90.5 -206t84 -194.5q19 -45 31.5 -105.5t7.5 -118.5q42 27 78.5 59t62.5 69.5t41.5 80.5t15.5 93
q0 40 -3.5 97t-9.5 123.5t-14 138t-17 139.5l-47 334q20 21 37 39.5t33 34.5q13 13 26 25.5t23.5 21t18 11.5t10.5 -1q2 -4 2.5 -14.5t2.5 -15.5t5.5 -44.5t8 -104.5t9.5 -150.5t11 -184t12.5 -204.5t13.5 -211q6 -96 31.5 -157.5t58.5 -97t68 -49.5t60 -14h10zM911 1409
q0 -2 -2 0h2zM643 -484l85 50q13 9 25 16q-20 11 -38.5 27.5t-33 37t-22.5 45.5t-6 52q1 19 11 42.5t27 48t38.5 47t46 40t49.5 28t48 9.5q22 -1 44 -7t43 -19t40 -34.5t35 -53.5q5 -11 -1.5 -18t-31.5 5q-9 5 -36.5 15.5t-83.5 12.5q-29 1 -56.5 -8t-49 -24t-35 -32.5
t-14.5 -32.5q-1 -13 15 -35.5t45 -42.5t68 -32.5t84 -4.5v-1l51 9q20 4 41.5 8t34.5 7q2 1 5 0.5t1 -5.5l-17 -48q-4 -10 -7.5 -20.5t-7.5 -23.5q-50 -9 -106 -22t-111.5 -31t-108.5 -41.5t-98 -53.5z" />
    <glyph glyph-name="uni06440622.isol" unicode="&#xfedf;&#xfe82;" horiz-adv-x="1153" arabic-form="isolated" 
d="M1029 542q-18 -150 -60 -253t-102 -171t-136 -106.5t-162 -59.5q-26 -7 -67 -9t-86.5 -0.5t-91 6t-80.5 12t-55 16.5t-15 20q1 4 25 11t63 16.5t90.5 23.5t108 32t116 41.5t113.5 52.5q-91 216 -178 399.5t-156 324.5q-40 81 -78.5 156t-74.5 145q11 24 21 45.5t19 39.5
q8 16 16 30.5t15 24.5t13 15t9 1q2 -2 22 -46t53 -116.5t75 -166.5t87.5 -196.5t90.5 -206t84 -194.5q19 -43 31 -102.5t8 -117.5q40 26 74 57t58 67t36.5 77.5t9.5 88.5q-13 230 -25 390t-23 261l-23 194q20 22 37 40t33 34q13 13 26 25.5t23.5 21t18 11.5t10.5 -1
q2 -4 3.5 -14t1.5 -15q0 -4 1 -9t1 -11.5t1 -15.5q13 -172 21 -334q3 -69 5.5 -142.5t3 -144t-2 -134t-8.5 -113.5zM1009 1446q0 -3 -2 0h2zM578 1546q40 0 72.5 10t56.5 21t38.5 18.5t18.5 3.5t-5.5 -26t-35 -48.5t-68.5 -49.5t-105 -29q-31 -4 -64.5 -1.5t-66 6.5
t-62.5 7.5t-53 1.5q-26 -1 -46.5 -17.5t-37 -36t-28.5 -34.5t-21 -12q-5 2 -3.5 19.5t7 42.5t16 53t24 52.5t29.5 40.5t35 16q34 0 71 -6t75 -13t76.5 -13t76.5 -6z" />
    <glyph glyph-name="uni06440622.fina" unicode="&#xfee0;&#xfe82;" horiz-adv-x="1189" arabic-form="final" 
d="M1197 192v-192h-10q-39 0 -79.5 20.5t-77 59.5t-68 95.5t-53.5 128.5q-31 -100 -81.5 -166.5t-110.5 -110.5t-124 -69.5t-123 -42.5q-25 -8 -65.5 -10.5t-85.5 -1t-91 7t-81 13t-55.5 17.5t-15.5 21q1 4 24.5 10.5t62.5 16.5t90 23t108 31.5t116.5 42.5t114.5 54
q-91 216 -177 401t-157 326q-40 82 -78.5 156.5t-74.5 143.5q11 25 21 46t19 40q8 16 16 30.5t15 24.5t13 14.5t9 0.5q2 -2 22 -45.5t53 -116t75 -166.5t87.5 -196.5t90.5 -206t84 -194.5q19 -45 31.5 -105.5t7.5 -118.5q42 27 78.5 59t62.5 69.5t41.5 80.5t15.5 93
q0 40 -3.5 97t-9.5 123.5t-14 138t-17 139.5l-47 334q20 21 37 39.5t33 34.5q13 13 26 25.5t23.5 21t18 11.5t10.5 -1q2 -4 2.5 -14.5t2.5 -15.5t5.5 -44.5t8 -104.5t9.5 -150.5t11 -184t12.5 -204.5t13.5 -211q6 -96 31.5 -157.5t58.5 -97t68 -49.5t60 -14h10zM911 1409
q0 -2 -2 0h2zM575 1544q40 0 72.5 10t56.5 21t38.5 18.5t18.5 3.5t-5.5 -26t-35 -48.5t-68.5 -49.5t-105 -29q-31 -4 -64.5 -1.5t-66 6.5t-62.5 7.5t-53 1.5q-26 -1 -46.5 -17.5t-37 -36t-28.5 -34.5t-21 -12q-5 2 -3.5 19.5t7 42.5t16 53t24 52.5t29.5 40.5t35 16
q34 0 71 -6t75 -13t76.5 -13t76.5 -6z" />
    <glyph glyph-name="uni06440671.isol" unicode="&#xfedf;&#xfb51;" horiz-adv-x="1035" 
d="M927 513q-18 -150 -60 -253t-102 -171t-136 -106.5t-162 -59.5q-26 -7 -67 -9t-86.5 -0.5t-91 6t-80.5 12t-55 16.5t-15 20q1 4 25 11t63 16.5t90.5 23.5t108 32t116 41.5t113.5 52.5q-91 216 -178 399.5t-156 324.5q-40 81 -78.5 156t-74.5 145q11 24 21 45.5t19 39.5
q8 16 16 30.5t15 24.5t13 15t9 1q2 -2 22 -46t53 -116.5t75 -166.5t87.5 -196.5t90.5 -206t84 -194.5q19 -43 31 -102.5t8 -117.5q40 26 74 57t58 67t36.5 77.5t9.5 88.5q-13 230 -25 390t-23 261l-23 194q20 22 37 40t33 34q13 13 26 25.5t23.5 21t18 11.5t10.5 -1
q2 -4 3.5 -14t1.5 -15q0 -4 1 -9t1 -11.5t1 -15.5q13 -172 21 -334q3 -69 5.5 -142.5t3 -144t-2 -134t-8.5 -113.5zM907 1417q0 -3 -2 0h2zM701 1622q35 -47 35 -113q0 -19 -3 -40.5t-23 -44.5q-21 -26 -44 -36.5t-40 -15.5q-34 -8 -82 -8q-46 3 -72 13.5t-46 21.5t-41 20
t-56 10q-14 0 -26.5 -6t-24 -16t-22 -21.5t-20.5 -21.5q-7 -8 -16 -11t-20 5q-9 6 -8 16.5t7 19.5q44 68 80.5 102.5t79.5 34.5q11 0 47 -16q48 72 99 113t114 41q47 0 82 -47zM633 1475q11 2 29 8t29 18q-35 65 -92 65q-64 0 -141 -71q21 -11 42.5 -15t43.5 -6
q37 -3 56 -2.5t33 3.5z" />
    <glyph glyph-name="uni06440671.fina" unicode="&#xfee0;&#xfb51;" horiz-adv-x="1190" 
d="M1197 192v-192h-10q-39 0 -79.5 20.5t-77 59.5t-68 95.5t-53.5 128.5q-31 -100 -81.5 -166.5t-110.5 -110.5t-124 -69.5t-123 -42.5q-25 -8 -65.5 -10.5t-85.5 -1t-91 7t-81 13t-55.5 17.5t-15.5 21q1 4 24.5 10.5t62.5 16.5t90 23t108 31.5t116.5 42.5t114.5 54
q-91 216 -177 401t-157 326q-40 82 -78.5 156.5t-74.5 143.5q11 25 21 46t19 40q8 16 16 30.5t15 24.5t13 14.5t9 0.5q2 -2 22 -45.5t53 -116t75 -166.5t87.5 -196.5t90.5 -206t84 -194.5q19 -45 31.5 -105.5t7.5 -118.5q42 27 78.5 59t62.5 69.5t41.5 80.5t15.5 93
q0 40 -3.5 97t-9.5 123.5t-14 138t-17 139.5l-47 334q20 21 37 39.5t33 34.5q13 13 26 25.5t23.5 21t18 11.5t10.5 -1q2 -4 2.5 -14.5t2.5 -15.5t5.5 -44.5t8 -104.5t9.5 -150.5t11 -184t12.5 -204.5t13.5 -211q6 -96 31.5 -157.5t58.5 -97t68 -49.5t60 -14h10zM911 1409
q0 -2 -2 0h2zM743 1641q35 -47 35 -113q0 -19 -3 -40.5t-23 -44.5q-21 -26 -44 -36.5t-40 -15.5q-34 -8 -82 -8q-46 3 -72 13.5t-46 21.5t-41 20t-56 10q-14 0 -26.5 -6t-24 -16t-22 -21.5t-20.5 -21.5q-7 -8 -16 -11t-20 5q-9 6 -8 16.5t7 19.5q44 68 80.5 102.5t79.5 34.5
q11 0 47 -16q48 72 99 113t114 41q47 0 82 -47zM675 1494q11 2 29 8t29 18q-35 65 -92 65q-64 0 -141 -71q21 -11 42.5 -15t43.5 -6q37 -3 56 -2.5t33 3.5z" />
    <glyph glyph-name="allah" unicode="&#x627;&#xfedf;&#xfee0;&#xfeea;" horiz-adv-x="2056" arabic-form="isolated" 
d="M1095 1421q1 12 1.5 23.5t0.5 22.5q0 88 -35 149q25 56 69 56q18 -60 18 -130q0 -121 -54 -121zM1017 1117q-40 -1 -65.5 10t-39.5 29t-19 41.5t-5 48.5t4.5 48t8.5 41q3 9 6.5 16l6.5 13q7 11 14 14.5t16 -5.5q2 -2 1 -15t-2 -31.5t0 -39t7 -37.5t19 -28t36 -10
q31 2 48.5 14t26.5 31t11.5 44t4.5 55q0 12 6 23t17 12q9 1 16 -9.5t10 -26.5q4 -21 8.5 -43t13 -40t23.5 -28.5t40 -8.5q27 2 43 7q15 5 28 14t12 27q-1 20 -11 44t-22 47q-7 13 -14 25.5t-15 25.5l18 43q7 16 14 28.5t12 14.5q2 0 12 -18t21.5 -46.5t20.5 -63t9 -67.5
q0 -82 -35 -126.5t-84 -49.5q-24 -2 -41 0t-29 7.5t-20.5 14t-16.5 19.5q-17 -35 -47 -49t-68 -15zM1624 1191q46 -251 69 -455t23 -366q0 -369 -259 -369q-254 0 -326 239q-72 -239 -274 -239h-22q-236 0 -281 277q-108 -127 -125 -127h-56q-85 0 -175 29q-120 39 -120 108
q0 150 82 253q59 74 356 192l1 86l113 126q1 -2 2.5 -21t3.5 -42.5t3.5 -46.5t1.5 -34v-104q0 -61 2.5 -116.5t7.5 -106.5q13 -136 39 -190q45 -91 152 -91h17q93 0 150 63t57 156v266q0 40 -1 69.5t-2.5 58.5t-4.5 61t-6 76l141 119v-536q0 -134 59 -226q68 -107 196 -107
q144 0 144 150q0 89 -25 268t-76 451zM442 330q27 0 52.5 2.5t48.5 7.5l-20 264q-45 -13 -91.5 -30.5t-98.5 -40.5q-150 -69 -150 -112t112 -72q80 -19 147 -19zM1872 -13q-8 -11 -11.5 -8.5t-3.5 7.5q-4 295 -12.5 536.5t-19.5 419.5q-6 103 -12 195t-13 175q23 23 43 43.5
t39 37.5q16 14 31.5 27.5t28.5 24t23 16t14 2.5q5 -5 7 -21q1 -5 1 -15q2 -100 2.5 -201t-0.5 -206q0 -89 -2 -188.5t-5.5 -203t-9.5 -207.5t-13 -201q-6 -34 -16.5 -68.5t-23.5 -65.5t-25.5 -57t-21.5 -42z" />
    <glyph glyph-name="riyal" unicode="&#x631;&#xfef3;&#xfe8e;&#x644;" horiz-adv-x="2680" arabic-form="isolated" 
d="M1227 1652q2 0 4 -2q3 -5 5 -14t2 -17q0 -100 -0.5 -212.5t-2.5 -232.5l-3 -239q-2 -119 -3.5 -230.5t-3 -207.5t-2.5 -171t-1 -120v-55q12 -362 -142.5 -545.5t-462.5 -183.5q-91 0 -177 22.5t-157 69t-121.5 118t-70.5 169t-4 222t78 276.5q9 23 21 53t25 60.5t26.5 58
t27.5 45.5t28 23.5t26 -8.5q11 -11 9 -25.5t-12.5 -40t-27 -66t-35.5 -104.5q-20 -71 -33.5 -142t-12.5 -138t21.5 -127t67.5 -107t125.5 -79t195.5 -43q131 -13 228 19t160 98.5t91.5 162.5t22.5 212q-6 92 -12 199t-14 220l-13 225l-12 214l-29 486l83 77q16 15 32.5 29
t30.5 25.5t25 18.5t17 7zM1672 57q-55 5 -108 31t-95 71.5t-68 109t-26 143.5q0 110 -4 229t-9.5 234.5t-13 222t-14 191t-12.5 141.5t-9 73q13 12 22.5 21t17.5 16t16 14.5t18 16.5q17 16 34 32.5t30.5 29t22.5 19t12 2.5q5 -4 6.5 -14.5t1.5 -18.5q8 -153 13 -276.5
t7 -226t2 -188.5t-1 -163.5t-2 -151.5t-1 -153q0 -36 8.5 -63.5t22 -47.5t31 -33.5t36.5 -22.5q23 -12 46.5 -19t52.5 -7h45h26q34 2 63.5 4t56.5 8q23 4 45 10.5t39.5 17t29 24.5t14.5 33q4 26 -0.5 58.5t-15 68t-24.5 72t-29 71.5q-19 41 -40.5 82.5t-44.5 86.5l57 106
q12 20 23 39.5t21.5 34.5t19 24t14.5 9t21 -28.5t33 -76t36.5 -109.5t31.5 -129.5t18.5 -136.5t-3.5 -129q-10 -65 -44 -128t-80.5 -113t-100.5 -81t-105 -31h-62h-56h-26v1zM2332 748q6 0 20.5 -25t32 -69.5t36 -105t32 -131.5t20 -149.5t-0.5 -157.5q-7 -99 -41.5 -193
t-85 -176.5t-110.5 -152t-118.5 -119t-109 -77.5t-82.5 -28q-17 0 -40 8t-48 20.5t-49.5 28t-46 31t-37 29.5t-21.5 23q-8 10 -2.5 23t22.5 13q70 0 146.5 28.5t150.5 75t141 106.5t118 123t81 124t30 110q0 35 -10 77.5t-26 86t-36 86.5t-39 79t-35.5 62t-26.5 38
q17 34 38 71.5t40.5 68.5t35 51.5t21.5 20.5zM1810 -169l-138 -138l-142 144l141 143l138 -138l138 138l142 -144l-142 -143z" />
    <glyph glyph-name="uni0621" unicode="&#x621;" horiz-adv-x="973" arabic-form="isolated" 
d="M101 14l154 88q14 9 25 15.5t20 12.5q-35 20 -68 50t-58 68t-39 82.5t-10 93.5q2 34 21 76.5t49.5 85.5t70.5 83.5t84 71.5t89 49t87 16q40 -3 79.5 -14.5t77 -35.5t71 -63t61.5 -97q4 -10 3.5 -19t-7 -13.5t-20.5 -3t-36 12.5q-8 5 -24 13t-41.5 16t-62 14.5t-87.5 9.5
q-52 3 -102 -12.5t-89 -41.5t-64 -57t-27 -59q-2 -15 11 -39t37 -50.5t58.5 -52.5t77 -44.5t92 -26.5t103.5 1v-2l92 15q36 7 75 13.5t63 11.5q4 2 9 1t0 -10l-31 -86q-7 -17 -14 -36.5t-14 -42.5q-91 -15 -191.5 -36.5t-201.5 -52.5t-197 -72t-177 -95z" />
    <glyph glyph-name="uni0627" unicode="&#x627;" horiz-adv-x="426" arabic-form="isolated" 
d="M190 -13q-8 -11 -11.5 -8.5t-3.5 7.5q-4 295 -12.5 536.5t-19.5 419.5q-6 103 -12 195t-13 175q23 23 43 43.5t39 37.5q16 14 31.5 27.5t28.5 24t23 16t14 2.5q5 -5 7 -21q1 -5 1 -15q2 -100 2.5 -201t-0.5 -206q0 -89 -2 -188.5t-5.5 -203t-9.5 -207.5t-13 -201
q-6 -34 -16.5 -68.5t-23.5 -65.5t-25.5 -57t-21.5 -42z" />
    <glyph glyph-name="uni0627.fina" unicode="&#x627;" horiz-adv-x="551" arabic-form="final" 
d="M505 0q-53 0 -105 21.5t-93.5 62.5t-67.5 100.5t-26 136.5q0 99 -3.5 207t-9 212.5t-12 200.5t-12.5 172.5t-11.5 127.5t-7.5 66q12 11 20 19t15.5 14.5t14.5 13t16 14.5q16 14 31 29t27.5 26.5t21 17.5t10.5 2q4 -4 5.5 -13.5t1.5 -16.5q8 -138 12 -249.5t6 -204
t2.5 -170t0 -147.5t-1.5 -137t-1 -138q0 -33 7 -57.5t19 -42.5t28 -30.5t34 -20.5q20 -11 41 -17t49 -6h39v-193h-50z" />
    <glyph glyph-name="uni062D" unicode="&#x62d;" horiz-adv-x="1402" arabic-form="isolated" 
d="M220 -98q0 -78 40 -154.5t121.5 -136.5t205 -97t289.5 -37q94 0 173 7t142 17.5t109.5 21.5t76.5 19q27 7 33.5 0t-10.5 -27q-23 -26 -66 -63t-112 -72t-166 -59.5t-229 -24.5q-170 0 -308 41t-232 118t-138.5 187.5t-27.5 250.5q6 54 24.5 117t54.5 128t93 129.5
t141.5 121t200 101.5t267.5 73q-57 19 -114 44t-111.5 47t-106.5 37t-99 15q-54 0 -96.5 -20.5t-72.5 -43.5q-35 -29 -64 -64q-12 -18 -27 -26t-26 -5t-15.5 18.5t6.5 43.5q25 70 57.5 126t71.5 96t85 61.5t98 21.5q53 0 115 -19.5t131 -48.5t145.5 -63.5t160.5 -64.5
t174.5 -51t187.5 -24q14 0 20.5 -2.5t9 -6t1 -8.5t-3.5 -11l-94 -164q-203 0 -365 -23t-285.5 -63.5t-211.5 -94t-144.5 -114.5t-82.5 -126t-26 -128z" />
    <glyph glyph-name="uni062D.init" unicode="&#x62d;" horiz-adv-x="1260" arabic-form="initial" 
d="M-105 96q0 40 28 68t68 28h108q46 0 111 9t140.5 25.5t157.5 40t162 53.5t154.5 66t135.5 76q-95 33 -177 66.5t-151.5 60.5t-127.5 44t-106 17q-52 0 -94.5 -20t-72.5 -45q-19 -14 -35 -30t-30 -33q-12 -18 -27 -26t-26.5 -5t-15.5 18t6 44q51 141 128.5 213t183.5 72
q54 0 113 -19t124.5 -47t137.5 -61.5t151.5 -63t167.5 -50t184 -22.5q28 -1 30 -9t-3 -21l-92 -151q-68 -17 -151.5 -52.5t-177.5 -79.5t-196.5 -90.5t-208.5 -84.5t-213.5 -62.5t-211.5 -24.5h-74h-4q-40 0 -68 28t-28 68z" />
    <glyph glyph-name="uni062D.medi" unicode="&#x62d;" horiz-adv-x="1359" arabic-form="medial" 
d="M-106 96q0 40 28 68t68 28h4h97q46 0 111 8.5t140.5 25t157.5 40t162 53t154.5 65t134.5 74.5q-95 33 -176.5 67t-151.5 61t-128 44t-105 17q-52 0 -95 -20.5t-72 -43.5q-20 -14 -35.5 -29.5t-29.5 -32.5q-12 -19 -27.5 -27t-26.5 -4.5t-15.5 18.5t5.5 43
q51 141 129 212.5t183 71.5q54 0 113.5 -18.5t124.5 -47t137.5 -62t151.5 -62.5t166.5 -49.5t183.5 -22.5q29 -1 31 -9.5t-3 -19.5l-91 -152q-76 -20 -169 -61q6 -41 21.5 -67.5t44 -42.5t73 -22.5t109.5 -6.5h69v-192h-69q-104 0 -168.5 21t-101 59.5t-52 91.5t-20.5 117
q-99 -45 -208.5 -96t-224 -93.5t-231.5 -71t-232 -28.5h-67h-4q-40 0 -68 28t-28 68z" />
    <glyph glyph-name="uni062D.fina" unicode="&#x62d;" horiz-adv-x="1479" arabic-form="final" 
d="M1491 192v-192h-80q-85 0 -144 17t-98 47t-61 71t-32.5 90t-13 103t-2.5 110q-152 -13 -273.5 -42.5t-214.5 -71t-159.5 -92.5t-109 -106t-62.5 -112.5t-20 -112.5q0 -78 40 -154.5t121 -136.5t204 -97t290 -37q94 0 172.5 7t141.5 17.5t110 21.5t77 19q27 7 33.5 -1
t-10.5 -26q-23 -26 -66 -63.5t-111.5 -72t-166 -59t-229.5 -24.5q-170 0 -307.5 41t-231.5 118t-138.5 187.5t-27.5 250.5q6 54 24.5 117t54.5 128t93 129.5t142 121t200 101.5t268 73q-58 19 -115 44t-111.5 47t-106.5 37t-99 15q-54 0 -96.5 -20.5t-72.5 -43.5
q-17 -15 -33 -30.5t-31 -33.5q-12 -18 -27 -26t-26 -5t-15 18.5t6 43.5q25 70 57.5 126t71.5 96t85 61.5t98 21.5q53 0 115 -19.5t131 -48.5t145.5 -63.5t160.5 -64.5t174.5 -51t187.5 -24q28 0 30 -8.5t-3 -19.5l-94 -164q-47 0 -91.5 -1.5t-87.5 -3.5q1 -64 10.5 -111.5
t36.5 -79t76.5 -47t130.5 -15.5h80z" />
    <glyph glyph-name="uni062F" unicode="&#x62f;" horiz-adv-x="939" arabic-form="isolated" 
d="M293 892l51 89q20 34 39 61t30 27q3 0 38 -25.5t85 -71.5t107.5 -110t106.5 -141t81.5 -164.5t32.5 -180.5q0 -116 -39.5 -190t-106 -116.5t-153 -59t-179.5 -16.5q-74 0 -126 19t-86 47.5t-52.5 62.5t-26 63.5t-6 50t6.5 23.5q8 4 21.5 -6.5t43.5 -25t82.5 -27
t139.5 -12.5q50 0 107.5 1t110 10t93 29t57.5 59q17 41 6.5 88t-39 97t-71.5 100.5t-90 97.5q-56 55 -121 110t-143 111z" />
    <glyph glyph-name="uni0631" unicode="&#x631;" horiz-adv-x="764" arabic-form="isolated" 
d="M564 642q5 0 18 -22.5t29.5 -62.5t33 -95t28.5 -119t17.5 -134.5t-0.5 -142.5q-7 -89 -38 -173.5t-76 -159.5t-99.5 -137.5t-107 -107.5t-98.5 -70t-75 -25q-23 0 -57 15t-67 35.5t-59.5 42t-34.5 33.5q-7 9 -1.5 20.5t19.5 11.5q63 0 132 25.5t136 68t127.5 96.5
t106.5 111t73 112.5t27 99.5q0 32 -9 70t-23.5 77.5t-32.5 78t-35 71t-32 56.5t-24 34q16 31 35 64.5t36.5 61.5t31 46.5t19.5 18.5z" />
    <glyph glyph-name="uni0631.fina" unicode="&#x631;" horiz-adv-x="953" arabic-form="final" 
d="M585 583q5 0 14 -16.5t21.5 -44t28.5 -63t36 -72.5q21 -37 46.5 -72t59 -62.5t75.5 -44t95 -16.5v-192q-69 0 -114 10t-75 26t-49 37t-35 44q0 -107 -29 -202t-75 -175.5t-102.5 -145t-112 -109t-103.5 -68.5t-76 -24q-19 0 -51.5 15t-66 36t-60.5 42.5t-36 33.5
q-7 11 -2 21.5t22 10.5q68 0 139 27t138 71t126.5 99.5t103.5 112t70 109t26 90.5q0 43 -16 92t-38 94.5t-45 84t-36 59.5q15 31 33 65t35.5 62t31.5 46.5t21 18.5z" />
    <glyph glyph-name="uni0633" unicode="&#x633;" horiz-adv-x="2539" arabic-form="isolated" 
d="M2357 869q5 0 16 -21t24.5 -57.5t27.5 -84t24 -101t14.5 -109t-0.5 -106.5q-9 -97 -39 -170t-74 -122t-98.5 -73.5t-112.5 -24.5q-40 0 -73.5 10.5t-61 27.5t-49 39t-37.5 45q-18 26 -32.5 56.5t-24.5 65.5q-8 -35 -22 -65.5t-32 -56.5q-15 -23 -37 -44.5t-50.5 -38.5
t-64 -27.5t-78.5 -10.5q-72 0 -115.5 17.5t-68.5 40.5q-27 24 -41 59q1 -26 2 -56t-2 -59q-11 -134 -59 -246t-135 -192t-213.5 -124.5t-293.5 -42.5q-82 0 -164 23.5t-152 71t-122 119.5t-74.5 168.5t-10 218t72.5 267.5q9 21 19.5 48t22 54.5t24 52.5t25 41.5t25 21.5
t23.5 -7q10 -10 8 -23t-11 -36t-24.5 -60t-32.5 -95q-18 -63 -30.5 -133.5t-11.5 -140t21 -134t67.5 -116t126 -85.5t198.5 -43q128 -10 237.5 18t190 89.5t126 154.5t45.5 212q-4 72 -20.5 131.5t-37 106t-41 78.5t-32.5 48q16 30 34.5 63.5t35.5 62t31 47t21 18.5
q5 0 17.5 -33t32.5 -83t47 -107.5t62.5 -107.5t79 -83t95.5 -33q55 0 94.5 32.5t67 83t45 113t29.5 122.5q3 14 8 28.5t11 26t14 19t19 7.5q20 0 30 -27t10 -65q0 -27 6.5 -62.5t19.5 -73t33 -74.5t46 -66t58.5 -47t71.5 -18q28 0 64 3.5t69.5 22t59 58.5t31.5 112
q4 48 -15 98t-45 93q-15 25 -32 49t-36 49l51 96q10 18 20.5 35t20 30.5t17.5 22t14 8.5z" />
    <glyph glyph-name="uni0633.init" unicode="&#x633;" horiz-adv-x="1491" arabic-form="initial" 
d="M1296 868q5 0 16 -21t24 -57.5t26.5 -84t23.5 -101t15 -109t1 -107.5q-9 -96 -39 -168.5t-74 -121.5t-99 -73.5t-113 -24.5q-115 0 -181.5 64t-67.5 179q-27 -76 -58.5 -123.5t-66.5 -74t-74.5 -36t-84.5 -9.5q-78 0 -130 48.5t-72 143.5q-5 19 -7 38.5t-2 39.5
q-9 -20 -18.5 -39.5t-18.5 -38.5q-23 -44 -49.5 -79.5t-61.5 -60.5t-81 -38.5t-108 -13.5v192q73 0 125.5 27t91.5 72.5t67.5 106t53.5 128.5q5 13 12 30.5t15.5 33.5t18.5 26t21 9q10 -2 14.5 -12.5t4.5 -27t-3.5 -36t-7.5 -38.5q-7 -30 -9.5 -65.5t1 -71t13 -68.5
t26 -58.5t41.5 -40.5t60 -15q73 0 119.5 31t78 81t54.5 113t49 127q5 13 11.5 28.5t14.5 28t17.5 20t21.5 4.5q19 -5 22 -29.5t-4 -62.5q-5 -26 -6.5 -61.5t2 -73.5t14 -74.5t29 -66t46.5 -47.5t67 -18q29 1 56 7.5t50 17.5q20 10 39.5 24t36 34.5t27.5 48t15 63.5
q4 48 -15 98.5t-45 94.5q-14 25 -31.5 49.5t-37.5 47.5l52 95q10 18 21 35t20.5 30.5t17.5 22t13 8.5z" />
    <glyph glyph-name="uni0633.medi" unicode="&#x633;" horiz-adv-x="1597" arabic-form="medial" 
d="M1406 533q-2 -29 1 -65.5t11.5 -74.5t23 -74t37 -64.5t52.5 -45.5t70 -17v-192q-57 0 -103.5 16.5t-79 48t-50.5 76.5t-18 102q-27 -75 -57 -122.5t-64 -74.5t-73 -36.5t-83 -9.5q-116 0 -181.5 64t-67.5 179q-27 -75 -58 -122.5t-66.5 -74.5t-75 -36.5t-84.5 -9.5
q-78 0 -130 48.5t-72 143.5q-6 19 -7.5 38.5t-1.5 39.5q-9 -20 -18.5 -39.5t-17.5 -38.5q-24 -44 -50.5 -79.5t-61.5 -60.5t-81 -38.5t-108 -13.5v192q72 0 124.5 27t91.5 72.5t68 106.5t54 129q6 13 13 30.5t15.5 33t18 25.5t20.5 9q10 -2 14.5 -12.5t4.5 -27t-3 -36
t-7 -38.5q-7 -30 -9.5 -65.5t0.5 -71t12 -68.5t26 -58.5t42 -40.5t60 -15q73 0 119.5 31t78.5 81.5t55 113.5t49 127q5 13 11.5 28t14.5 27.5t17.5 20t21.5 4.5q18 -5 21 -29.5t-3 -62.5q-5 -26 -7 -61.5t1.5 -73.5t13.5 -74.5t28 -66t46 -47.5t67 -18q49 0 84 14.5t59 39.5
t40 59.5t28 73.5t21.5 81.5t21.5 84.5q4 15 8 29.5t8.5 26t12 18t19.5 6.5q12 1 19.5 -6t10.5 -20t3.5 -30t-0.5 -36z" />
    <glyph glyph-name="uni0633.fina" unicode="&#x633;" horiz-adv-x="2663" arabic-form="final" 
d="M2472 534q-2 -29 1 -65.5t11.5 -74.5t23.5 -74.5t37 -64.5t52 -45.5t69 -17.5v-192q-115 0 -181.5 64.5t-68.5 179.5q-27 -76 -57 -123.5t-64.5 -74.5t-73 -36.5t-82.5 -9.5q-40 0 -73.5 10.5t-61 28t-49 39t-37.5 44.5q-18 27 -32.5 57.5t-24.5 64.5q-8 -34 -22 -64.5
t-32 -57.5q-15 -23 -36.5 -44.5t-50 -38t-64 -27t-78.5 -10.5q-74 0 -117 18t-68 41q-14 11 -24 25.5t-17 31.5q1 -26 2 -56t-2 -57q-11 -134 -59 -246t-135 -192.5t-213.5 -125t-293.5 -43.5q-82 0 -164 23.5t-152 71.5t-122 120t-74.5 168t-10 217.5t72.5 267.5
q9 21 19.5 48.5t22 55t24 52.5t25 41t25 21t23.5 -7q10 -10 8 -22.5t-11 -36t-24.5 -60t-32.5 -94.5q-18 -64 -30.5 -134t-11.5 -139.5t21 -134t67.5 -116t126 -86t198.5 -43.5q128 -10 237.5 18.5t190 90t126 154t45.5 212.5q-4 72 -20.5 131.5t-37 106t-41 78.5t-32.5 49
q16 30 35 63t36.5 61.5t31 47t19.5 18.5q5 0 17.5 -33t32.5 -82.5t47 -107.5t62.5 -107.5t79 -82.5t95.5 -33q56 0 96 32t67.5 83t44.5 113.5t29 122.5q2 14 6.5 28t10.5 25.5t15 19t20 7.5q19 0 29 -27t10 -65q0 -26 6.5 -61.5t19 -73.5t32 -75t45.5 -66t59 -47t73 -18
q49 0 83.5 14.5t59 39.5t40.5 59t28 73.5t21.5 82t21.5 84.5q4 15 7 29.5t8 26t13 18t20 6.5q13 0 20 -7t10 -19.5t3 -29.5t-1 -36z" />
    <glyph glyph-name="uni0635" unicode="&#x635;" horiz-adv-x="2556" arabic-form="isolated" 
d="M2278 808q82 -23 129.5 -62.5t69 -88.5t21.5 -104t-14 -111t-37.5 -108.5t-48.5 -95.5q-41 -72 -103 -121.5t-137 -80.5t-158.5 -45t-167.5 -15t-163.5 8t-146 25.5t-116 38t-73.5 43.5q2 -23 1 -41.5t-1 -47.5q0 -138 -45.5 -250.5t-133.5 -191.5t-216.5 -122
t-294.5 -41q-83 0 -164.5 23.5t-151.5 71t-122 119t-74.5 168t-9.5 218.5t72 269q9 21 19.5 48t22 54t24 52t25 41.5t25 21.5t23.5 -7q10 -10 8 -23t-11 -36t-24.5 -60t-32.5 -95q-18 -63 -30.5 -133.5t-11.5 -140t21 -134t67.5 -116t126.5 -85.5t198 -43
q128 -11 237.5 17.5t190 90t126 154.5t45.5 212q-4 72 -24 131.5t-45 106t-49 78.5l-36 48q15 30 34 63.5t36.5 62t32 47t21.5 18.5q8 0 17 -20.5t20 -54.5t25.5 -77t33.5 -88t44 -87.5t58 -75.5q25 33 64.5 78t89.5 96t107.5 104.5t119.5 102.5t126.5 90.5t127 68.5t122 37
t111.5 -5zM2403 404q8 30 -2 60.5t-34.5 57.5t-61.5 48.5t-83 33.5q-86 22 -169 5t-159 -57.5t-142 -95.5t-117.5 -108t-85 -96.5t-45.5 -59.5q157 -22 282.5 -24.5t222.5 9t167.5 35.5t118 54.5t73.5 66.5t35 71z" />
    <glyph glyph-name="uni0635.init" unicode="&#x635;" horiz-adv-x="1559" arabic-form="initial" 
d="M-106 96q0 40 28 68t68 28h1q73 0 124 27t87.5 72.5t63 106t51.5 128.5q5 13 12 30.5t16 33.5t19 26t21 9q10 -2 13.5 -12.5t3 -27t-3.5 -36t-6 -38.5q-13 -83 -1.5 -137.5t30.5 -86.5q20 -36 53 -58q22 34 64 92t98 125.5t123 136.5t139 125.5t147 92t146 35.5
q97 0 157 -28.5t92.5 -73t42.5 -99t7.5 -106t-12.5 -93.5t-18 -63q-18 -45 -40 -91t-53 -90t-75 -82.5t-106.5 -67.5t-146.5 -45.5t-196 -16.5q-150 0 -249 20t-158.5 57.5t-86.5 91.5t-33 121l-37 -78q-23 -44 -48 -79.5t-57 -60.5t-75.5 -38.5t-104.5 -13.5h-4
q-40 0 -68 28t-28 68zM1384 398q5 13 7 36t-3.5 49.5t-20.5 53t-42.5 47.5t-69 33t-101.5 9q-77 -4 -146 -29t-129.5 -62.5t-111.5 -83.5t-92 -91.5t-71.5 -87t-49.5 -69.5q54 -15 126.5 -23.5t170.5 -8.5q108 -1 188 12t138 34.5t96 48t61 52t34.5 47t15.5 33.5z" />
    <glyph glyph-name="uni0635.medi" unicode="&#x635;" horiz-adv-x="1553" arabic-form="medial" 
d="M-103 96q0 40 28 68t68 28h2q73 0 125 27t89.5 73t65.5 106.5t53 127.5q5 13 12 30.5t15.5 33.5t18.5 26t21 9q10 -2 13.5 -12.5t3 -27t-3.5 -36t-5 -38.5q-13 -83 -1.5 -137.5t30.5 -86.5q20 -36 53 -58q22 34 64 92t97.5 125.5t122.5 136.5t139 125.5t147 92t146 35.5
q73 0 124.5 -16.5t86 -44t54 -64t28 -76t8 -79.5t-5.5 -75.5t-12.5 -63.5t-13.5 -44q-18 -45 -38.5 -90t-50.5 -88q28 -2 60.5 -2.5t59.5 -0.5h64v-192q-47 0 -101.5 0.5t-111 2t-113 5.5t-107.5 10q-56 -19 -124 -28.5t-154 -9.5q-151 0 -250 20t-158.5 57.5t-86.5 91.5
t-33 121q-8 -20 -17.5 -39.5t-18.5 -38.5q-24 -44 -49.5 -79.5t-59.5 -60.5t-79 -38.5t-107 -13.5h-2q-40 0 -68 28t-28 68zM564 203q55 -15 127.5 -23.5t170.5 -8.5q107 -1 187.5 12t138 34.5t95.5 48t61.5 52t35 47t15.5 33.5q5 13 7 36t-3.5 49.5t-20.5 53.5t-42.5 48
t-69 33t-101.5 10q-77 -4 -146.5 -29.5t-130 -63.5t-112 -84t-92.5 -92t-71.5 -87t-48.5 -69z" />
    <glyph glyph-name="uni0635.fina" unicode="&#x635;" horiz-adv-x="2539" arabic-form="final" 
d="M2542 193v-193h-28q-47 0 -83.5 12t-63.5 29.5t-45.5 37.5t-28.5 37q-37 -38 -92.5 -64t-123 -42t-142 -22.5t-149.5 -5t-146 10.5t-131 23t-105.5 33.5t-68.5 41.5q1 -23 0.5 -42t-0.5 -46q0 -138 -45.5 -250.5t-133.5 -192t-217 -122.5t-295 -42q-83 0 -164.5 23.5
t-151.5 71.5t-121.5 120t-74 168.5t-9.5 218.5t72 269q8 20 18.5 47t22 54.5t24 52t25.5 41t25 21.5t24 -7q10 -10 8 -23.5t-12 -36.5t-25 -60t-32 -94q-18 -64 -30.5 -134t-11.5 -139.5t21 -134t67.5 -115.5t126.5 -85.5t198 -43.5q128 -11 238 17.5t190.5 90t126 154.5
t45.5 212q-4 72 -24.5 132t-45.5 106t-49 78t-36 49q16 29 34.5 62.5t36 62t32 47t22.5 18.5t16.5 -20.5t20 -54.5t26 -77t34 -87.5t44 -87t56.5 -75.5q34 41 91 104t128.5 132.5t154 137.5t168 118t169.5 74t159 6q72 -18 118.5 -56t70 -87t26.5 -105t-12 -111
q-34 -121 -85 -206q20 -28 50 -39.5t65 -11.5h28zM1504 193q237 -33 402.5 -24.5t271.5 43.5t160 87t68 106q7 29 -3 59.5t-34.5 57.5t-61.5 48.5t-83 33.5q-64 16 -127.5 10t-123 -28t-115 -56t-105 -73.5t-91 -81t-74 -78t-54 -64.5t-30.5 -40z" />
    <glyph glyph-name="uni0637" unicode="&#x637;" horiz-adv-x="1485" arabic-form="isolated" 
d="M1122 857q97 0 157 -28.5t92.5 -73t42.5 -98.5t7.5 -105.5t-12.5 -94.5t-18 -64q-19 -44 -44 -91.5t-62 -92.5t-87 -86t-118 -71.5t-155.5 -48.5t-199.5 -18q-138 0 -237.5 6t-174.5 18q-29 4 -47 7.5t-30 6.5l-20 6q-47 13 -79.5 31t-55 40.5t-37.5 49.5t-27 57
q-7 17 -1 26t21 6q62 -15 145.5 -24.5t177.5 -16.5q8 9 19.5 24.5t22 30.5t18.5 26t10 13q13 19 21 47.5t13 59.5t7 60.5t2 50.5v42q-3 230 -14.5 392t-21.5 266q-8 60 -15.5 110t-14.5 89q21 23 40 42l36 36q16 14 31 27t28 23t22.5 15t13.5 2q2 -3 2.5 -8t1.5 -13
q1 -5 1 -15l12 -219q5 -102 8 -237t1 -292q0 -20 -0.5 -57.5t-5.5 -83t-15.5 -94t-31.5 -90.5q61 72 132 145t145 132.5t149 97t145 37.5zM1314 419q5 13 7 36.5t-4 49.5t-20.5 53t-41.5 48t-69 33t-102 9q-76 -4 -146.5 -31t-133.5 -68t-117.5 -90.5t-99.5 -99t-79.5 -93
t-56.5 -72.5q16 -2 34 -3.5t40 -2.5q36 -3 90 -4t123 -1q115 0 201.5 14t148.5 36t103 49.5t66.5 53.5t38 48.5t18.5 34.5z" />
    <glyph glyph-name="uni0637.init" unicode="&#x637;" horiz-adv-x="1224" arabic-form="initial" 
d="M-115 96q0 40 28 68t68 28h102q5 8 17 24.5l24 33t21.5 29t10.5 13.5q12 19 20.5 47.5t13 59.5t6.5 60.5t2 51.5v41q-4 230 -15 392t-22 266q-7 61 -14.5 110.5t-14.5 88.5q20 23 39.5 42t37.5 36q15 14 30 27.5t27.5 23t22 14.5t13.5 2q5 -4 7 -20q1 -5 1 -8.5v-7.5
q3 -50 5.5 -104t5.5 -114q4 -103 7 -238.5t0 -292.5q0 -18 -0.5 -55.5t-5 -83.5t-15 -94.5t-31.5 -89.5q61 72 132 145t145 132.5t149 97t144 37.5q97 0 157 -28.5t92.5 -73t42.5 -99t7.5 -106t-12.5 -94t-18 -63.5q-17 -44 -38.5 -90.5t-53 -90t-76 -82.5t-107 -67.5
t-146.5 -45.5t-195 -17h-504q-4 -1 -14 -1q-40 0 -68 28t-28 68zM1040 420q5 13 6.5 36t-4 49.5t-20 53t-42 47.5t-69 33t-100.5 9q-77 -4 -147.5 -31t-133.5 -68t-118 -91t-100 -99.5t-79.5 -93t-56.5 -72.5q55 -1 139.5 -0.5t191.5 -0.5q108 0 188 13.5t137.5 35t95 48
t61 51.5t35 46.5t16.5 33.5z" />
    <glyph glyph-name="uni0637.medi" unicode="&#x637;" horiz-adv-x="1225" arabic-form="medial" 
d="M-123 96q0 40 28 68t68 28h4h101q5 8 16.5 24.5t23.5 32.5t21.5 28.5t10.5 13.5q12 19 20.5 47.5t14 59.5t7.5 60.5t2 51.5v41q-4 230 -15 392t-22 266q-13 120 -30 199l77 78q14 14 29 27.5t27.5 23t22 14.5t13.5 2q5 -2 6 -7.5t2 -12.5v-16l12 -218q3 -103 6.5 -238.5
t1.5 -292.5q0 -18 -0.5 -55.5t-5 -83t-15.5 -94.5t-31 -90q60 72 131 145.5t145 132.5t149 96.5t143 37.5q97 0 157 -28.5t92.5 -73t43 -99t8.5 -106t-11.5 -94t-17.5 -63.5q-21 -51 -45.5 -101t-61.5 -97l188 -3h64v-192q-81 0 -142.5 1t-106.5 3q-38 1 -77 3t-74 5
t-64.5 7.5t-48.5 10.5q-54 -15 -115 -22.5t-136 -7.5h-516h-4q-40 0 -68 28t-28 68zM172 192q54 -1 138.5 -0.5t191.5 -0.5q108 0 188 13.5t137.5 34.5t95.5 47.5t61.5 51.5t34.5 47t16 34q5 13 7 36t-4 49.5t-20.5 53t-41.5 47.5t-69 33t-102 9q-77 -4 -147.5 -31
t-133.5 -68t-117.5 -91t-99.5 -99.5t-79 -93t-56 -72.5z" />
    <glyph glyph-name="uni0637.fina" unicode="&#x637;" horiz-adv-x="1492" arabic-form="final" 
d="M1524 192v-192h-151t-109 1q-36 0 -75 1t-77 2.5t-72 4t-61 6.5q-54 -14 -118 -22.5t-136 -8.5q-138 0 -239 6t-176 18q-26 4 -44.5 7.5t-29.5 6.5l-21 6q-47 13 -79.5 31t-55 40.5t-37.5 49.5t-27 57q-7 17 -1.5 26t18.5 6q65 -15 149 -24.5t177 -16.5q8 9 19.5 24.5
t22.5 30.5t19 26t9 13q13 19 21 47.5t13 59.5t7 60.5t2 50.5v42q-5 230 -16 392t-24 266q-5 60 -12 110t-14 89q19 23 39 42t38 36q14 14 28.5 27t27.5 23t23 15t14 2q3 -3 3.5 -8t2.5 -13q1 -5 1 -15l12 -219q2 -102 6 -237t1 -292q0 -20 -0.5 -57.5t-5 -83t-15 -94
t-31.5 -90.5q61 72 132 145t145 132.5t148 97t143 37.5q97 0 157 -28.5t92.5 -73t42.5 -98.5t7.5 -105.5t-13 -94.5t-18.5 -64q-17 -48 -44.5 -98t-69.5 -101q19 -1 44.5 -1h63.5h144zM738 182q114 -1 200 12.5t148 36t103.5 50.5t67.5 54.5t38.5 49t17.5 33.5
q5 13 6.5 36.5t-4 49.5t-20.5 53t-42.5 48t-69 33t-100.5 9q-77 -4 -147 -31t-133 -68t-118 -90.5t-99.5 -99t-79 -93t-56.5 -72.5q16 -2 34.5 -3.5t39.5 -2.5q36 -3 88.5 -4t125.5 -1z" />
    <glyph glyph-name="uni0639" unicode="&#x639;" horiz-adv-x="1214" arabic-form="isolated" 
d="M1177 -456q48 9 23 -28q-26 -37 -71.5 -75.5t-109.5 -70.5t-144 -52.5t-174 -20.5q-162 0 -284.5 37.5t-204.5 105t-123.5 162t-41.5 208.5q0 86 31 164t84 144.5t123 119.5t148 91q-39 19 -75.5 46t-65.5 61.5t-46.5 78t-17.5 96.5q0 37 17 83t46.5 94t69 93.5t84 81
t91 57t91.5 21.5q42 0 84.5 -9t83.5 -32t79.5 -62t72.5 -100q5 -10 5 -19t-6.5 -14t-21.5 -4t-40 11q-8 4 -25.5 11t-45.5 14t-67.5 12t-92.5 5q-55 0 -106.5 -20.5t-91.5 -50.5t-64 -65t-24 -63q0 -16 15 -40.5t42.5 -51t65.5 -51.5t84 -42t98.5 -22.5t108.5 6.5l97 22
q39 8 79 18t64 17q4 3 9 2.5t2 -11.5q-1 -4 -8.5 -30.5t-18.5 -56.5l-25 -80q-79 -17 -173 -37.5t-188.5 -48.5t-183 -66t-157 -90t-109.5 -119.5t-41 -155.5q0 -57 36 -117.5t111.5 -110t193 -81.5t280.5 -32q88 0 154.5 7.5t117 18t88 22t68.5 19.5z" />
    <glyph glyph-name="uni0639.init" unicode="&#x639;" horiz-adv-x="958" arabic-form="initial" 
d="M-105 96q0 40 28 68t68 28h4q35 0 84.5 1t132.5 5q-59 42 -95.5 99t-36.5 138q0 36 17 82t46.5 93.5t69 93t83.5 81.5t90.5 57.5t90.5 21.5q43 0 85.5 -9t83 -32t78.5 -62t72 -99q5 -10 5.5 -19t-6.5 -14t-21.5 -4t-38.5 11q-8 4 -25.5 11t-45.5 14t-68 12t-93 5
q-54 0 -105.5 -20.5t-91 -50.5t-63.5 -64.5t-24 -62.5q0 -17 15 -44.5t43.5 -57.5t69.5 -58t93 -46t114.5 -22t133.5 16q84 23 134.5 43.5t73.5 32.5q9 3 10 -2q2 -1 2 -5l-67 -192q-46 -24 -97 -42.5t-105 -33.5h-2q-72 -20 -149.5 -33t-155 -21t-153 -11.5t-142.5 -3.5
h-42h-4q-40 0 -68 28t-28 68z" />
    <glyph glyph-name="uni0639.medi" unicode="&#x639;" horiz-adv-x="977" arabic-form="medial" 
d="M-104 96q0 40 28 68t68 28h119q55 0 95.5 1.5t73.5 6.5t62.5 13.5t63.5 21.5q-61 51 -112 95q-22 19 -44 37.5t-40.5 34.5t-33 28.5t-20.5 18.5q-34 27 -53 47t-27 37t-7.5 32.5t5.5 33.5q10 35 19 63q7 23 13 43t6 21q17 18 39.5 33.5t50.5 29.5q47 23 121.5 43
t184.5 20q70 0 136 -8t120.5 -25.5t94 -44.5t58.5 -65q17 -36 3.5 -90.5t-48.5 -117.5t-88.5 -131.5t-116.5 -132.5q33 -27 66 -35t71 -10h182v-192h-193q-42 0 -85.5 20t-79.5 46q-22 14 -42.5 30.5t-40.5 35.5q-41 -30 -82 -54t-91 -41.5t-112 -27t-145 -9.5h-119h-4
q-40 0 -68 28t-28 68zM228 611q9 -9 28 -26t44.5 -39.5t55 -48.5t59.5 -51q69 -60 151 -131q21 15 48 38.5t54 51.5t51.5 57.5t41.5 56.5t24 49t-2 35q-23 28 -81 48.5t-135.5 25.5t-166 -9.5t-172.5 -56.5z" />
    <glyph glyph-name="uni0639.fina" unicode="&#x639;" horiz-adv-x="1169" arabic-form="final" 
d="M1065 0q-72 0 -137 25t-122.5 62.5t-107.5 80t-93 77.5q-34 -9 -82 -29.5t-100.5 -50t-104.5 -68t-93.5 -83t-67 -94.5t-25.5 -104q0 -73 46 -135.5t128.5 -108t196.5 -71.5t250 -26q88 0 155 8t117.5 18.5t87.5 21.5t67 17q27 7 32.5 1t-9.5 -27q-24 -37 -69.5 -75.5
t-109.5 -70.5t-144.5 -52.5t-174.5 -20.5q-141 0 -261 30.5t-207 93.5t-136.5 159.5t-49.5 229.5q0 86 26 166t78 150.5t129.5 129t179.5 101.5q-19 16 -41 35t-43.5 37.5t-40 34.5t-30.5 25q-34 25 -53 45t-27.5 37.5t-8.5 33.5t6 33q6 22 13 45t13 41l9 30q4 12 18 27
q7 8 24 19t44 25q45 24 121.5 48t196.5 34q69 5 132 1.5t114.5 -17t89 -38t55.5 -61.5q7 -13 7 -47t-8 -80t-25.5 -99.5t-45.5 -105.5q-12 -19 -26.5 -37.5t-38 -36.5t-57.5 -36.5t-85 -38.5q22 -19 49 -39.5t65.5 -38t91.5 -28.5t125 -11h73v-192h-116zM378 649
q11 -11 28 -26t37 -32.5t42.5 -37t45.5 -38.5q26 -22 54 -45.5t58 -49.5q79 25 148.5 55.5t114.5 65t57.5 71.5t-24.5 75q-23 22 -84 31.5t-141.5 5t-169 -23t-166.5 -51.5z" />
    <glyph glyph-name="uni0643.init" unicode="&#x643;" horiz-adv-x="963" arabic-form="initial" 
d="M-114 96q0 40 28 68t68 28h4h314q28 1 52 7.5t47 17.5q19 9 38 23.5t34.5 35t26.5 48t15 64.5q8 66 -21.5 135.5t-79 134.5t-110 123.5t-114.5 103.5t-92.5 74t-43.5 36q-8 8 -3.5 35.5t11.5 59.5l22 79l425 191q79 35 156.5 69t139.5 60t102 41t43 12q2 -2 2 -10.5
t-2 -21.5t-5 -29.5t-7 -33.5l-23 -89l-635 -267q31 -37 70 -85t78.5 -104t76.5 -119t64 -128.5t41 -132.5t7 -132q-9 -97 -39 -170t-73.5 -122t-98 -73.5t-112.5 -24.5h-310q-40 0 -68 28t-28 68z" />
    <glyph glyph-name="uni0643.medi" unicode="&#x643;" horiz-adv-x="1056" arabic-form="medial" 
d="M-113 96q0 40 28 68t68 28h235q46 1 87 7.5t77 17.5q31 9 61.5 23t55.5 34.5t41.5 48.5t20.5 64q6 50 -10 101.5t-46.5 102t-71.5 99t-84.5 91.5t-87 80t-78.5 65t-58.5 45.5t-27.5 22.5q-3 4 -3.5 13.5t1 22.5t4.5 28t7 31l24 79l423 191q80 36 157 69.5t138.5 59
t101 40t44.5 13.5q3 -1 2.5 -9.5t-2.5 -21.5t-5.5 -29.5t-7.5 -33.5q-5 -21 -10 -43.5t-12 -46.5l-633 -267q5 -6 24.5 -30t49 -62t66.5 -90t76 -114q24 -42 54.5 -102.5t67 -127.5t78.5 -133.5t91 -119.5t105 -86t118 -33h4v-192h-4q-59 0 -115.5 28.5t-107.5 74t-97 103.5
t-84 117q-30 -161 -145.5 -242t-296.5 -81h-227q-40 0 -68 28t-28 68z" />
    <glyph glyph-name="uni0643" unicode="&#x643;" horiz-adv-x="1815" arabic-form="isolated" 
d="M1720 1403q2 -189 3 -336t1 -267t-2.5 -220.5t-8.5 -194.5v-1q-1 -11 -3 -25.5t-4 -28.5q-3 -16 -6 -33q-21 -84 -71 -140t-119.5 -91.5t-154 -53.5t-175 -25.5t-183 -8t-177.5 -0.5q-58 0 -129.5 2t-145.5 12.5t-146.5 31t-133 57.5t-104.5 93.5t-61 137.5t-3 189
t70 250q6 16 17 20.5t20.5 0.5t14.5 -14.5t0 -25.5q-38 -102 -42.5 -180.5t16.5 -137t62.5 -99.5t96 -68.5t117 -42.5t125.5 -22.5t121.5 -9.5t104.5 -2q73 0 151.5 -2.5t155.5 -2t148 6.5t130 22q34 9 67.5 27.5t60.5 47t43 67t15 88.5q-2 84 -4.5 177t-6 185t-6.5 177.5
t-6.5 154.5t-7 116t-6.5 62q10 11 17.5 19.5t14.5 16t15.5 15t19.5 18.5l30 28t28 24.5t22 15.5t12 1q3 -5 5 -14.5t2 -16.5zM690 542l85 50q13 9 25 16q-20 11 -38.5 27.5t-33 37t-22.5 45.5t-6 52q1 19 11 42.5t27 48t38.5 47t46 40t49.5 28t48 9.5q22 -1 44 -7t43 -19
t40 -34.5t35 -53.5q5 -11 -1.5 -18t-31.5 5q-9 5 -36.5 15.5t-83.5 12.5q-29 1 -56.5 -8t-49 -24t-35 -32.5t-14.5 -32.5q-1 -13 15 -35.5t45 -42.5t68 -32.5t84 -4.5l51 8q20 3 41.5 7.5t34.5 7.5q2 1 5 0.5t1 -5.5l-17 -48q-4 -10 -7.5 -20.5t-7.5 -23.5q-50 -9 -106 -22
t-111.5 -31t-108.5 -41.5t-98 -53.5z" />
    <glyph glyph-name="uni0643.fina" unicode="&#x643;" horiz-adv-x="1915" arabic-form="final" 
d="M1641 181q-39 -49 -93.5 -83t-120 -57t-139.5 -35.5t-152.5 -19t-158 -8t-156.5 -1.5q-59 0 -130.5 2t-146 12.5t-147 31t-132.5 57.5t-104 93.5t-61 137.5t-2.5 189t70.5 250q7 16 17.5 21t19.5 1t14 -14.5t0 -25.5q-38 -102 -42 -180.5t17 -137.5t62.5 -100t96 -68
t117 -42.5t125.5 -23t121.5 -9.5t104.5 -2q61 0 127 -0.5t132 0.5t130 4.5t122 11.5q16 3 42.5 8.5t58 15t63.5 25t58.5 38.5t44 54t19.5 72q1 43 1 99.5t-1.5 122.5t-4.5 138.5t-7 146.5q-1 16 -3 41t-4 54.5t-4 61.5t-3 62l-10 149q17 23 34.5 41.5t31.5 35.5
q12 13 25.5 28t25 27t21 19t14.5 4q2 -2 3.5 -7t2.5 -14q2 -4 2 -16l2 -462q0 -89 0.5 -180.5t2 -171t2.5 -141t3 -91.5q1 -29 8.5 -51t18 -38t24 -27t27.5 -18q32 -17 74 -19h34v-192h-44q-35 0 -77.5 14t-80 38t-64.5 57t-31 72zM724 542l85 50q13 9 25 16
q-20 11 -38.5 27.5t-33 37t-22.5 45.5t-6 52q1 19 11 42.5t27 48t38.5 47t46 40t49.5 28t48 9.5q22 -1 44 -7t43 -19t40 -34.5t35 -53.5q5 -11 -1.5 -18t-31.5 5q-9 5 -36.5 15.5t-83.5 12.5q-29 1 -56.5 -8t-49 -24t-35 -32.5t-14.5 -32.5q-1 -13 15 -35.5t45 -42.5
t68 -32.5t84 -4.5l51 8q20 3 41.5 7.5t34.5 7.5q2 1 5 0.5t1 -5.5l-17 -48q-4 -10 -7.5 -20.5t-7.5 -23.5q-50 -9 -106 -22t-111.5 -31t-108.5 -41.5t-98 -53.5z" />
    <glyph glyph-name="uni0644" unicode="&#x644;" horiz-adv-x="1328" arabic-form="isolated" 
d="M1206 1411q-1 -122 -2 -243.5t-2.5 -237.5t-2.5 -223.5t-2 -201.5q-3 -220 -5 -418q10 -327 -147 -492.5t-473 -165.5q-82 0 -159.5 20.5t-141.5 62.5t-110 106t-64 152t-4 200t70 250q8 21 18.5 48t22.5 54.5t24.5 52.5t25.5 41t25 21t24 -7q10 -10 8 -23t-11.5 -36
t-24.5 -60t-32 -94q-18 -64 -30.5 -129t-11 -126.5t19.5 -116t60.5 -97t113.5 -70.5t177 -36q138 -10 239.5 19t167 89t95 146t24.5 191q-1 21 -5 84t-9 152t-11.5 196t-12.5 215q-15 254 -33 565l74 71q15 13 29.5 26t27.5 23t22.5 16t15.5 6q2 0 4 -1q2 -4 4 -13t2 -16z
" />
    <glyph glyph-name="uni0644.init" unicode="&#x644;" horiz-adv-x="540" arabic-form="initial" 
d="M-108 96q0 40 28 68t68 28h4h178q24 0 46 7t42 17q30 16 57 52t24 100q-2 81 -5 178t-6 196.5t-7 194.5t-7.5 172t-7 130t-6.5 67q10 11 17.5 19.5t14.5 16t15.5 15t19.5 18.5l30 28t28 24.5t22 15.5t12 1q3 -5 5 -14.5t2 -16.5q1 -140 2 -256.5t1 -216t-1 -184
t-3 -160.5t-5.5 -146.5t-8.5 -140.5q-6 -79 -38.5 -137t-79.5 -96.5t-103 -57t-108 -18.5h-130h-4q-40 0 -68 28t-28 68z" />
    <glyph glyph-name="uni0644.medi" unicode="&#x644;" horiz-adv-x="590" arabic-form="medial" 
d="M-108 96q0 40 28 68t68 28h1h121q24 1 45 6.5t39 13.5q16 8 31 20.5t27 30.5t20 42.5t10 57.5q1 43 1 105t-1 134.5t-3.5 150.5t-6.5 152q-1 16 -3 41t-4 54.5t-4 61.5t-3 62l-10 149q17 23 34.5 41.5t31.5 35.5q12 13 25.5 28t25 27t21 19t14.5 4q2 -2 3.5 -7t2.5 -14
q2 -4 2 -16l2 -462q0 -89 0.5 -180.5t2 -171t2.5 -141t3 -91.5q1 -29 8.5 -51t18 -38t24 -27t27.5 -18q32 -17 74 -19h34v-192h-44q-71 0 -123.5 32t-88.5 87q-43 -59 -103.5 -89t-124.5 -30h-131h-1q-40 0 -68 28t-28 68z" />
    <glyph glyph-name="uni0644.fina" unicode="&#x644;" horiz-adv-x="1364" arabic-form="final" 
d="M1376 192v-192h-13q-22 0 -47 8.5t-48.5 22.5t-42 32t-27.5 38q1 -155 -39 -279t-119.5 -211t-196.5 -134t-270 -47q-82 0 -159.5 20.5t-141.5 62.5t-109.5 106t-63.5 152t-3.5 200t70.5 250q8 21 18.5 48t22 54.5t24 52.5t25 41t25 21t24.5 -7q10 -10 8 -23t-11.5 -36
t-25 -60t-32.5 -94q-18 -64 -30 -129t-11 -126.5t19 -116t60.5 -97t113 -70.5t177.5 -36q138 -10 239.5 19t167.5 89t96 146t24 191l-72 1212l75 71l30 26t27.5 23t22.5 16t15 6h1q1 0 1 -0.5t1 -0.5q4 -4 5 -13t3 -16q0 -119 -0.5 -254.5t-2 -271.5t-3 -265t-3.5 -236
q0 -36 7 -63.5t18.5 -48t26.5 -34.5t31 -23q19 -11 39 -17t44 -7h10z" />
    <glyph glyph-name="uni0645" unicode="&#x645;" horiz-adv-x="1162" arabic-form="isolated" 
d="M766 755q51 0 103.5 -39.5t94.5 -103.5t68.5 -144.5t26.5 -162.5q0 -73 -18.5 -134.5t-49 -103t-70.5 -59.5t-83 -3q-100 34 -211 71.5t-214 72.5q-29 10 -55.5 16t-46.5 3.5t-31.5 -16t-11.5 -42.5q0 -13 1 -66t1 -126v-307q0 -36 -0.5 -67t-1.5 -55t-2.5 -39.5
t-2.5 -19.5q-7 -17 -22.5 -39t-34.5 -43q-11 -11 -22 -23.5t-24 -25.5l-18 389q-4 75 -7 147t-5.5 131.5t-3.5 99.5t-1 51q0 56 11.5 97t30 69.5t42.5 45t49 24.5q60 20 132 7q43 66 88.5 135.5t93.5 127.5t96.5 95t97.5 37zM907 182q26 -9 43 15.5t22 67.5t-3.5 95
t-33.5 98t-67.5 77t-106.5 31q-18 0 -38 -11t-40 -28.5t-40.5 -40.5t-38.5 -47q-22 -29 -43.5 -60t-43.5 -66q78 -27 150 -51q31 -11 64 -22.5t64.5 -22t60 -19.5t51.5 -16z" />
    <glyph glyph-name="uni0645.init" unicode="&#x645;" horiz-adv-x="970" arabic-form="initial" 
d="M-104 96q0 40 28 68t68 28h1h25q55 0 101.5 24t87.5 64t77 90.5t70 103t66.5 103t65.5 90.5t68.5 64t74.5 24q51 0 103 -35t94 -94t68.5 -135.5t26.5 -158.5q0 -56 -16 -116t-45.5 -109.5t-70 -81.5t-88.5 -32q-27 0 -60 8t-68.5 20.5t-71.5 29t-69 33.5q-39 20 -78 43
t-79 49q-51 -66 -92.5 -101.5t-75 -52t-60 -19.5t-46.5 -3h-8h-1q-40 0 -68 28t-28 68zM788 204q28 20 41.5 57t12.5 80.5t-16 88.5t-42.5 81.5t-67.5 59.5t-91 23q-18 0 -38 -11t-41 -29t-41.5 -41t-38.5 -47q-22 -28 -43 -59.5t-44 -66.5q88 -59 166 -96
q34 -16 69.5 -29.5t67.5 -20.5t59.5 -5.5t46.5 15.5z" />
    <glyph glyph-name="uni0645.medi" unicode="&#x645;" horiz-adv-x="1060" arabic-form="medial" 
d="M-111 96q0 40 28 68t68 28h4h27q73 0 132 40t109.5 100t94.5 130t87.5 130t89 100t97.5 40q48 0 88.5 -27t73.5 -71.5t58.5 -101.5t43.5 -117q5 -17 11 -39.5t14.5 -47.5t20.5 -49.5t29 -43.5t40 -31t53 -12h12v-192h-12q-57 0 -95.5 26.5t-63.5 60.5q-29 39 -46 87
q-8 -35 -28.5 -67.5t-47 -57.5t-56 -40t-55.5 -15q-28 0 -60 8t-65 20.5t-65.5 29t-62.5 33.5q-35 20 -70 43t-70 49q-51 -66 -92.5 -101.5t-75 -52.5t-60 -20t-46.5 -3h-10h-4q-40 0 -68 28t-28 68zM753 204q28 20 38 55.5t6.5 77t-19.5 84t-40 77t-53.5 56.5t-61.5 22
q-18 0 -38.5 -10t-41 -26.5t-41 -38t-39.5 -43.5q-20 -26 -42 -55.5t-44 -61.5q39 -29 76.5 -53.5t73.5 -42.5q30 -16 62 -29.5t62 -20.5t56.5 -6t45.5 15z" />
    <glyph glyph-name="uni0645.fina" unicode="&#x645;" horiz-adv-x="1234" arabic-form="final" 
d="M1242 192v-192h-12q-51 0 -90 17t-67 38.5t-44 42t-20 26.5q-31 -57 -75.5 -83t-94.5 -7l-427 144q-29 10 -54.5 16t-45.5 3.5t-31.5 -16t-11.5 -42.5q0 -13 1 -66t1 -126v-155q0 -60 -0.5 -117t-1 -102.5t-2 -76t-3.5 -37.5q-7 -17 -22.5 -39t-34.5 -43
q-11 -11 -22 -23.5t-23 -25.5l-19 389q-4 75 -7 147t-5.5 131.5t-4 99.5t-1.5 51q0 56 11.5 97t30 69.5t42.5 45t49 24.5q60 20 132 7q43 66 89 135.5t93.5 127.5t96.5 95t97 37t96 -34t88.5 -89.5t69 -127t36.5 -147.5q9 -64 30 -102t46 -58.5t51.5 -27t46.5 -6.5h12z
M908 211q25 -9 42 15.5t22 67.5t-3 95t-32.5 98t-67.5 77t-107 31q-18 0 -38 -11t-40.5 -28.5t-41 -40.5t-38.5 -47q-22 -29 -43.5 -60t-44.5 -66q39 -14 77 -26.5t74 -24.5q31 -11 64 -22.5t64.5 -22t60.5 -19.5t52 -16z" />
    <glyph glyph-name="uni0647" unicode="&#x647;" horiz-adv-x="830" arabic-form="isolated" 
d="M748 427q9 -109 -16.5 -192t-76 -138.5t-119.5 -84t-145 -28.5q-69 0 -131 26t-104.5 73t-60 113.5t2.5 147.5q15 63 37 121t42 105q23 50 51 100l52 95q10 18 20.5 35.5t20 31t17.5 21.5t14 8q3 0 32 -11.5t70.5 -34.5t90.5 -58.5t92 -84t74 -109.5t37 -136zM402 175
q37 0 84 7.5t88.5 22t70 36t28.5 50.5q0 37 -16 71.5t-42.5 64.5t-60 56t-67.5 48q-40 26 -86.5 49t-98.5 43q-80 -102 -103.5 -184.5t-4 -141t75 -90.5t132.5 -32z" />
    <glyph glyph-name="uni0647.init" unicode="&#x647;" horiz-adv-x="1127" arabic-form="initial" 
d="M-108 96q0 40 28 68t68 28h4h183h11h21h26h26q-41 29 -61 72t-25.5 91t0 96t15.5 87q11 39 34.5 79.5t46.5 72.5q14 19 28.5 37t30.5 36l-84 28q33 45 60 78q23 31 45.5 53.5t33.5 19.5q4 -1 45 -14.5t103.5 -39.5t138 -63.5t148 -87.5t133.5 -111t95.5 -134t33.5 -157
t-53 -179q-34 -61 -81.5 -94t-100.5 -47t-107.5 -13t-101.5 9t-82.5 19t-50.5 16q-32 -18 -73.5 -27.5t-86.5 -13.5t-90.5 -4.5t-87.5 -0.5h-173h-4q-40 0 -68 28t-28 68zM634 360q8 25 7 58t-9 67.5t-22 68.5t-32 61t-38 44.5t-40 20.5q-46 7 -87 -3t-73.5 -33.5t-54 -58.5
t-29.5 -78q-10 -59 13 -102.5t64.5 -74.5t94 -51.5t100.5 -33.5q20 5 39 19q17 11 35 34t32 62zM975 226q19 43 13.5 84.5t-27 79.5t-54 71t-66.5 60t-65.5 46t-51.5 29q16 -52 9.5 -115.5t-23.5 -127.5q-7 -24 -18.5 -50.5t-22.5 -49.5l-27 -53q76 -20 141 -27
q27 -4 56.5 -5t56.5 4.5t48 18t31 35.5z" />
    <glyph glyph-name="uni0647.medi" unicode="&#x647;" horiz-adv-x="787" arabic-form="medial" 
d="M-102 96q0 40 28 68t68 28h13q20 0 52.5 1.5t78.5 3.5q8 123 37 235t69.5 197.5t86.5 136t87 50.5q24 0 49 -17.5t47.5 -47.5t41 -69.5t30.5 -85t15.5 -93.5t-4.5 -94q-14 -91 -48.5 -156.5t-82.5 -111t-107 -73.5t-122 -43q9 -57 25.5 -110.5t41 -101t58 -87t76.5 -68.5
q-7 22 -11 45t-5 49q-3 43 7 99t45 119q46 85 99.5 130t100.5 65q54 24 109 27h9v-192h-9q-67 -2 -122 -24q-24 -9 -48 -23t-45.5 -34t-38 -47t-24.5 -63q-8 -33 -6 -61.5t10.5 -51.5t22 -41.5t29.5 -32.5q34 -34 87 -55l-93 -174q-102 51 -175.5 119.5t-123 148.5
t-77 168.5t-37.5 179.5l-43 -5q-20 -2 -45 -3t-56 -1h-4q-40 0 -68 28t-28 68zM379 643q-29 0 -56 -36t-48.5 -97t-35.5 -140t-15 -165q47 6 93 16.5t85 27t67.5 40t40.5 55.5q9 23 10 54.5t-5 65t-18 65.5t-29.5 57.5t-40 41t-48.5 15.5z" />
    <glyph glyph-name="uni0647.fina" unicode="&#x647;" horiz-adv-x="931" arabic-form="final" 
d="M942 192v-192h-39q-65 0 -116 24t-89.5 63t-64 88.5t-38.5 100.5l-132 -127q-26 -8 -56 -12q-26 -3 -64 -1.5t-84 14.5q-56 14 -93.5 49.5t-54 85.5t-10.5 110.5t37 124.5q17 33 61.5 75.5t100 86.5t114 85.5t102.5 71.5q-3 19 -4 33.5t-2 25.5l-3 21q19 20 35.5 38.5
t33.5 35.5q13 13 27 25.5t25.5 21t20.5 12.5t13 2l11 -150q7 -70 14 -166t18 -211q9 -100 25 -164.5t42 -102.5t63.5 -53t90.5 -15h16zM172 442q9 -32 34.5 -53.5t61 -35.5t78 -20.5t85.5 -8.5t83 0.5t70 6.5q-16 109 -28.5 200.5t-21.5 166.5q-64 -27 -131 -62t-120.5 -70
t-85 -68t-25.5 -56z" />
    <glyph glyph-name="uni0648" unicode="&#x648;" horiz-adv-x="849" arabic-form="isolated" 
d="M426 788q55 0 99 -25.5t77.5 -68t59 -98t43 -116t28.5 -121.5t17.5 -114.5t9 -95t2.5 -62.5q0 -115 -31 -211.5t-79.5 -174.5t-107.5 -137t-115 -98.5t-101.5 -59.5t-67.5 -20h-3q-22 1 -55 17t-65.5 36t-58.5 40.5t-34 32.5q-7 11 -3 21t20 13h7q1 0 3 -0.5t4 -0.5
q15 0 40.5 3t57.5 14q43 14 92 36t98 51.5t96 67.5t86 86.5t67.5 106.5t41.5 128l-20 -8q-14 -5 -36 -11t-50 -12t-60 -10t-65 -4q-74 0 -132 18t-97 55.5t-59 95.5t-18 138q1 57 15 115.5t37.5 112.5t54 101.5t64.5 82.5t69.5 55.5t68.5 20.5zM632 233q-11 50 -25 93.5
t-31 84.5q-14 33 -33.5 65t-44 57.5t-53.5 41t-63 15.5q-33 0 -65 -19.5t-57.5 -52t-42 -73.5t-17.5 -84q-2 -49 10.5 -81.5t39.5 -52t67.5 -28t94.5 -8.5q87 0 137.5 12.5t69.5 22.5z" />
    <glyph glyph-name="uni0648.fina" unicode="&#x648;" horiz-adv-x="816" arabic-form="final" 
d="M633 192q-8 56 -20.5 107.5t-29.5 96.5q-14 37 -33 73.5t-43.5 64.5t-55.5 45.5t-68 17.5q-33 0 -65.5 -19.5t-58 -52t-41.5 -73.5t-17 -84q-3 -64 16.5 -99.5t67 -52.5t126 -20.5t194.5 -3.5h28zM427 795q61 0 107.5 -30.5t81 -80.5t59 -114t41 -131t26 -131.5
t14.5 -115.5h71v-192h-67q-7 -134 -41.5 -231t-84 -164.5t-107.5 -109t-111.5 -64t-96.5 -30.5t-61 -8q-24 0 -57 17t-64.5 39.5t-57 45.5t-33.5 35q-7 8 -2.5 17t23.5 10q3 0 25 1t72 4q103 6 191 46t154 101t105 137t43 154h-321q-44 0 -84.5 18t-71 55.5t-48 95.5
t-15.5 138q1 57 15 115.5t37.5 112.5t54 101.5t64.5 82.5t70 55.5t69 20.5z" />
    <glyph glyph-name="uni0649" unicode="&#x649;" horiz-adv-x="1598" arabic-form="isolated" 
d="M1453 10q31 -67 30 -137t-31 -136t-87.5 -124.5t-139 -104.5t-185.5 -76t-227 -37q-111 -7 -215.5 4.5t-192 49t-151.5 105t-93 173.5t-17.5 254.5t75.5 347.5q7 22 17 54t23 65.5t27.5 65.5t29 54.5t28 31.5t25.5 -2q9 -10 4 -31.5t-16.5 -55t-27.5 -79.5t-30 -105
q-13 -53 -24 -114t-14.5 -124.5t3 -126.5t28.5 -120t61.5 -104.5t102 -79.5t150.5 -46t207 -4q157 13 265.5 49t176.5 79t98.5 85t30.5 68q0 20 -22 32t-59 21t-84 16t-96 16.5t-96 23.5t-84.5 36.5t-60.5 55.5t-24 81q-1 108 30 209.5t84.5 186.5t125.5 148t152.5 95
t165 27.5t163.5 -55.5q5 -3 5 -18.5t-3.5 -37t-10 -45t-14.5 -42t-18 -28t-19 -2.5q-48 31 -108 30.5t-122 -23t-121.5 -62t-106.5 -87t-76.5 -99t-32.5 -96.5q-2 -32 28 -51.5t78.5 -34t108.5 -27.5t116.5 -31.5t102.5 -46t67 -71.5z" />
    <glyph glyph-name="uni0649.fina" unicode="&#x649;" horiz-adv-x="1526" arabic-form="final" 
d="M1532 0q-63 0 -108.5 1.5t-75.5 3.5q13 -10 25 -21.5t23 -23.5q19 -21 33.5 -50.5t14.5 -62.5q0 -80 -46 -157t-129.5 -139.5t-199.5 -104.5t-256 -51q-111 -6 -216 5.5t-192 49t-151 105.5t-93 173.5t-18 254t74 347.5q7 22 17.5 54t23.5 65.5t27 66t28.5 55t28 31.5
t25.5 -3q9 -10 4.5 -31.5t-16.5 -55.5t-28 -80t-30 -104q-13 -52 -23.5 -113t-14 -124.5t2.5 -127t27.5 -120.5t61.5 -104.5t102.5 -80t151 -46.5t208.5 -3q115 9 213 30.5t169.5 49.5t112 59.5t40.5 60.5q0 17 -20 38t-54.5 44t-80.5 47.5t-98.5 48t-109 45t-110.5 38.5
q-3 0 2 13t12.5 28.5t14.5 29t7 14.5q3 4 10.5 16t16.5 25t17 23.5t11 10.5q105 -14 180 -21.5t137.5 -11.5t120 -4.5t128.5 -0.5v-192z" />
    <glyph glyph-name="uni066E.init" unicode="&#x66e;" horiz-adv-x="487" 
d="M-103 96q0 40 28 68t68 28h1h87q31 1 57.5 3.5t50.5 7.5q21 4 41 10t35.5 15t26.5 21.5t14 29.5q3 24 -1.5 53t-14 61.5t-22.5 65.5t-26 65q-17 36 -35 73.5t-41 78.5l53 96q10 18 20 35t19.5 30.5t17 22t12.5 8.5t18.5 -25.5t30 -68.5t33 -99t28.5 -117t16.5 -123
t-3.5 -117q-9 -59 -39.5 -116t-72.5 -102t-90.5 -72.5t-94.5 -27.5h-117h-4q-40 0 -68 28t-28 68z" />
    <glyph glyph-name="uni066E.medi" unicode="&#x66e;" horiz-adv-x="628" 
d="M-107 96q0 40 28 68t68 28h44q-1 0 17 1t45 7t59.5 17.5t60 32t47 52.5t20.5 77q2 33 -4 66.5t-13 60.5q-9 32 -19 60l49 67q9 13 18.5 25t17.5 20.5t14 12t9 0.5q0 -1 5.5 -24t12 -64.5t12 -100t6.5 -129.5q0 -2 1.5 -16.5t8 -34.5t20 -43t38.5 -42t63 -32t93 -13h19
v-192h-7q-43 0 -85.5 14t-81.5 37.5t-73 54.5t-59 66v-3q-21 -32 -52 -62.5t-70 -54t-85 -38t-98 -14.5h-29h-4q-40 0 -68 28t-28 68z" />
    <glyph glyph-name="uni066E.fina" unicode="&#x66e;" horiz-adv-x="1858" 
d="M1698 489q-7 -23 -12 -54t-5 -64t7 -65t26.5 -57.5t53 -41t84.5 -15.5h23v-192h-23q-58 0 -102 17.5t-75.5 45.5t-51.5 61.5t-29 66.5q-12 46 -15 86q-45 -54 -110.5 -105.5t-156 -91.5t-209 -64.5t-271.5 -24.5q-58 0 -129 2t-145.5 12.5t-146.5 31t-133 57.5
t-104.5 93.5t-61 137.5t-3 189t70.5 250q7 16 17.5 21t20 1t14.5 -14.5t0 -25.5q-38 -102 -42 -181t16.5 -137.5t62 -99.5t95.5 -68t116.5 -42.5t125.5 -23t121.5 -9.5t104.5 -2q173 0 298 23t212.5 60t143 83t89.5 91t52 84.5t31 64.5q12 22 25 31t23.5 7.5t16 -12
t1.5 -26.5q-3 -11 -8 -36.5t-18 -63.5z" />
    <glyph glyph-name="uni066F.init" unicode="&#x66f;" horiz-adv-x="841" 
d="M-99 96q0 40 28 68t68 28h4h289q82 0 147.5 13.5t112 39t72.5 62t30 81.5l-15 -8q-20 -9 -78.5 -22.5t-151.5 -13.5q-90 0 -147 26.5t-89.5 65.5t-45 83.5t-12.5 80.5q0 85 23.5 160t64 130.5t95.5 88t117 32.5q54 0 99 -22.5t81 -60.5t63.5 -88.5t46.5 -106.5
t29.5 -114.5t13.5 -112.5q6 -137 -32 -233t-107.5 -156.5t-164 -88.5t-199.5 -28h-242h-4q-40 0 -68 28t-28 68zM625 563l12 7q-11 36 -25 68.5t-31 61.5q-14 24 -33.5 47.5t-43.5 42t-53.5 30t-63.5 11.5q-49 0 -85 -16.5t-59 -42t-34.5 -55.5t-11.5 -57q0 -41 15 -67
t43 -40.5t68 -20t89 -5.5q95 0 145.5 13t67.5 23z" />
    <glyph glyph-name="uni066F.medi" unicode="&#x66f;" horiz-adv-x="863" 
d="M-99 96q0 40 28 68t68 28h4h140q26 0 57 -1t60 6q-14 15 -33 33t-37 43.5t-30.5 60.5t-12.5 84q0 39 9 88t26 99t42.5 97.5t59 84t74 59t88.5 22.5q49 0 88 -20t69 -53.5t51.5 -77t35 -90.5t19.5 -94.5t6 -89.5q0 -51 -9.5 -87t-24.5 -64t-33.5 -49.5t-35.5 -42.5
q29 -7 55 -7.5t52 -0.5h166v-192h-175q-48 0 -96.5 9t-88.5 21q-23 7 -45.5 14.5t-44.5 16.5q-32 -17 -75 -31q-35 -12 -80 -21t-99 -9h-178h-4q-40 0 -68 28t-28 68zM524 317q16 12 31 26.5t27 31.5t19 36.5t7 40.5q0 35 -17 73t-44.5 69.5t-63.5 52t-74 20.5
q-39 0 -73.5 -15.5t-60 -43t-40.5 -66t-15 -83.5q0 -23 9.5 -43.5t25 -38.5t35.5 -33t41 -27q24 -15 51.5 -27.5t58.5 -23.5q23 11 44 23.5t39 27.5z" />
    <glyph glyph-name="uni066F.fina" unicode="&#x66f;" horiz-adv-x="1361" 
d="M1311 192h63v-192h-61q0 -138 -45.5 -250.5t-133.5 -192t-217 -122.5t-295 -41q-83 0 -165 23.5t-151.5 71t-121 119.5t-73.5 168.5t-9.5 218.5t72.5 269q13 31 30 74.5t35.5 79.5t37.5 54.5t36 0.5q9 -9 7.5 -22.5t-11 -36.5t-24.5 -60t-32 -94q-20 -64 -33 -134.5
t-11.5 -140t21.5 -134t67.5 -116t126.5 -85.5t198 -43q117 -9 224.5 11.5t190 70t131.5 127.5t49 184h-325q-45 0 -85.5 17.5t-71 55t-48 95.5t-15.5 138q1 57 15 115.5t37.5 112.5t54 101.5t65 82.5t70 55.5t69.5 20.5q61 0 107.5 -30.5t81 -80.5t59 -114t40.5 -131
t25.5 -131t14.5 -115zM754 368q-3 -66 20.5 -102t77.5 -52.5t141 -19t212 -2.5q-12 56 -26.5 106.5t-33.5 95.5q-16 37 -36.5 73.5t-46.5 65t-57.5 46t-68.5 17.5q-34 0 -66 -19.5t-57.5 -51.5t-41.5 -73t-17 -84z" />
    <glyph glyph-name="uni06C1.init" unicode="&#x6c1;" horiz-adv-x="664" arabic-form="initial" 
d="M418 -492q-56 6 -88.5 44t-32.5 88q0 85 40 175t118 193l73 -45q-86 -119 -86 -215q0 -37 26 -60.5t85 -41.5q-19 -40 -44.5 -69.5t-52 -49t-38.5 -19.5zM-101 96q0 40 28 68t68 28h81q26 0 61 0.5t73 3t76 8t71 15t58 24t37 36.5q3 24 -1.5 53t-14 61.5t-22.5 65.5
t-26 65q-17 36 -35 73.5t-41 78.5l53 96q10 18 20 35t19.5 30.5t17 22t12.5 8.5t18.5 -25.5t30 -68.5t33 -99t28.5 -117t16.5 -123t-3.5 -117q-9 -59 -41.5 -116t-89 -102t-136 -72.5t-181.5 -27.5h-110h-4q-40 0 -68 28t-28 68z" />
    <glyph glyph-name="uni06C1.medi" unicode="&#x6c1;" horiz-adv-x="958" arabic-form="medial" 
d="M-95 96q0 19 7.5 36.5t20.5 30.5t30 21t37 8h1h4q58 0 82 6q25 6 44 19.5t29 37.5q32 77 93 77q43 0 77 -42q-10 -22 -17.5 -66.5t-7.5 -74.5q0 -123 50 -238.5t147 -219.5q18 123 43.5 196t65 122.5t94.5 94.5t119 66.5t143 21.5q26 0 26 -25v-142q0 -26 -26 -26
q-121 0 -181 -8t-100 -25q-35 -79 -44 -175q-9 -95 -9 -203v-5q0 -20 0.5 -40.5t-2.5 -39.5t-12 -35.5t-28 -26.5t-35 -11.5t-31 3.5t-30 15t-32 24q-152 115 -236.5 263.5t-91.5 299.5q-30 -16 -72 -26t-63 -10q-5 0 -9 1q-36 5 -61 31.5t-25 64.5zM825 -528q-56 6 -88 44
t-32 87q0 88 37 169.5t110 176.5l74 -45q-76 -103 -76 -192q0 -37 26 -60.5t85 -42.5q-19 -40 -44.5 -69t-53 -48.5t-38.5 -19.5z" />
    <glyph glyph-name="uni06BE" unicode="&#x6be;" horiz-adv-x="1293" arabic-form="isolated" 
d="M534 942q4 -1 45 -14.5t103.5 -39.5t138 -63.5t148 -87.5t133.5 -111t95.5 -134t33.5 -157t-53 -179q-34 -61 -81.5 -94t-100.5 -47t-107.5 -13t-101.5 9t-82.5 19t-50.5 16q-22 -12 -61.5 -18.5t-90.5 -6.5t-110.5 6t-121 19t-122 32.5t-113.5 46.5l-44 183
q67 -44 136 -67.5t128 -34.5t101 -12.5t54 -1.5q-41 29 -61 72t-25.5 91t0 96t15.5 87q11 39 34.5 79.5t46.5 72.5q14 19 28.5 37t30.5 36l-84 28q33 45 60 78q23 31 45.5 53.5t33.5 19.5zM785 360q8 25 7 58t-9 67.5t-22 68.5t-32 61t-38 44.5t-40 20.5q-46 7 -87 -3
t-73.5 -33.5t-54 -58.5t-29.5 -78q-10 -59 13 -102.5t64.5 -74.5t94 -51.5t100.5 -33.5q20 5 39 19q17 11 35 34t32 62zM1126 226q19 43 13.5 84.5t-27 79.5t-54 71t-66.5 60t-65.5 46t-51.5 29q16 -52 9.5 -115.5t-23.5 -127.5q-7 -24 -18.5 -50.5t-22.5 -49.5l-27 -53
q76 -20 141 -27q27 -4 56.5 -5t56.5 4.5t48 18t31 35.5z" />
    <glyph glyph-name="uni06D2" unicode="&#x6d2;" horiz-adv-x="1737" arabic-form="isolated" 
d="M1667 276q25 -52 7 -107q-20 -53 -87 -89q-68 -36 -290 -67q-112 -16 -221 -23.5t-216 -7.5q-178 0 -368 18q-192 18 -319 48q-128 32 -128 60q0 42 27 146q29 105 51 127q79 79 198 135q36 17 139 51q51 17 85 29.5t51 19.5q34 15 68 49t55 74q12 20 36 20
q18 0 30.5 -12.5t12.5 -30.5q0 -4 -2 -12q-1 -4 -2 -6q-17 -51 -37.5 -90.5t-46 -68.5t-57 -48.5t-70.5 -31.5q-87 -26 -148.5 -48t-99.5 -40q-75 -35 -180 -105q134 -56 304 -78q87 -11 194 -16.5t238 -5.5q185 0 397 30q107 15 201 35t178 45z" />
    <glyph glyph-name="uni06D2.fina" unicode="&#x6d2;" horiz-adv-x="1276" arabic-form="final" 
d="M218 -238q238 -70 550 -70q324 0 627 56q-3 -53 -23.5 -90t-64 -78t-128.5 -57q-104 -15 -343 -15t-387.5 23.5t-247 59.5t-98.5 62q0 31 23.5 110t37.5 91q178 171 438.5 254.5t680.5 83.5q26 0 26 -27v-141q0 -24 -26 -24q-234 0 -435.5 -24t-350 -76.5t-279.5 -137.5z
" />
    <glyph glyph-name="uni06A9" unicode="&#x6a9;" horiz-adv-x="1960" arabic-form="isolated" 
d="M2050 1539q2 -2 2 -10.5t-2 -21.5t-5 -29.5t-7 -33.5l-23 -89l-633 -267q31 -37 70 -85t78 -104.5t75 -119t63 -128t41 -132.5t9 -132q-7 -106 -50 -177.5t-112 -117t-158 -69t-187 -33.5t-198.5 -11t-192.5 -1q-58 0 -129.5 2t-145.5 12.5t-146.5 31t-133 57.5
t-104.5 93.5t-61 137.5t-3 189t70 250q6 16 17 20.5t20.5 0.5t14.5 -14.5t0 -25.5q-38 -102 -42.5 -180.5t16.5 -137t62.5 -99.5t96 -68.5t117 -42.5t125.5 -22.5t121.5 -9.5t104.5 -2q85 0 176.5 -1.5t179 1.5t166.5 13.5t139 34.5t96.5 64.5t39.5 103.5q2 72 -29.5 143.5
t-81.5 136.5t-109 121.5t-111.5 100t-89.5 70.5t-43 34q-7 8 -3 35.5t12 59.5l23 79l424 191q79 35 156.5 69t139.5 60t101.5 41t43.5 12z" />
    <glyph glyph-name="uni06A9.fina" unicode="&#x6a9;" horiz-adv-x="2112" arabic-form="final" 
d="M2126 192v-192h-14q-60 0 -116.5 28t-108 74t-97 104t-82.5 118q-17 -88 -63.5 -147.5t-114 -98.5t-152.5 -59.5t-178 -29.5t-190 -10.5t-190 -1.5q-59 0 -130.5 2t-146 12.5t-147 31t-132.5 57.5t-104 93.5t-61 137.5t-2.5 189t70.5 250q7 16 17.5 21t19.5 1t14 -14.5
t0 -25.5q-38 -102 -42 -180.5t17 -137.5t62.5 -100t96 -68t117 -42.5t125.5 -23t121.5 -9.5t104.5 -2q85 0 177 -0.5t180.5 3t168 15t140 36t96 64t35.5 100.5q6 50 -10 101.5t-46.5 102t-71.5 98.5t-85 91.5t-87.5 80.5t-78.5 65t-58 45.5t-27 22.5q-8 8 -3.5 36t12.5 59
q5 19 10.5 38.5t12.5 41.5q118 54 224 100.5t200 88.5q80 36 157 69.5t138.5 59t101 40t44.5 13.5q2 -1 2 -9.5t-2.5 -21.5t-5.5 -29t-7 -33q-5 -20 -10 -42.5t-13 -47.5l-633 -268q5 -6 24.5 -29t49 -61.5t66.5 -90t76 -114.5q21 -35 45.5 -83t53 -102.5t61.5 -111.5
t70 -108.5t78 -94.5t87 -69q55 -33 117 -33h17z" />
    <glyph glyph-name="uni06AF" unicode="&#x6af;" horiz-adv-x="1971" arabic-form="isolated" 
d="M2050 1539q2 -2 2 -10.5t-2 -21.5t-5 -29.5t-7 -33.5l-23 -89l-633 -267q31 -37 70 -85t78 -104.5t75 -119t63 -128t41 -132.5t9 -132q-7 -106 -50 -177.5t-112 -117t-158 -69t-187 -33.5t-198.5 -11t-192.5 -1q-58 0 -129.5 2t-145.5 12.5t-146.5 31t-133 57.5
t-104.5 93.5t-61 137.5t-3 189t70 250q6 16 17 20.5t20.5 0.5t14.5 -14.5t0 -25.5q-38 -102 -42.5 -180.5t16.5 -137t62.5 -99.5t96 -68.5t117 -42.5t125.5 -22.5t121.5 -9.5t104.5 -2q85 0 176.5 -1.5t179 1.5t166.5 13.5t139 34.5t96.5 64.5t39.5 103.5q2 72 -29.5 143.5
t-81.5 136.5t-109 121.5t-111.5 100t-89.5 70.5t-43 34q-7 8 -3 35.5t12 59.5l23 79l424 191q79 35 156.5 69t139.5 60t101.5 41t43.5 12zM1967 1753l-752 -330l24 145l743 325z" />
    <glyph glyph-name="uni06AF.init" unicode="&#x6af;" horiz-adv-x="907" arabic-form="initial" 
d="M-114 96q0 40 28 68t68 28h4h314q28 1 52 7.5t47 17.5q19 9 38 23.5t34.5 35t26.5 48t15 64.5q8 66 -21.5 135.5t-79 134.5t-110 123.5t-114.5 103.5t-92.5 74t-43.5 36q-8 8 -3.5 35.5t11.5 59.5l22 79l425 191q79 35 156.5 69t139.5 60t102 41t43 12q2 -2 2 -10.5
t-2 -21.5t-5 -29.5t-7 -33.5l-23 -89l-635 -267q31 -37 70 -85t78.5 -104t76.5 -119t64 -128.5t41 -132.5t7 -132q-9 -97 -39 -170t-73.5 -122t-98 -73.5t-112.5 -24.5h-310q-40 0 -68 28t-28 68zM853 1745l-752 -330l24 145l743 325z" />
    <glyph glyph-name="uni06AF.medi" unicode="&#x6af;" horiz-adv-x="1051" arabic-form="medial" 
d="M-113 96q0 40 28 68t68 28h235q46 1 87 7.5t77 17.5q31 9 61.5 23t55.5 34.5t41.5 48.5t20.5 64q6 50 -10 101.5t-46.5 102t-71.5 99t-84.5 91.5t-87 80t-78.5 65t-58.5 45.5t-27.5 22.5q-3 4 -3.5 13.5t1 22.5t4.5 28t7 31l24 79l423 191q80 36 157 69.5t138.5 59
t101 40t44.5 13.5q3 -1 2.5 -9.5t-2.5 -21.5t-5.5 -29.5t-7.5 -33.5q-5 -21 -10 -43.5t-12 -46.5l-633 -267q5 -6 24.5 -30t49 -62t66.5 -90t76 -114q24 -42 54.5 -102.5t67 -127.5t78.5 -133.5t91 -119.5t105 -86t118 -33h4v-192h-4q-59 0 -115.5 28.5t-107.5 74t-97 103.5
t-84 117q-30 -161 -145.5 -242t-296.5 -81h-227q-40 0 -68 28t-28 68zM903 1723l-752 -330l24 145l743 325z" />
    <glyph glyph-name="uni06AF.fina" unicode="&#x6af;" horiz-adv-x="2118" arabic-form="final" 
d="M2126 192v-192h-14q-60 0 -116.5 28t-108 74t-97 104t-82.5 118q-17 -88 -63.5 -147.5t-114 -98.5t-152.5 -59.5t-178 -29.5t-190 -10.5t-190 -1.5q-59 0 -130.5 2t-146 12.5t-147 31t-132.5 57.5t-104 93.5t-61 137.5t-2.5 189t70.5 250q7 16 17.5 21t19.5 1t14 -14.5
t0 -25.5q-38 -102 -42 -180.5t17 -137.5t62.5 -100t96 -68t117 -42.5t125.5 -23t121.5 -9.5t104.5 -2q85 0 177 -0.5t180.5 3t168 15t140 36t96 64t35.5 100.5q6 50 -10 101.5t-46.5 102t-71.5 98.5t-85 91.5t-87.5 80.5t-78.5 65t-58 45.5t-27 22.5q-8 8 -3.5 36t12.5 59
q5 19 10.5 38.5t12.5 41.5q118 54 224 100.5t200 88.5q80 36 157 69.5t138.5 59t101 40t44.5 13.5q2 -1 2 -9.5t-2.5 -21.5t-5.5 -29t-7 -33q-5 -20 -10 -42.5t-13 -47.5l-633 -268q5 -6 24.5 -29t49 -61.5t66.5 -90t76 -114.5q21 -35 45.5 -83t53 -102.5t61.5 -111.5
t70 -108.5t78 -94.5t87 -69q55 -33 117 -33h17zM1971 1755l-752 -330l24 145l743 325z" />
    <glyph glyph-name="uni06BA" unicode="&#x6ba;" horiz-adv-x="1366" arabic-form="isolated" 
d="M1155 640q8 0 28.5 -42.5t42.5 -116.5t38.5 -176t16.5 -220q0 -187 -49.5 -317.5t-140 -212.5t-218 -119.5t-284.5 -37.5q-82 0 -164 23.5t-152 70.5t-122 118.5t-74.5 168.5t-10 218.5t72.5 269.5q13 31 30 74t35.5 79t37.5 55t36 2q10 -10 8 -23t-11 -36t-24.5 -60
t-32.5 -95q-18 -63 -31 -133.5t-11.5 -140t21 -134t67 -116t126.5 -85.5t199 -43q128 -11 237.5 17.5t190 90t126 154.5t45.5 212q-4 72 -24.5 131.5t-45.5 106t-49 78.5l-36 48q16 30 34.5 63.5t35.5 62t31 47t21 18.5z" />
    <glyph glyph-name="uni06BA.fina" unicode="&#x6ba;" horiz-adv-x="1543" arabic-form="final" 
d="M1554 192v-192h-11q-45 0 -84.5 11t-73 28.5t-60 38t-45.5 40.5q2 -26 1 -55.5t-1 -58.5q0 -138 -45.5 -251t-133.5 -192.5t-216.5 -122t-294.5 -41.5q-83 0 -164.5 23.5t-151.5 71t-122 119.5t-74.5 168.5t-9.5 218.5t72 269q9 21 19.5 48t22 54.5t24 52t25 40.5t25 21
t23.5 -7q10 -9 8 -22t-11 -36t-24 -60t-32 -95q-18 -64 -31 -134.5t-11.5 -140t21 -134t67 -116t126.5 -85.5t198 -43q128 -10 237.5 18.5t190 90t126 154t45.5 212.5q-4 72 -24 131.5t-45 106t-49 78.5t-36 49q15 29 33.5 62.5t36 62t31.5 47t21 18.5q5 0 21 -33t40.5 -83
t58 -108t74.5 -108t89.5 -83t102.5 -33h11z" />
    <glyph glyph-name="uni062F.fina" unicode="&#x62f;" horiz-adv-x="1051" arabic-form="final" 
d="M867 326q19 -50 49.5 -78t62.5 -41q18 -5 37 -10t39 -5v-192q-54 0 -95 17t-71.5 43.5t-52.5 59t-39 63.5q-27 -59 -71 -95.5t-98.5 -57.5t-116.5 -28.5t-125 -7.5q-74 0 -125.5 19t-85.5 47.5t-53 62.5t-26.5 63.5t-6.5 50t7 23.5q8 4 21.5 -7t44 -25.5t83 -27.5
t138.5 -13q50 0 107.5 1t110 10t93 29t57.5 59q-11 25 -28 64.5t-38.5 88t-45.5 102t-48 106.5l-117 258l51 87q20 34 39 61t30 27q70 -192 127 -350q24 -68 48 -134.5t44.5 -122t34.5 -95t19 -52.5z" />
    <glyph glyph-name="uni06C1.fina" unicode="&#x6c1;" horiz-adv-x="913" arabic-form="final" 
d="M913 192q27 0 27 -25v-141q0 -26 -27 -26q-81 0 -142.5 19t-108.5 48t-82.5 62t-65 62t-56 48t-55.5 19q-30 0 -61 -11t-62.5 -38.5t-63.5 -75.5t-63 -121q-5 -13 -15.5 -18.5t-19.5 -5.5q-17 0 -27.5 12.5t-10.5 29.5q0 7 2 13l4 12q37 99 84.5 173.5t100 124t107 74.5
t105.5 25q48 0 106 -32.5t110 -101.5q51 -66 102.5 -96t111.5 -30z" />
    <glyph glyph-name="uni0686" unicode="&#x686;" horiz-adv-x="1383" arabic-form="isolated" 
d="M220 -98q0 -78 40 -154.5t121.5 -136.5t205 -97t289.5 -37q94 0 173 7t142 17.5t109.5 21.5t76.5 19q27 7 33.5 0t-10.5 -27q-23 -26 -66 -63t-112 -72t-166 -59.5t-229 -24.5q-170 0 -308 41t-232 118t-138.5 187.5t-27.5 250.5q6 54 24.5 117t54.5 128t93 129.5
t141.5 121t200 101.5t267.5 73q-57 19 -114 44t-111.5 47t-106.5 37t-99 15q-54 0 -96.5 -20.5t-72.5 -43.5q-35 -29 -64 -64q-12 -18 -27 -26t-26 -5t-15.5 18.5t6.5 43.5q25 70 57.5 126t71.5 96t85 61.5t98 21.5q53 0 115 -19.5t131 -48.5t145.5 -63.5t160.5 -64.5
t174.5 -51t187.5 -24q14 0 20.5 -2.5t9 -6t1 -8.5t-3.5 -11l-94 -164q-203 0 -365 -23t-285.5 -63.5t-211.5 -94t-144.5 -114.5t-82.5 -126t-26 -128zM821 8l-140 -140l-137 139l138 139zM1127 8l-138 -140l-139 139l140 139zM837 -339l-131 131l132 132l131 -131z" />
    <glyph glyph-name="uni0686.fina" unicode="&#x686;" horiz-adv-x="1478" arabic-form="final" 
d="M736 -38l-140 -140l-137 139l138 139zM1042 -38l-138 -140l-139 139l140 139zM752 -385l-131 131l132 132l131 -131zM1491 192v-192h-80q-85 0 -144 17t-98 47t-61 71t-32.5 90t-13 103t-2.5 110q-152 -13 -273.5 -42.5t-214.5 -71t-159.5 -92.5t-109 -106t-62.5 -112.5
t-20 -112.5q0 -78 40 -154.5t121 -136.5t204 -97t290 -37q94 0 172.5 7t141.5 17.5t110 21.5t77 19q27 7 33.5 -1t-10.5 -26q-23 -26 -66 -63.5t-111.5 -72t-166 -59t-229.5 -24.5q-170 0 -307.5 41t-231.5 118t-138.5 187.5t-27.5 250.5q6 54 24.5 117t54.5 128t93 129.5
t142 121t200 101.5t268 73q-58 19 -115 44t-111.5 47t-106.5 37t-99 15q-54 0 -96.5 -20.5t-72.5 -43.5q-17 -15 -33 -30.5t-31 -33.5q-12 -18 -27 -26t-26 -5t-15 18.5t6 43.5q25 70 57.5 126t71.5 96t85 61.5t98 21.5q53 0 115 -19.5t131 -48.5t145.5 -63.5t160.5 -64.5
t174.5 -51t187.5 -24q28 0 30 -8.5t-3 -19.5l-94 -164q-47 0 -91.5 -1.5t-87.5 -3.5q1 -64 10.5 -111.5t36.5 -79t76.5 -47t130.5 -15.5h80z" />
    <glyph glyph-name="uni0623" unicode="&#x623;" horiz-adv-x="502" arabic-form="isolated" 
d="M210 -20q-8 -11 -11.5 -8.5t-3.5 7.5q-4 295 -12.5 536.5t-19.5 419.5q-6 103 -12 195t-13 175q23 23 43 43.5t39 37.5q16 14 31.5 27.5t28.5 24t23 16t14 2.5q5 -5 7 -21q1 -5 1 -15q2 -100 2.5 -201t-0.5 -206q0 -89 -2 -188.5t-5.5 -203t-9.5 -207.5t-13 -201
q-6 -34 -16.5 -68.5t-23.5 -65.5t-25.5 -57t-21.5 -42zM62 1511l85 50q13 9 25 16q-20 11 -38.5 27.5t-33 37t-22.5 45.5t-6 52q1 19 11 42.5t27 48t38.5 47t46 40t49.5 28t48 9.5q22 -1 44 -7t43 -19t40 -34.5t35 -53.5q5 -11 -1.5 -18t-31.5 5q-9 5 -36.5 15.5t-83.5 12.5
q-29 1 -56.5 -8t-49 -24t-35 -32.5t-14.5 -32.5q-1 -13 15 -35.5t45 -42.5t68 -32.5t84 -4.5v-1l51 9q20 4 41.5 8t34.5 7q2 1 5 0.5t1 -5.5l-17 -48q-4 -10 -7.5 -20.5t-7.5 -23.5q-50 -9 -106 -22t-111.5 -31t-108.5 -41.5t-98 -53.5z" />
    <glyph glyph-name="uni0623.fina" unicode="&#x623;" horiz-adv-x="566" arabic-form="final" 
d="M525 0q-53 0 -105 21.5t-93.5 62.5t-67.5 100.5t-26 136.5q0 99 -3.5 207t-9 212.5t-12 200.5t-12.5 172.5t-11.5 127.5t-7.5 66q12 11 20 19t15.5 14.5t14.5 13t16 14.5q16 14 31 29t27.5 26.5t21 17.5t10.5 2q4 -4 5.5 -13.5t1.5 -16.5q8 -138 12 -249.5t6 -204
t2.5 -170t0 -147.5t-1.5 -137t-1 -138q0 -33 7 -57.5t19 -42.5t28 -30.5t34 -20.5q20 -11 41 -17.5t49 -6.5h39v-192h-50zM50 1511l85 50q13 9 25 16q-20 11 -38.5 27.5t-33 37t-22.5 45.5t-6 52q1 19 11 42.5t27 48t38.5 47t46 40t49.5 28t48 9.5q22 -1 44 -7t43 -19
t40 -34.5t35 -53.5q5 -11 -1.5 -18t-31.5 5q-9 5 -36.5 15.5t-83.5 12.5q-29 1 -56.5 -8t-49 -24t-35 -32.5t-14.5 -32.5q-1 -13 15 -35.5t45 -42.5t68 -32.5t84 -4.5v-1l51 9q20 4 41.5 8t34.5 7q2 1 5 0.5t1 -5.5l-17 -48q-4 -10 -7.5 -20.5t-7.5 -23.5q-50 -9 -106 -22
t-111.5 -31t-108.5 -41.5t-98 -53.5z" />
    <glyph glyph-name="uni0625" unicode="&#x625;" horiz-adv-x="468" arabic-form="isolated" 
d="M193 -20q-8 -11 -11.5 -8.5t-3.5 7.5q-4 295 -12.5 536.5t-19.5 419.5q-6 103 -12 195t-13 175q23 23 43 43.5t39 37.5q16 14 31.5 27.5t28.5 24t23 16t14 2.5q5 -5 7 -21q1 -5 1 -15q2 -100 2.5 -201t-0.5 -206q0 -89 -2 -188.5t-5.5 -203t-9.5 -207.5t-13 -201
q-6 -34 -16.5 -68.5t-23.5 -65.5t-25.5 -57t-21.5 -42zM46 -575l85 50q13 9 25 16q-20 11 -38.5 27.5t-33 37t-22.5 45.5t-6 52q1 19 11 42.5t27 48t38.5 47t46 40t49.5 28t48 9.5q22 -1 44 -7t43 -19t40 -34.5t35 -53.5q5 -11 -1.5 -18t-31.5 5q-9 5 -36.5 15.5t-83.5 12.5
q-29 1 -56.5 -8t-49 -24t-35 -32.5t-14.5 -32.5q-1 -13 15 -35.5t45 -42.5t68 -32.5t84 -4.5v-1l51 9q20 4 41.5 8t34.5 7q2 1 5 0.5t1 -5.5l-17 -48q-4 -10 -7.5 -20.5t-7.5 -23.5q-50 -9 -106 -22t-111.5 -31t-108.5 -41.5t-98 -53.5z" />
    <glyph glyph-name="uni0625.fina" unicode="&#x625;" horiz-adv-x="501" arabic-form="final" 
d="M464 0q-53 0 -105 21.5t-93.5 62.5t-67.5 100.5t-26 136.5q0 99 -3.5 207t-9 212.5t-12 200.5t-12.5 172.5t-11.5 127.5t-7.5 66q12 11 20 19t15.5 14.5t14.5 13t16 14.5q16 14 31 29t27.5 26.5t21 17.5t10.5 2q4 -4 5.5 -13.5t1.5 -16.5q8 -138 12 -249.5t6 -204
t2.5 -170t0 -147.5t-1.5 -137t-1 -138q0 -33 7 -57.5t19 -42.5t28 -30.5t34 -20.5q20 -11 41 -17.5t49 -6.5h39v-192h-50zM187 -582l85 50q13 9 25 16q-20 11 -38.5 27.5t-33 37t-22.5 45.5t-6 52q1 19 11 42.5t27 48t38.5 47t46 40t49.5 28t48 9.5q22 -1 44 -7t43 -19
t40 -34.5t35 -53.5q5 -11 -1.5 -18t-31.5 5q-9 5 -36.5 15.5t-83.5 12.5q-29 1 -56.5 -8t-49 -24t-35 -32.5t-14.5 -32.5q-1 -13 15 -35.5t45 -42.5t68 -32.5t84 -4.5v-1l51 9q20 4 41.5 8t34.5 7q2 1 5 0.5t1 -5.5l-17 -48q-4 -10 -7.5 -20.5t-7.5 -23.5q-50 -9 -106 -22
t-111.5 -31t-108.5 -41.5t-98 -53.5z" />
    <glyph glyph-name="uni0622" unicode="&#x622;" horiz-adv-x="546" arabic-form="isolated" 
d="M269 -20q-8 -11 -11.5 -8.5t-3.5 7.5q-4 295 -12.5 536.5t-19.5 419.5q-6 103 -12 195t-13 175q23 23 43 43.5t39 37.5q16 14 31.5 27.5t28.5 24t23 16t14 2.5q5 -5 7 -21q1 -5 1 -15q2 -100 2.5 -201t-0.5 -206q0 -89 -2 -188.5t-5.5 -203t-9.5 -207.5t-13 -201
q-6 -34 -16.5 -68.5t-23.5 -65.5t-25.5 -57t-21.5 -42zM390 1679q40 0 72.5 10t56.5 21t38.5 18.5t18.5 3.5t-5.5 -26t-35 -48.5t-68.5 -49.5t-105 -29q-31 -4 -64.5 -1.5t-66 6.5t-62.5 7.5t-53 1.5q-26 -1 -46.5 -17.5t-37 -36t-28.5 -34.5t-21 -12q-5 2 -3.5 19.5t7 42.5
t16 53t24 52.5t29.5 40.5t35 16q34 0 71 -6t75 -13t76.5 -13t76.5 -6z" />
    <glyph glyph-name="uni0622.fina" unicode="&#x622;" horiz-adv-x="563" arabic-form="final" 
d="M525 0q-53 0 -105 21.5t-93.5 62.5t-67.5 100.5t-26 136.5q0 99 -3.5 207t-9 212.5t-12 200.5t-12.5 172.5t-11.5 127.5t-7.5 66q12 11 20 19t15.5 14.5t14.5 13t16 14.5q16 14 31 29t27.5 26.5t21 17.5t10.5 2q4 -4 5.5 -13.5t1.5 -16.5q8 -138 12 -249.5t6 -204
t2.5 -170t0 -147.5t-1.5 -137t-1 -138q0 -33 7 -57.5t19 -42.5t28 -30.5t34 -20.5q20 -11 41 -17.5t49 -6.5h39v-192h-50zM377 1679q40 0 72.5 10t56.5 21t38.5 18.5t18.5 3.5t-5.5 -26t-35 -48.5t-68.5 -49.5t-105 -29q-31 -4 -64.5 -1.5t-66 6.5t-62.5 7.5t-53 1.5
q-26 -1 -46.5 -17.5t-37 -36t-28.5 -34.5t-21 -12q-5 2 -3.5 19.5t7 42.5t16 53t24 52.5t29.5 40.5t35 16q34 0 71 -6t75 -13t76.5 -13t76.5 -6z" />
    <glyph glyph-name="uni0671" unicode="&#x671;" horiz-adv-x="518" arabic-form="isolated" 
d="M263 -20q-8 -11 -11.5 -8.5t-3.5 7.5q-4 295 -12.5 536.5t-19.5 419.5q-6 103 -12 195t-13 175q23 23 43 43.5t39 37.5q16 14 31.5 27.5t28.5 24t23 16t14 2.5q5 -5 7 -21q1 -5 1 -15q2 -100 2.5 -201t-0.5 -206q0 -89 -2 -188.5t-5.5 -203t-9.5 -207.5t-13 -201
q-6 -34 -16.5 -68.5t-23.5 -65.5t-25.5 -57t-21.5 -42zM470 1807q35 -47 35 -113q0 -19 -3 -40.5t-23 -44.5q-21 -26 -44 -36.5t-40 -15.5q-34 -8 -82 -8q-46 3 -72 13.5t-46 21.5t-41 20t-56 10q-14 0 -26.5 -6t-24 -16t-22 -21.5t-20.5 -21.5q-7 -8 -16 -11t-20 5
q-9 6 -8 16.5t7 19.5q44 68 80.5 102.5t79.5 34.5q11 0 47 -16q48 72 99 113t114 41q47 0 82 -47zM402 1660q11 2 29 8t29 18q-35 65 -92 65q-64 0 -141 -71q21 -11 42.5 -15t43.5 -6q37 -3 56 -2.5t33 3.5z" />
    <glyph glyph-name="uni0671.fina" unicode="&#x671;" horiz-adv-x="564" arabic-form="final" 
d="M525 0q-53 0 -105 21.5t-93.5 62.5t-67.5 100.5t-26 136.5q0 99 -3.5 207t-9 212.5t-12 200.5t-12.5 172.5t-11.5 127.5t-7.5 66q12 11 20 19t15.5 14.5t14.5 13t16 14.5q16 14 31 29t27.5 26.5t21 17.5t10.5 2q4 -4 5.5 -13.5t1.5 -16.5q8 -138 12 -249.5t6 -204
t2.5 -170t0 -147.5t-1.5 -137t-1 -138q0 -33 7 -57.5t19 -42.5t28 -30.5t34 -20.5q20 -11 41 -17.5t49 -6.5h39v-192h-50zM484 1807q35 -47 35 -113q0 -19 -3 -40.5t-23 -44.5q-21 -26 -44 -36.5t-40 -15.5q-34 -8 -82 -8q-46 3 -72 13.5t-46 21.5t-41 20t-56 10
q-14 0 -26.5 -6t-24 -16t-22 -21.5t-20.5 -21.5q-7 -8 -16 -11t-20 5q-9 6 -8 16.5t7 19.5q44 68 80.5 102.5t79.5 34.5q11 0 47 -16q48 72 99 113t114 41q47 0 82 -47zM416 1660q11 2 29 8t29 18q-35 65 -92 65q-64 0 -141 -71q21 -11 42.5 -15t43.5 -6q37 -3 56 -2.5
t33 3.5z" />
    <glyph glyph-name="uni0628" unicode="&#x628;" horiz-adv-x="1770" arabic-form="isolated" 
d="M1593 879q5 0 19 -27.5t30.5 -72.5t32.5 -102.5t27 -117t13.5 -116t-9.5 -100.5q-26 -98 -92.5 -165t-177.5 -108t-267 -59.5t-361 -18.5q-59 0 -130.5 2t-146 12.5t-147 31t-132.5 57.5t-104 93.5t-61 137.5t-2.5 189t70.5 250q7 16 17.5 20.5t20 1t14 -14t-0.5 -25.5
q-38 -102 -43.5 -181t13.5 -137.5t59 -99.5t93 -68t115 -42.5t126 -23t125.5 -9.5t113.5 -2q132 0 236.5 5t185.5 13.5t139.5 19t99.5 22.5q97 26 130 60q4 23 0.5 51.5t-12 60t-20.5 63.5t-25 62q-16 35 -33.5 71t-37.5 74l52 96q10 18 20 35.5t19.5 31t17 22t13.5 8.5z
M1054 -296l-146 -146l-147 147l146 146z" />
    <glyph glyph-name="uni0628.init" unicode="&#x628;" horiz-adv-x="515" arabic-form="initial" 
d="M-103 96q0 40 28 68t68 28h1h87q31 1 57.5 3.5t50.5 7.5q21 4 41 10t35.5 15t26.5 21.5t14 29.5q3 24 -1.5 53t-14 61.5t-22.5 65.5t-26 65q-17 36 -35 73.5t-41 78.5l53 96q10 18 20 35t19.5 30.5t17 22t12.5 8.5t18.5 -25.5t30 -68.5t33 -99t28.5 -117t16.5 -123
t-3.5 -117q-9 -59 -39.5 -116t-72.5 -102t-90.5 -72.5t-94.5 -27.5h-117h-4q-40 0 -68 28t-28 68zM400 -376l-146 -146l-147 147l146 146z" />
    <glyph glyph-name="uni0628.medi" unicode="&#x628;" horiz-adv-x="635" arabic-form="medial" 
d="M-101 96q0 40 28 68t68 28h44q-1 0 17 1t45 7t59.5 17.5t60 32t47 52.5t20.5 77q2 33 -4 66.5t-13 60.5q-9 32 -19 60l49 67q9 13 18.5 25t17.5 20.5t14 12t9 0.5q0 -1 5.5 -24t12 -64.5t12 -100t6.5 -129.5q0 -2 1.5 -16.5t8 -34.5t20 -43t38.5 -42t63 -32t93 -13h19
v-192h-7q-43 0 -85.5 14t-81.5 37.5t-73 54.5t-59 66v-3q-21 -32 -52 -62.5t-70 -54t-85 -38t-98 -14.5h-29h-4q-40 0 -68 28t-28 68zM493 -376l-146 -146l-147 147l146 146z" />
    <glyph glyph-name="uni0628.fina" unicode="&#x628;" horiz-adv-x="1817" arabic-form="final" 
d="M1651 489q-7 -23 -12 -54t-5 -64t7 -65t26.5 -57.5t53 -41t84.5 -15.5h23v-192h-23q-58 0 -102 17.5t-75.5 45.5t-51.5 61.5t-29 66.5q-12 46 -15 86q-45 -54 -110.5 -105.5t-156 -91.5t-209 -64.5t-271.5 -24.5q-58 0 -129 2t-145.5 12.5t-146.5 31t-133 57.5
t-104.5 93.5t-61 137.5t-3 189t70.5 250q7 16 17.5 21t20 1t14.5 -14.5t0 -25.5q-38 -102 -42 -181t16.5 -137.5t62 -99.5t95.5 -68t116.5 -42.5t125.5 -23t121.5 -9.5t104.5 -2q173 0 298 23t212.5 60t143 83t89.5 91t52 84.5t31 64.5q12 22 25 31t23.5 7.5t16 -12
t1.5 -26.5q-3 -11 -8 -36.5t-18 -63.5zM973 -376l-146 -146l-147 147l146 146z" />
    <glyph glyph-name="uni067E" unicode="&#x67e;" horiz-adv-x="1838" arabic-form="isolated" 
d="M1616 879q5 0 19 -27.5t30.5 -72.5t32.5 -102.5t27 -117t13.5 -116t-9.5 -100.5q-26 -98 -92.5 -165t-177.5 -108t-267 -59.5t-361 -18.5q-59 0 -130.5 2t-146 12.5t-147 31t-132.5 57.5t-104 93.5t-61 137.5t-2.5 189t70.5 250q7 16 17.5 20.5t20 1t14 -14t-0.5 -25.5
q-38 -102 -43.5 -181t13.5 -137.5t59 -99.5t93 -68t115 -42.5t126 -23t125.5 -9.5t113.5 -2q132 0 236.5 5t185.5 13.5t139.5 19t99.5 22.5q97 26 130 60q4 23 0.5 51.5t-12 60t-20.5 63.5t-25 62q-16 35 -33.5 71t-37.5 74l52 96q10 18 20 35.5t19.5 31t17 22t13.5 8.5z
M930 -308l-140 -140l-137 139l138 139zM1236 -308l-138 -140l-139 139l140 139zM946 -655l-131 131l132 132l131 -131z" />
    <glyph glyph-name="uni067E.fina" unicode="&#x67e;" horiz-adv-x="1828" arabic-form="final" 
d="M1662 489q-7 -23 -12 -54t-5 -64t7 -65t26.5 -57.5t53 -41t84.5 -15.5h23v-192h-23q-58 0 -102 17.5t-75.5 45.5t-51.5 61.5t-29 66.5q-12 46 -15 86q-45 -54 -110.5 -105.5t-156 -91.5t-209 -64.5t-271.5 -24.5q-58 0 -129 2t-145.5 12.5t-146.5 31t-133 57.5
t-104.5 93.5t-61 137.5t-3 189t70.5 250q7 16 17.5 21t20 1t14.5 -14.5t0 -25.5q-38 -102 -42 -181t16.5 -137.5t62 -99.5t95.5 -68t116.5 -42.5t125.5 -23t121.5 -9.5t104.5 -2q173 0 298 23t212.5 60t143 83t89.5 91t52 84.5t31 64.5q12 22 25 31t23.5 7.5t16 -12
t1.5 -26.5q-3 -11 -8 -36.5t-18 -63.5zM790 -287l-140 -140l-137 139l138 139zM1096 -287l-138 -140l-139 139l140 139zM806 -634l-131 131l132 132l131 -131z" />
    <glyph glyph-name="uni067E.init" unicode="&#x67e;" horiz-adv-x="659" arabic-form="initial" 
d="M-101 96q0 40 28 68t68 28h81q26 0 61 0.5t73 3t76 8t71 15t58 24t37 36.5q3 24 -1.5 53t-14 61.5t-22.5 65.5t-26 65q-17 36 -35 73.5t-41 78.5l53 96q10 18 20 35t19.5 30.5t17 22t12.5 8.5t18.5 -25.5t30 -68.5t33 -99t28.5 -117t16.5 -123t-3.5 -117
q-9 -59 -41.5 -116t-89 -102t-136 -72.5t-181.5 -27.5h-110h-4q-40 0 -68 28t-28 68zM293 -301l-140 -140l-137 139l138 139zM599 -301l-138 -140l-139 139l140 139zM309 -648l-131 131l132 132l131 -131z" />
    <glyph glyph-name="uni067E.medi" unicode="&#x67e;" horiz-adv-x="742" arabic-form="medial" 
d="M-103 96q0 40 28 68t68 28h4h34q-1 0 22 1t58 7t76 17.5t76.5 32t60 52.5t25.5 77q2 33 -4 66.5t-13 60.5q-9 32 -19 60l49 67q9 13 18.5 25t17.5 20.5t14 12t9 0.5q0 -1 5.5 -24t12 -64.5t12 -100t6.5 -129.5q0 -2 1.5 -16.5t9.5 -34.5t24.5 -43t46.5 -42t76 -32
t113 -13h19v-192h-7q-68 0 -121 14t-94.5 37.5t-73.5 54.5t-57 66v-3q-21 -32 -56 -62.5t-82.5 -54t-107 -38t-128.5 -14.5h-23h-4q-40 0 -68 28t-28 68zM357 -345l-140 -140l-137 139l138 139zM663 -345l-138 -140l-139 139l140 139zM373 -692l-131 131l132 132l131 -131z
" />
    <glyph glyph-name="uni062A" unicode="&#x62a;" horiz-adv-x="1798" arabic-form="isolated" 
d="M1592 879q5 0 19 -27.5t30.5 -72.5t32.5 -102.5t27 -117t13.5 -116t-9.5 -100.5q-26 -98 -92.5 -165t-177.5 -108t-267 -59.5t-361 -18.5q-59 0 -130.5 2t-146 12.5t-147 31t-132.5 57.5t-104 93.5t-61 137.5t-2.5 189t70.5 250q7 16 17.5 20.5t20 1t14 -14t-0.5 -25.5
q-38 -102 -43.5 -181t13.5 -137.5t59 -99.5t93 -68t115 -42.5t126 -23t125.5 -9.5t113.5 -2q132 0 236.5 5t185.5 13.5t139.5 19t99.5 22.5q97 26 130 60q4 23 0.5 51.5t-12 60t-20.5 63.5t-25 62q-16 35 -33.5 71t-37.5 74l52 96q10 18 20 35.5t19.5 31t17 22t13.5 8.5z
M741 660l-138 139l137 139l140 -140zM1023 660l-140 139l139 139l138 -140z" />
    <glyph glyph-name="uni062A.init" unicode="&#x62a;" horiz-adv-x="577" arabic-form="initial" 
d="M155 1012l-138 139l137 139l140 -140zM437 1012l-140 139l139 139l138 -140zM-109 96q0 40 28 68t68 28h81q26 0 61 0.5t73 3t76 8t71 15t58 24t37 36.5q3 24 -1.5 53t-14 61.5t-22.5 65.5t-26 65q-17 36 -35 73.5t-41 78.5l53 96q10 18 20 35t19.5 30.5t17 22t12.5 8.5
t18.5 -25.5t30 -68.5t33 -99t28.5 -117t16.5 -123t-3.5 -117q-9 -59 -41.5 -116t-89 -102t-136 -72.5t-181.5 -27.5h-110h-4q-40 0 -68 28t-28 68z" />
    <glyph glyph-name="uni062A.medi" unicode="&#x62a;" horiz-adv-x="737" arabic-form="medial" 
d="M-103 96q0 40 28 68t68 28h4h34q-1 0 22 1t58 7t76 17.5t76.5 32t60 52.5t25.5 77q2 33 -4 66.5t-13 60.5q-9 32 -19 60l49 67q9 13 18.5 25t17.5 20.5t14 12t9 0.5q0 -1 5.5 -24t12 -64.5t12 -100t6.5 -129.5q0 -2 1.5 -16.5t9.5 -34.5t24.5 -43t46.5 -42t76 -32
t113 -13h19v-192h-7q-68 0 -121 14t-94.5 37.5t-73.5 54.5t-57 66v-3q-21 -32 -56 -62.5t-82.5 -54t-107 -38t-128.5 -14.5h-23h-4q-40 0 -68 28t-28 68zM254 825l-138 139l137 139l140 -140zM536 825l-140 139l139 139l138 -140z" />
    <glyph glyph-name="uni062A.fina" unicode="&#x62a;" horiz-adv-x="1822" arabic-form="final" 
d="M1658 489q-7 -23 -12 -54t-5 -64t7 -65t26.5 -57.5t53 -41t84.5 -15.5h23v-192h-23q-58 0 -102 17.5t-75.5 45.5t-51.5 61.5t-29 66.5q-12 46 -15 86q-45 -54 -110.5 -105.5t-156 -91.5t-209 -64.5t-271.5 -24.5q-58 0 -129 2t-145.5 12.5t-146.5 31t-133 57.5
t-104.5 93.5t-61 137.5t-3 189t70.5 250q7 16 17.5 21t20 1t14.5 -14.5t0 -25.5q-38 -102 -42 -181t16.5 -137.5t62 -99.5t95.5 -68t116.5 -42.5t125.5 -23t121.5 -9.5t104.5 -2q173 0 298 23t212.5 60t143 83t89.5 91t52 84.5t31 64.5q12 22 25 31t23.5 7.5t16 -12
t1.5 -26.5q-3 -11 -8 -36.5t-18 -63.5zM700 636l-138 139l137 139l140 -140zM982 636l-140 139l139 139l138 -140z" />
    <glyph glyph-name="uni062B" unicode="&#x62b;" horiz-adv-x="1770" arabic-form="isolated" 
d="M1591 879q5 0 19 -27.5t30.5 -72.5t32.5 -102.5t27 -117t13.5 -116t-9.5 -100.5q-26 -98 -92.5 -165t-177.5 -108t-267 -59.5t-361 -18.5q-59 0 -130.5 2t-146 12.5t-147 31t-132.5 57.5t-104 93.5t-61 137.5t-2.5 189t70.5 250q7 16 17.5 20.5t20 1t14 -14t-0.5 -25.5
q-38 -102 -43.5 -181t13.5 -137.5t59 -99.5t93 -68t115 -42.5t126 -23t125.5 -9.5t113.5 -2q132 0 236.5 5t185.5 13.5t139.5 19t99.5 22.5q97 26 130 60q4 23 0.5 51.5t-12 60t-20.5 63.5t-25 62q-16 35 -33.5 71t-37.5 74l52 96q10 18 20 35.5t19.5 31t17 22t13.5 8.5z
M734 574l-138 139l137 139l140 -140zM1042 574l-140 139l139 139l138 -140zM1024 927l-131 -131l-132 132l131 131z" />
    <glyph glyph-name="uni062B.init" unicode="&#x62b;" horiz-adv-x="601" arabic-form="initial" 
d="M148 1002l-138 139l137 139l140 -140zM456 1002l-140 139l139 139l138 -140zM438 1355l-131 -131l-132 132l131 131zM-101 96q0 40 28 68t68 28h81q26 0 61 0.5t73 3t76 8t71 15t58 24t37 36.5q3 24 -1.5 53t-14 61.5t-22.5 65.5t-26 65q-17 36 -35 73.5t-41 78.5l53 96
q10 18 20 35t19.5 30.5t17 22t12.5 8.5t18.5 -25.5t30 -68.5t33 -99t28.5 -117t16.5 -123t-3.5 -117q-9 -59 -41.5 -116t-89 -102t-136 -72.5t-181.5 -27.5h-110h-4q-40 0 -68 28t-28 68z" />
    <glyph glyph-name="uni062B.medi" unicode="&#x62b;" horiz-adv-x="741" arabic-form="medial" 
d="M-103 96q0 40 28 68t68 28h4h34q-1 0 22 1t58 7t76 17.5t76.5 32t60 52.5t25.5 77q2 33 -4 66.5t-13 60.5q-9 32 -19 60l49 67q9 13 18.5 25t17.5 20.5t14 12t9 0.5q0 -1 5.5 -24t12 -64.5t12 -100t6.5 -129.5q0 -2 1.5 -16.5t9.5 -34.5t24.5 -43t46.5 -42t76 -32
t113 -13h19v-192h-7q-68 0 -121 14t-94.5 37.5t-73.5 54.5t-57 66v-3q-21 -32 -56 -62.5t-82.5 -54t-107 -38t-128.5 -14.5h-23h-4q-40 0 -68 28t-28 68zM233 792l-138 139l137 139l140 -140zM541 792l-140 139l139 139l138 -140zM523 1145l-131 -131l-132 132l131 131z" />
    <glyph glyph-name="uni062B.fina" unicode="&#x62b;" horiz-adv-x="1833" arabic-form="final" 
d="M1672 489q-7 -23 -12 -54t-5 -64t7 -65t26.5 -57.5t53 -41t84.5 -15.5h23v-192h-23q-58 0 -102 17.5t-75.5 45.5t-51.5 61.5t-29 66.5q-12 46 -15 86q-45 -54 -110.5 -105.5t-156 -91.5t-209 -64.5t-271.5 -24.5q-58 0 -129 2t-145.5 12.5t-146.5 31t-133 57.5
t-104.5 93.5t-61 137.5t-3 189t70.5 250q7 16 17.5 21t20 1t14.5 -14.5t0 -25.5q-38 -102 -42 -181t16.5 -137.5t62 -99.5t95.5 -68t116.5 -42.5t125.5 -23t121.5 -9.5t104.5 -2q173 0 298 23t212.5 60t143 83t89.5 91t52 84.5t31 64.5q12 22 25 31t23.5 7.5t16 -12
t1.5 -26.5q-3 -11 -8 -36.5t-18 -63.5zM705 573l-138 139l137 139l140 -140zM1013 573l-140 139l139 139l138 -140zM995 926l-131 -131l-132 132l131 131z" />
    <glyph glyph-name="uni0679" unicode="&#x679;" horiz-adv-x="1794" arabic-form="isolated" 
d="M1601 879q5 0 19 -27.5t30.5 -72.5t32.5 -102.5t27 -117t13.5 -116t-9.5 -100.5q-26 -98 -92.5 -165t-177.5 -108t-267 -59.5t-361 -18.5q-59 0 -130.5 2t-146 12.5t-147 31t-132.5 57.5t-104 93.5t-61 137.5t-2.5 189t70.5 250q7 16 17.5 20.5t20 1t14 -14t-0.5 -25.5
q-38 -102 -43.5 -181t13.5 -137.5t59 -99.5t93 -68t115 -42.5t126 -23t125.5 -9.5t113.5 -2q132 0 236.5 5t185.5 13.5t139.5 19t99.5 22.5q97 26 130 60q4 23 0.5 51.5t-12 60t-20.5 63.5t-25 62q-16 35 -33.5 71t-37.5 74l52 96q10 18 20 35.5t19.5 31t17 22t13.5 8.5z
M1099 1046q50 0 81 -15t48 -38t22 -51t4 -55t-6 -49t-9 -33q-14 -35 -37 -72t-62.5 -68.5t-99.5 -51.5t-147 -20q-72 0 -123 3t-91 10q-14 2 -23.5 3t-15.5 3l-11 4q-47 13 -69 36.5t-34 55.5q-3 8 0 13t12 3q31 -8 74 -12.5t91 -7.5q4 4 10.5 12t12 15.5t10 13.5t5.5 7
q7 10 11.5 25t7 31t3.5 31t1 26v22q-1 60 -3 98.5t-5 66t-6 49.5t-6 49q-4 32 -7 57.5t-6 45.5q10 13 19.5 23t17.5 18q17 15 31 26.5t19 9.5q1 -2 1 -5t1 -7q1 -2 1 -7l7 -114q1 -26 2 -45t1 -39.5v-46.5v-66q0 -10 -0.5 -29.5t-2.5 -43t-8 -49t-16 -46.5q31 37 68 75
t75 69t77 50.5t75 19.5zM1199 818q4 10 3 30.5t-12.5 41t-37.5 34.5t-72 12q-59 -3 -111 -31.5t-94.5 -66t-74 -76.5t-49.5 -61q16 -2 39 -3q38 -3 110 -3q90 0 146 15.5t88.5 36t46 41t18.5 30.5z" />
    <glyph glyph-name="uni0679.init" unicode="&#x679;" horiz-adv-x="618" arabic-form="initial" 
d="M456 1533q50 0 81 -15t48 -38t22 -51t4 -55t-6 -49t-9 -33q-14 -35 -37 -72t-62.5 -68.5t-99.5 -51.5t-147 -20q-72 0 -123 3t-91 10q-14 2 -23.5 3t-15.5 3l-11 4q-47 13 -69 36.5t-34 55.5q-3 8 0 13t12 3q31 -8 74 -12.5t91 -7.5q4 4 10.5 12t12 15.5t10 13.5t5.5 7
q7 10 11.5 25t7 31t3.5 31t1 26v22q-1 60 -3 98.5t-5 66t-6 49.5t-6 49q-4 32 -7 57.5t-6 45.5q10 13 19.5 23t17.5 18q17 15 31 26.5t19 9.5q1 -2 1 -5t1 -7q1 -2 1 -7l7 -114q1 -26 2 -45t1 -39.5v-46.5v-66q0 -10 -0.5 -29.5t-2.5 -43t-8 -49t-16 -46.5q31 37 68 75
t75 69t77 50.5t75 19.5zM556 1305q4 10 3 30.5t-12.5 41t-37.5 34.5t-72 12q-59 -3 -111 -31.5t-94.5 -66t-74 -76.5t-49.5 -61q16 -2 39 -3q38 -3 110 -3q90 0 146 15.5t88.5 36t46 41t18.5 30.5zM-101 96q0 40 28 68t68 28h81q26 0 61 0.5t73 3t76 8t71 15t58 24t37 36.5
q3 24 -1.5 53t-14 61.5t-22.5 65.5t-26 65q-17 36 -35 73.5t-41 78.5l53 96q10 18 20 35t19.5 30.5t17 22t12.5 8.5t18.5 -25.5t30 -68.5t33 -99t28.5 -117t16.5 -123t-3.5 -117q-9 -59 -41.5 -116t-89 -102t-136 -72.5t-181.5 -27.5h-110h-4q-40 0 -68 28t-28 68z" />
    <glyph glyph-name="uni0679.medi" unicode="&#x679;" horiz-adv-x="733" arabic-form="medial" 
d="M-103 96q0 40 28 68t68 28h4h34q-1 0 22 1t58 7t76 17.5t76.5 32t60 52.5t25.5 77q2 33 -4 66.5t-13 60.5q-9 32 -19 60l49 67q9 13 18.5 25t17.5 20.5t14 12t9 0.5q0 -1 5.5 -24t12 -64.5t12 -100t6.5 -129.5q0 -2 1.5 -16.5t9.5 -34.5t24.5 -43t46.5 -42t76 -32
t113 -13h19v-192h-7q-68 0 -121 14t-94.5 37.5t-73.5 54.5t-57 66v-3q-21 -32 -56 -62.5t-82.5 -54t-107 -38t-128.5 -14.5h-23h-4q-40 0 -68 28t-28 68zM584 1253q50 0 81 -15t48 -38t22 -51t4 -55t-6 -49t-9 -33q-14 -35 -37 -72t-62.5 -68.5t-99.5 -51.5t-147 -20
q-72 0 -123 3t-91 10q-14 2 -23.5 3t-15.5 3l-11 4q-47 13 -69 36.5t-34 55.5q-3 8 0 13t12 3q31 -8 74 -12.5t91 -7.5q4 4 10.5 12t12 15.5t10 13.5t5.5 7q7 10 11.5 25t7 31t3.5 31t1 26v22q-1 60 -3 98.5t-5 66t-6 49.5t-6 49q-4 32 -7 57.5t-6 45.5q10 13 19.5 23
t17.5 18q17 15 31 26.5t19 9.5q1 -2 1 -5t1 -7q1 -2 1 -7l7 -114q1 -26 2 -45t1 -39.5v-46.5v-66q0 -10 -0.5 -29.5t-2.5 -43t-8 -49t-16 -46.5q31 37 68 75t75 69t77 50.5t75 19.5zM684 1025q4 10 3 30.5t-12.5 41t-37.5 34.5t-72 12q-59 -3 -111 -31.5t-94.5 -66
t-74 -76.5t-49.5 -61q16 -2 39 -3q38 -3 110 -3q90 0 146 15.5t88.5 36t46 41t18.5 30.5z" />
    <glyph glyph-name="uni0679.fina" unicode="&#x679;" horiz-adv-x="1840" arabic-form="final" 
d="M1673 489q-7 -23 -12 -54t-5 -64t7 -65t26.5 -57.5t53 -41t84.5 -15.5h23v-192h-23q-58 0 -102 17.5t-75.5 45.5t-51.5 61.5t-29 66.5q-12 46 -15 86q-45 -54 -110.5 -105.5t-156 -91.5t-209 -64.5t-271.5 -24.5q-58 0 -129 2t-145.5 12.5t-146.5 31t-133 57.5
t-104.5 93.5t-61 137.5t-3 189t70.5 250q7 16 17.5 21t20 1t14.5 -14.5t0 -25.5q-38 -102 -42 -181t16.5 -137.5t62 -99.5t95.5 -68t116.5 -42.5t125.5 -23t121.5 -9.5t104.5 -2q173 0 298 23t212.5 60t143 83t89.5 91t52 84.5t31 64.5q12 22 25 31t23.5 7.5t16 -12
t1.5 -26.5q-3 -11 -8 -36.5t-18 -63.5zM1110 984q50 0 81 -15t48 -38t22 -51t4 -55t-6 -49t-9 -33q-14 -35 -37 -72t-62.5 -68.5t-99.5 -51.5t-147 -20q-72 0 -123 3t-91 10q-14 2 -23.5 3t-15.5 3l-11 4q-47 13 -69 36.5t-34 55.5q-3 8 0 13t12 3q31 -8 74 -12.5t91 -7.5
q4 4 10.5 12t12 15.5t10 13.5t5.5 7q7 10 11.5 25t7 31t3.5 31t1 26v22q-1 60 -3 98.5t-5 66t-6 49.5t-6 49q-4 32 -7 57.5t-6 45.5q10 13 19.5 23t17.5 18q17 15 31 26.5t19 9.5q1 -2 1 -5t1 -7q1 -2 1 -7l7 -114q1 -26 2 -45t1 -39.5v-46.5v-66q0 -10 -0.5 -29.5t-2.5 -43
t-8 -49t-16 -46.5q31 37 68 75t75 69t77 50.5t75 19.5zM1210 756q4 10 3 30.5t-12.5 41t-37.5 34.5t-72 12q-59 -3 -111 -31.5t-94.5 -66t-74 -76.5t-49.5 -61q16 -2 39 -3q38 -3 110 -3q90 0 146 15.5t88.5 36t46 41t18.5 30.5z" />
    <glyph glyph-name="uni0629" unicode="&#x629;" horiz-adv-x="874" arabic-form="isolated" 
d="M785 427q9 -109 -16.5 -192t-76 -138.5t-119.5 -84t-145 -28.5q-69 0 -131 26t-104.5 73t-60 113.5t2.5 147.5q15 63 37 121t42 105q23 50 51 100l52 95q10 18 20.5 35.5t20 31t17.5 21.5t14 8q3 0 32 -11.5t70.5 -34.5t90.5 -58.5t92 -84t74 -109.5t37 -136zM439 175
q37 0 84 7.5t88.5 22t70 36t28.5 50.5q0 37 -16 71.5t-42.5 64.5t-60 56t-67.5 48q-40 26 -86.5 49t-98.5 43q-80 -102 -103.5 -184.5t-4 -141t75 -90.5t132.5 -32zM274 1025l-138 139l137 139l140 -140zM556 1025l-140 139l139 139l138 -140z" />
    <glyph glyph-name="uni0629.fina" unicode="&#x629;" horiz-adv-x="919" arabic-form="final" 
d="M929 192v-192h-39q-65 0 -116 24t-89.5 63t-64 88.5t-38.5 100.5l-132 -127q-26 -8 -56 -12q-26 -3 -64 -1.5t-84 14.5q-56 14 -93.5 49.5t-54 85.5t-10.5 110.5t37 124.5q17 33 61.5 75.5t100 86.5t114 85.5t102.5 71.5q-3 19 -4 33.5t-2 25.5l-3 21q19 20 35.5 38.5
t33.5 35.5q13 13 27 25.5t25.5 21t20.5 12.5t13 2l11 -150q7 -70 14 -166t18 -211q9 -100 25 -164.5t42 -102.5t63.5 -53t90.5 -15h16zM159 442q9 -32 34.5 -53.5t61 -35.5t78 -20.5t85.5 -8.5t83 0.5t70 6.5q-16 109 -28.5 200.5t-21.5 166.5q-64 -27 -131 -62t-120.5 -70
t-85 -68t-25.5 -56zM303 1213l-138 139l137 139l140 -140zM585 1213l-140 139l139 139l138 -140z" />
    <glyph glyph-name="uni0686.init" unicode="&#x686;" horiz-adv-x="1261" arabic-form="initial" 
d="M-105 96q0 40 28 68t68 28h108q46 0 111 9t140.5 25.5t157.5 40t162 53.5t154.5 66t135.5 76q-95 33 -177 66.5t-151.5 60.5t-127.5 44t-106 17q-52 0 -94.5 -20t-72.5 -45q-19 -14 -35 -30t-30 -33q-12 -18 -27 -26t-26.5 -5t-15.5 18t6 44q51 141 128.5 213t183.5 72
q54 0 113 -19t124.5 -47t137.5 -61.5t151.5 -63t167.5 -50t184 -22.5q28 -1 30 -9t-3 -21l-92 -151q-68 -17 -151.5 -52.5t-177.5 -79.5t-196.5 -90.5t-208.5 -84.5t-213.5 -62.5t-211.5 -24.5h-74h-4q-40 0 -68 28t-28 68zM588 -223l-140 -140l-137 139l138 139zM894 -223
l-138 -140l-139 139l140 139zM604 -570l-131 131l132 132l131 -131z" />
    <glyph glyph-name="uni0686.medi" unicode="&#x686;" horiz-adv-x="1352" arabic-form="medial" 
d="M-106 96q0 40 28 68t68 28h4h97q46 0 111 8.5t140.5 25t157.5 40t162 53t154.5 65t134.5 74.5q-95 33 -176.5 67t-151.5 61t-128 44t-105 17q-52 0 -95 -20.5t-72 -43.5q-20 -14 -35.5 -29.5t-29.5 -32.5q-12 -19 -27.5 -27t-26.5 -4.5t-15.5 18.5t5.5 43
q51 141 129 212.5t183 71.5q54 0 113.5 -18.5t124.5 -47t137.5 -62t151.5 -62.5t166.5 -49.5t183.5 -22.5q29 -1 31 -9.5t-3 -19.5l-91 -152q-76 -20 -169 -61q6 -41 21.5 -67.5t44 -42.5t73 -22.5t109.5 -6.5h69v-192h-69q-104 0 -168.5 21t-101 59.5t-52 91.5t-20.5 117
q-99 -45 -208.5 -96t-224 -93.5t-231.5 -71t-232 -28.5h-67h-4q-40 0 -68 28t-28 68zM641 -220l-140 -140l-137 139l138 139zM947 -220l-138 -140l-139 139l140 139zM657 -567l-131 131l132 132l131 -131z" />
    <glyph glyph-name="uni062C" unicode="&#x62c;" horiz-adv-x="1403" arabic-form="isolated" 
d="M220 -98q0 -78 40 -154.5t121.5 -136.5t205 -97t289.5 -37q94 0 173 7t142 17.5t109.5 21.5t76.5 19q27 7 33.5 0t-10.5 -27q-23 -26 -66 -63t-112 -72t-166 -59.5t-229 -24.5q-170 0 -308 41t-232 118t-138.5 187.5t-27.5 250.5q6 54 24.5 117t54.5 128t93 129.5
t141.5 121t200 101.5t267.5 73q-57 19 -114 44t-111.5 47t-106.5 37t-99 15q-54 0 -96.5 -20.5t-72.5 -43.5q-35 -29 -64 -64q-12 -18 -27 -26t-26 -5t-15.5 18.5t6.5 43.5q25 70 57.5 126t71.5 96t85 61.5t98 21.5q53 0 115 -19.5t131 -48.5t145.5 -63.5t160.5 -64.5
t174.5 -51t187.5 -24q14 0 20.5 -2.5t9 -6t1 -8.5t-3.5 -11l-94 -164q-203 0 -365 -23t-285.5 -63.5t-211.5 -94t-144.5 -114.5t-82.5 -126t-26 -128zM1007 -52l-146 -146l-147 147l146 146z" />
    <glyph glyph-name="uni062C.init" unicode="&#x62c;" horiz-adv-x="1342" arabic-form="initial" 
d="M-105 96q0 40 28 68t68 28h108q46 0 111 9t140.5 25.5t157.5 40t162 53.5t154.5 66t135.5 76q-95 33 -177 66.5t-151.5 60.5t-127.5 44t-106 17q-52 0 -94.5 -20t-72.5 -45q-19 -14 -35 -30t-30 -33q-12 -18 -27 -26t-26.5 -5t-15.5 18t6 44q51 141 128.5 213t183.5 72
q54 0 113 -19t124.5 -47t137.5 -61.5t151.5 -63t167.5 -50t184 -22.5q28 -1 30 -9t-3 -21l-92 -151q-68 -17 -151.5 -52.5t-177.5 -79.5t-196.5 -90.5t-208.5 -84.5t-213.5 -62.5t-211.5 -24.5h-74h-4q-40 0 -68 28t-28 68zM742 -254l-146 -146l-147 147l146 146z" />
    <glyph glyph-name="uni062C.medi" unicode="&#x62c;" horiz-adv-x="1356" arabic-form="medial" 
d="M-106 96q0 40 28 68t68 28h4h97q46 0 111 8.5t140.5 25t157.5 40t162 53t154.5 65t134.5 74.5q-95 33 -176.5 67t-151.5 61t-128 44t-105 17q-52 0 -95 -20.5t-72 -43.5q-20 -14 -35.5 -29.5t-29.5 -32.5q-12 -19 -27.5 -27t-26.5 -4.5t-15.5 18.5t5.5 43
q51 141 129 212.5t183 71.5q54 0 113.5 -18.5t124.5 -47t137.5 -62t151.5 -62.5t166.5 -49.5t183.5 -22.5q29 -1 31 -9.5t-3 -19.5l-91 -152q-76 -20 -169 -61q6 -41 21.5 -67.5t44 -42.5t73 -22.5t109.5 -6.5h69v-192h-69q-104 0 -168.5 21t-101 59.5t-52 91.5t-20.5 117
q-99 -45 -208.5 -96t-224 -93.5t-231.5 -71t-232 -28.5h-67h-4q-40 0 -68 28t-28 68zM750 -230l-146 -146l-147 147l146 146z" />
    <glyph glyph-name="uni062C.fina" unicode="&#x62c;" horiz-adv-x="1475" arabic-form="final" 
d="M1491 192v-192h-80q-85 0 -144 17t-98 47t-61 71t-32.5 90t-13 103t-2.5 110q-152 -13 -273.5 -42.5t-214.5 -71t-159.5 -92.5t-109 -106t-62.5 -112.5t-20 -112.5q0 -78 40 -154.5t121 -136.5t204 -97t290 -37q94 0 172.5 7t141.5 17.5t110 21.5t77 19q27 7 33.5 -1
t-10.5 -26q-23 -26 -66 -63.5t-111.5 -72t-166 -59t-229.5 -24.5q-170 0 -307.5 41t-231.5 118t-138.5 187.5t-27.5 250.5q6 54 24.5 117t54.5 128t93 129.5t142 121t200 101.5t268 73q-58 19 -115 44t-111.5 47t-106.5 37t-99 15q-54 0 -96.5 -20.5t-72.5 -43.5
q-17 -15 -33 -30.5t-31 -33.5q-12 -18 -27 -26t-26 -5t-15 18.5t6 43.5q25 70 57.5 126t71.5 96t85 61.5t98 21.5q53 0 115 -19.5t131 -48.5t145.5 -63.5t160.5 -64.5t174.5 -51t187.5 -24q28 0 30 -8.5t-3 -19.5l-94 -164q-47 0 -91.5 -1.5t-87.5 -3.5q1 -64 10.5 -111.5
t36.5 -79t76.5 -47t130.5 -15.5h80zM931 -90l-146 -146l-147 147l146 146z" />
    <glyph glyph-name="uni062E" unicode="&#x62e;" horiz-adv-x="1408" arabic-form="isolated" 
d="M220 -98q0 -78 40 -154.5t121.5 -136.5t205 -97t289.5 -37q94 0 173 7t142 17.5t109.5 21.5t76.5 19q27 7 33.5 0t-10.5 -27q-23 -26 -66 -63t-112 -72t-166 -59.5t-229 -24.5q-170 0 -308 41t-232 118t-138.5 187.5t-27.5 250.5q6 54 24.5 117t54.5 128t93 129.5
t141.5 121t200 101.5t267.5 73q-57 19 -114 44t-111.5 47t-106.5 37t-99 15q-54 0 -96.5 -20.5t-72.5 -43.5q-35 -29 -64 -64q-12 -18 -27 -26t-26 -5t-15.5 18.5t6.5 43.5q25 70 57.5 126t71.5 96t85 61.5t98 21.5q53 0 115 -19.5t131 -48.5t145.5 -63.5t160.5 -64.5
t174.5 -51t187.5 -24q14 0 20.5 -2.5t9 -6t1 -8.5t-3.5 -11l-94 -164q-203 0 -365 -23t-285.5 -63.5t-211.5 -94t-144.5 -114.5t-82.5 -126t-26 -128zM603 1227l-146 -146l-147 147l146 146z" />
    <glyph glyph-name="uni062E.init" unicode="&#x62e;" horiz-adv-x="1267" arabic-form="initial" 
d="M-105 96q0 40 28 68t68 28h108q46 0 111 9t140.5 25.5t157.5 40t162 53.5t154.5 66t135.5 76q-95 33 -177 66.5t-151.5 60.5t-127.5 44t-106 17q-52 0 -94.5 -20t-72.5 -45q-19 -14 -35 -30t-30 -33q-12 -18 -27 -26t-26.5 -5t-15.5 18t6 44q51 141 128.5 213t183.5 72
q54 0 113 -19t124.5 -47t137.5 -61.5t151.5 -63t167.5 -50t184 -22.5q28 -1 30 -9t-3 -21l-92 -151q-68 -17 -151.5 -52.5t-177.5 -79.5t-196.5 -90.5t-208.5 -84.5t-213.5 -62.5t-211.5 -24.5h-74h-4q-40 0 -68 28t-28 68zM534 1227l-146 -146l-147 147l146 146z" />
    <glyph glyph-name="uni062E.medi" unicode="&#x62e;" horiz-adv-x="1357" arabic-form="medial" 
d="M-106 96q0 40 28 68t68 28h4h97q46 0 111 8.5t140.5 25t157.5 40t162 53t154.5 65t134.5 74.5q-95 33 -176.5 67t-151.5 61t-128 44t-105 17q-52 0 -95 -20.5t-72 -43.5q-20 -14 -35.5 -29.5t-29.5 -32.5q-12 -19 -27.5 -27t-26.5 -4.5t-15.5 18.5t5.5 43
q51 141 129 212.5t183 71.5q54 0 113.5 -18.5t124.5 -47t137.5 -62t151.5 -62.5t166.5 -49.5t183.5 -22.5q29 -1 31 -9.5t-3 -19.5l-91 -152q-76 -20 -169 -61q6 -41 21.5 -67.5t44 -42.5t73 -22.5t109.5 -6.5h69v-192h-69q-104 0 -168.5 21t-101 59.5t-52 91.5t-20.5 117
q-99 -45 -208.5 -96t-224 -93.5t-231.5 -71t-232 -28.5h-67h-4q-40 0 -68 28t-28 68zM515 1212l-146 -146l-147 147l146 146z" />
    <glyph glyph-name="uni062E.fina" unicode="&#x62e;" horiz-adv-x="1477" arabic-form="final" 
d="M1491 192v-192h-80q-85 0 -144 17t-98 47t-61 71t-32.5 90t-13 103t-2.5 110q-152 -13 -273.5 -42.5t-214.5 -71t-159.5 -92.5t-109 -106t-62.5 -112.5t-20 -112.5q0 -78 40 -154.5t121 -136.5t204 -97t290 -37q94 0 172.5 7t141.5 17.5t110 21.5t77 19q27 7 33.5 -1
t-10.5 -26q-23 -26 -66 -63.5t-111.5 -72t-166 -59t-229.5 -24.5q-170 0 -307.5 41t-231.5 118t-138.5 187.5t-27.5 250.5q6 54 24.5 117t54.5 128t93 129.5t142 121t200 101.5t268 73q-58 19 -115 44t-111.5 47t-106.5 37t-99 15q-54 0 -96.5 -20.5t-72.5 -43.5
q-17 -15 -33 -30.5t-31 -33.5q-12 -18 -27 -26t-26 -5t-15 18.5t6 43.5q25 70 57.5 126t71.5 96t85 61.5t98 21.5q53 0 115 -19.5t131 -48.5t145.5 -63.5t160.5 -64.5t174.5 -51t187.5 -24q28 0 30 -8.5t-3 -19.5l-94 -164q-47 0 -91.5 -1.5t-87.5 -3.5q1 -64 10.5 -111.5
t36.5 -79t76.5 -47t130.5 -15.5h80zM651 1227l-146 -146l-147 147l146 146z" />
    <glyph glyph-name="uni0630" unicode="&#x630;" horiz-adv-x="958" arabic-form="isolated" 
d="M293 892l51 89q20 34 39 61t30 27q3 0 38 -25.5t85 -71.5t107.5 -110t106.5 -141t81.5 -164.5t32.5 -180.5q0 -116 -39.5 -190t-106 -116.5t-153 -59t-179.5 -16.5q-74 0 -126 19t-86 47.5t-52.5 62.5t-26 63.5t-6 50t6.5 23.5q8 4 21.5 -6.5t43.5 -25t82.5 -27
t139.5 -12.5q50 0 107.5 1t110 10t93 29t57.5 59q17 41 6.5 88t-39 97t-71.5 100.5t-90 97.5q-56 55 -121 110t-143 111zM528 1342l-146 -146l-147 147l146 146z" />
    <glyph glyph-name="uni0630.fina" unicode="&#x630;" horiz-adv-x="1046" arabic-form="final" 
d="M867 326q19 -50 49.5 -78t62.5 -41q18 -5 37 -10t39 -5v-192q-54 0 -95 17t-71.5 43.5t-52.5 59t-39 63.5q-27 -59 -71 -95.5t-98.5 -57.5t-116.5 -28.5t-125 -7.5q-74 0 -125.5 19t-85.5 47.5t-53 62.5t-26.5 63.5t-6.5 50t7 23.5q8 4 21.5 -7t44 -25.5t83 -27.5
t138.5 -13q50 0 107.5 1t110 10t93 29t57.5 59q-11 25 -28 64.5t-38.5 88t-45.5 102t-48 106.5l-117 258l51 87q20 34 39 61t30 27q70 -192 127 -350q24 -68 48 -134.5t44.5 -122t34.5 -95t19 -52.5zM734 1343l-146 -146l-147 147l146 146z" />
    <glyph glyph-name="uni0688" unicode="&#x688;" horiz-adv-x="962" arabic-form="isolated" 
d="M301 892l51 89q20 34 39 61t30 27q3 0 38 -25.5t85 -71.5t107.5 -110t106.5 -141t81.5 -164.5t32.5 -180.5q0 -116 -39.5 -190t-106 -116.5t-153 -59t-179.5 -16.5q-74 0 -126 19t-86 47.5t-52.5 62.5t-26 63.5t-6 50t6.5 23.5q8 4 21.5 -6.5t43.5 -25t82.5 -27
t139.5 -12.5q50 0 107.5 1t110 10t93 29t57.5 59q17 41 6.5 88t-39 97t-71.5 100.5t-90 97.5q-56 55 -121 110t-143 111zM624 1601q50 0 81 -15t48 -38t22 -51t4 -55t-6 -49t-9 -33q-14 -35 -37 -72t-62.5 -68.5t-99.5 -51.5t-147 -20q-72 0 -123 3t-91 10q-14 2 -23.5 3
t-15.5 3l-11 4q-47 13 -69 36.5t-34 55.5q-3 8 0 13t12 3q31 -8 74 -12.5t91 -7.5q4 4 10.5 12t12 15.5t10 13.5t5.5 7q7 10 11.5 25t7 31t3.5 31t1 26v22q-1 60 -3 98.5t-5 66t-6 49.5t-6 49q-4 32 -7 57.5t-6 45.5q10 13 19.5 23t17.5 18q17 15 31 26.5t19 9.5q1 -2 1 -5
t1 -7q1 -2 1 -7l7 -114q1 -26 2 -45t1 -39.5v-46.5v-66q0 -10 -0.5 -29.5t-2.5 -43t-8 -49t-16 -46.5q31 37 68 75t75 69t77 50.5t75 19.5zM724 1373q4 10 3 30.5t-12.5 41t-37.5 34.5t-72 12q-59 -3 -111 -31.5t-94.5 -66t-74 -76.5t-49.5 -61q16 -2 39 -3q38 -3 110 -3
q90 0 146 15.5t88.5 36t46 41t18.5 30.5z" />
    <glyph glyph-name="uni0688.fina" unicode="&#x688;" horiz-adv-x="1051" arabic-form="final" 
d="M867 326q19 -50 49.5 -78t62.5 -41q18 -5 37 -10t39 -5v-192q-54 0 -95 17t-71.5 43.5t-52.5 59t-39 63.5q-27 -59 -71 -95.5t-98.5 -57.5t-116.5 -28.5t-125 -7.5q-74 0 -125.5 19t-85.5 47.5t-53 62.5t-26.5 63.5t-6.5 50t7 23.5q8 4 21.5 -7t44 -25.5t83 -27.5
t138.5 -13q50 0 107.5 1t110 10t93 29t57.5 59q-11 25 -28 64.5t-38.5 88t-45.5 102t-48 106.5l-117 258l51 87q20 34 39 61t30 27q70 -192 127 -350q24 -68 48 -134.5t44.5 -122t34.5 -95t19 -52.5zM656 1601q50 0 81 -15t48 -38t22 -51t4 -55t-6 -49t-9 -33
q-14 -35 -37 -72t-62.5 -68.5t-99.5 -51.5t-147 -20q-72 0 -123 3t-91 10q-14 2 -23.5 3t-15.5 3l-11 4q-47 13 -69 36.5t-34 55.5q-3 8 0 13t12 3q31 -8 74 -12.5t91 -7.5q4 4 10.5 12t12 15.5t10 13.5t5.5 7q7 10 11.5 25t7 31t3.5 31t1 26v22q-1 60 -3 98.5t-5 66
t-6 49.5t-6 49q-4 32 -7 57.5t-6 45.5q10 13 19.5 23t17.5 18q17 15 31 26.5t19 9.5q1 -2 1 -5t1 -7q1 -2 1 -7l7 -114q1 -26 2 -45t1 -39.5v-46.5v-66q0 -10 -0.5 -29.5t-2.5 -43t-8 -49t-16 -46.5q31 37 68 75t75 69t77 50.5t75 19.5zM756 1373q4 10 3 30.5t-12.5 41
t-37.5 34.5t-72 12q-59 -3 -111 -31.5t-94.5 -66t-74 -76.5t-49.5 -61q16 -2 39 -3q38 -3 110 -3q90 0 146 15.5t88.5 36t46 41t18.5 30.5z" />
    <glyph glyph-name="uni0632" unicode="&#x632;" horiz-adv-x="813" arabic-form="isolated" 
d="M564 642q5 0 18 -22.5t29.5 -62.5t33 -95t28.5 -119t17.5 -134.5t-0.5 -142.5q-7 -89 -38 -173.5t-76 -159.5t-99.5 -137.5t-107 -107.5t-98.5 -70t-75 -25q-23 0 -57 15t-67 35.5t-59.5 42t-34.5 33.5q-7 9 -1.5 20.5t19.5 11.5q63 0 132 25.5t136 68t127.5 96.5
t106.5 111t73 112.5t27 99.5q0 32 -9 70t-23.5 77.5t-32.5 78t-35 71t-32 56.5t-24 34q16 31 35 64.5t36.5 61.5t31 46.5t19.5 18.5zM665 1003l-146 -146l-147 147l146 146z" />
    <glyph glyph-name="uni0632.fina" unicode="&#x632;" horiz-adv-x="952" arabic-form="final" 
d="M585 583q5 0 14 -16.5t21.5 -44t28.5 -63t36 -72.5q21 -37 46.5 -72t59 -62.5t75.5 -44t95 -16.5v-192q-69 0 -114 10t-75 26t-49 37t-35 44q0 -107 -29 -202t-75 -175.5t-102.5 -145t-112 -109t-103.5 -68.5t-76 -24q-19 0 -51.5 15t-66 36t-60.5 42.5t-36 33.5
q-7 11 -2 21.5t22 10.5q68 0 139 27t138 71t126.5 99.5t103.5 112t70 109t26 90.5q0 43 -16 92t-38 94.5t-45 84t-36 59.5q15 31 33 65t35.5 62t31.5 46.5t21 18.5zM704 1003l-146 -146l-147 147l146 146z" />
    <glyph glyph-name="uni0691" unicode="&#x691;" horiz-adv-x="792" arabic-form="isolated" 
d="M564 642q5 0 18 -22.5t29.5 -62.5t33 -95t28.5 -119t17.5 -134.5t-0.5 -142.5q-7 -89 -38 -173.5t-76 -159.5t-99.5 -137.5t-107 -107.5t-98.5 -70t-75 -25q-23 0 -57 15t-67 35.5t-59.5 42t-34.5 33.5q-7 9 -1.5 20.5t19.5 11.5q63 0 132 25.5t136 68t127.5 96.5
t106.5 111t73 112.5t27 99.5q0 32 -9 70t-23.5 77.5t-32.5 78t-35 71t-32 56.5t-24 34q16 31 35 64.5t36.5 61.5t31 46.5t19.5 18.5zM575 1217q50 0 81 -15t48 -38t22 -51t4 -55t-6 -49t-9 -33q-14 -35 -37 -72t-62.5 -68.5t-99.5 -51.5t-147 -20q-72 0 -123 3t-91 10
q-14 2 -23.5 3t-15.5 3l-11 4q-47 13 -69 36.5t-34 55.5q-3 8 0 13t12 3q31 -8 74 -12.5t91 -7.5q4 4 10.5 12t12 15.5t10 13.5t5.5 7q7 10 11.5 25t7 31t3.5 31t1 26v22q-1 60 -3 98.5t-5 66t-6 49.5t-6 49q-4 32 -7 57.5t-6 45.5q10 13 19.5 23t17.5 18q17 15 31 26.5
t19 9.5q1 -2 1 -5t1 -7q1 -2 1 -7l7 -114q1 -26 2 -45t1 -39.5v-46.5v-66q0 -10 -0.5 -29.5t-2.5 -43t-8 -49t-16 -46.5q31 37 68 75t75 69t77 50.5t75 19.5zM675 989q4 10 3 30.5t-12.5 41t-37.5 34.5t-72 12q-59 -3 -111 -31.5t-94.5 -66t-74 -76.5t-49.5 -61q16 -2 39 -3
q38 -3 110 -3q90 0 146 15.5t88.5 36t46 41t18.5 30.5z" />
    <glyph glyph-name="uni0691.fina" unicode="&#x691;" horiz-adv-x="940" arabic-form="final" 
d="M585 583q5 0 14 -16.5t21.5 -44t28.5 -63t36 -72.5q21 -37 46.5 -72t59 -62.5t75.5 -44t95 -16.5v-192q-69 0 -114 10t-75 26t-49 37t-35 44q0 -107 -29 -202t-75 -175.5t-102.5 -145t-112 -109t-103.5 -68.5t-76 -24q-19 0 -51.5 15t-66 36t-60.5 42.5t-36 33.5
q-7 11 -2 21.5t22 10.5q68 0 139 27t138 71t126.5 99.5t103.5 112t70 109t26 90.5q0 43 -16 92t-38 94.5t-45 84t-36 59.5q15 31 33 65t35.5 62t31.5 46.5t21 18.5zM589 1286q50 0 81 -15t48 -38t22 -51t4 -55t-6 -49t-9 -33q-14 -35 -37 -72t-62.5 -68.5t-99.5 -51.5
t-147 -20q-72 0 -123 3t-91 10q-14 2 -23.5 3t-15.5 3l-11 4q-47 13 -69 36.5t-34 55.5q-3 8 0 13t12 3q31 -8 74 -12.5t91 -7.5q4 4 10.5 12t12 15.5t10 13.5t5.5 7q7 10 11.5 25t7 31t3.5 31t1 26v22q-1 60 -3 98.5t-5 66t-6 49.5t-6 49q-4 32 -7 57.5t-6 45.5
q10 13 19.5 23t17.5 18q17 15 31 26.5t19 9.5q1 -2 1 -5t1 -7q1 -2 1 -7l7 -114q1 -26 2 -45t1 -39.5v-46.5v-66q0 -10 -0.5 -29.5t-2.5 -43t-8 -49t-16 -46.5q31 37 68 75t75 69t77 50.5t75 19.5zM689 1058q4 10 3 30.5t-12.5 41t-37.5 34.5t-72 12q-59 -3 -111 -31.5
t-94.5 -66t-74 -76.5t-49.5 -61q16 -2 39 -3q38 -3 110 -3q90 0 146 15.5t88.5 36t46 41t18.5 30.5z" />
    <glyph glyph-name="uni0698" unicode="&#x698;" horiz-adv-x="845" arabic-form="isolated" 
d="M564 642q5 0 18 -22.5t29.5 -62.5t33 -95t28.5 -119t17.5 -134.5t-0.5 -142.5q-7 -89 -38 -173.5t-76 -159.5t-99.5 -137.5t-107 -107.5t-98.5 -70t-75 -25q-23 0 -57 15t-67 35.5t-59.5 42t-34.5 33.5q-7 9 -1.5 20.5t19.5 11.5q63 0 132 25.5t136 68t127.5 96.5
t106.5 111t73 112.5t27 99.5q0 32 -9 70t-23.5 77.5t-32.5 78t-35 71t-32 56.5t-24 34q16 31 35 64.5t36.5 61.5t31 46.5t19.5 18.5zM375 785l-138 139l137 139l140 -140zM683 785l-140 139l139 139l138 -140zM665 1138l-131 -131l-132 132l131 131z" />
    <glyph glyph-name="uni0698.fina" unicode="&#x698;" horiz-adv-x="940" arabic-form="final" 
d="M585 583q5 0 14 -16.5t21.5 -44t28.5 -63t36 -72.5q21 -37 46.5 -72t59 -62.5t75.5 -44t95 -16.5v-192q-69 0 -114 10t-75 26t-49 37t-35 44q0 -107 -29 -202t-75 -175.5t-102.5 -145t-112 -109t-103.5 -68.5t-76 -24q-19 0 -51.5 15t-66 36t-60.5 42.5t-36 33.5
q-7 11 -2 21.5t22 10.5q68 0 139 27t138 71t126.5 99.5t103.5 112t70 109t26 90.5q0 43 -16 92t-38 94.5t-45 84t-36 59.5q15 31 33 65t35.5 62t31.5 46.5t21 18.5zM406 788l-138 139l137 139l140 -140zM714 788l-140 139l139 139l138 -140zM696 1141l-131 -131l-132 132
l131 131z" />
    <glyph glyph-name="uni0634" unicode="&#x634;" horiz-adv-x="2522" arabic-form="isolated" 
d="M2357 869q5 0 16 -21t24.5 -57.5t27.5 -84t24 -101t14.5 -109t-0.5 -106.5q-9 -97 -39 -170t-74 -122t-98.5 -73.5t-112.5 -24.5q-40 0 -73.5 10.5t-61 27.5t-49 39t-37.5 45q-18 26 -32.5 56.5t-24.5 65.5q-8 -35 -22 -65.5t-32 -56.5q-15 -23 -37 -44.5t-50.5 -38.5
t-64 -27.5t-78.5 -10.5q-72 0 -115.5 17.5t-68.5 40.5q-27 24 -41 59q1 -26 2 -56t-2 -59q-11 -134 -59 -246t-135 -192t-213.5 -124.5t-293.5 -42.5q-82 0 -164 23.5t-152 71t-122 119.5t-74.5 168.5t-10 218t72.5 267.5q9 21 19.5 48t22 54.5t24 52.5t25 41.5t25 21.5
t23.5 -7q10 -10 8 -23t-11 -36t-24.5 -60t-32.5 -95q-18 -63 -30.5 -133.5t-11.5 -140t21 -134t67.5 -116t126 -85.5t198.5 -43q128 -10 237.5 18t190 89.5t126 154.5t45.5 212q-4 72 -20.5 131.5t-37 106t-41 78.5t-32.5 48q16 30 34.5 63.5t35.5 62t31 47t21 18.5
q5 0 17.5 -33t32.5 -83t47 -107.5t62.5 -107.5t79 -83t95.5 -33q55 0 94.5 32.5t67 83t45 113t29.5 122.5q3 14 8 28.5t11 26t14 19t19 7.5q20 0 30 -27t10 -65q0 -27 6.5 -62.5t19.5 -73t33 -74.5t46 -66t58.5 -47t71.5 -18q28 0 64 3.5t69.5 22t59 58.5t31.5 112
q4 48 -15 98t-45 93q-15 25 -32 49t-36 49l51 96q10 18 20.5 35t20 30.5t17.5 22t14 8.5zM1695 846l-138 139l137 139l140 -140zM2003 846l-140 139l139 139l138 -140zM1985 1199l-131 -131l-132 132l131 131z" />
    <glyph glyph-name="uni0634.init" unicode="&#x634;" horiz-adv-x="1492" arabic-form="initial" 
d="M1296 868q5 0 16 -21t24 -57.5t26.5 -84t23.5 -101t15 -109t1 -107.5q-9 -96 -39 -168.5t-74 -121.5t-99 -73.5t-113 -24.5q-115 0 -181.5 64t-67.5 179q-27 -76 -58.5 -123.5t-66.5 -74t-74.5 -36t-84.5 -9.5q-78 0 -130 48.5t-72 143.5q-5 19 -7 38.5t-2 39.5
q-9 -20 -18.5 -39.5t-18.5 -38.5q-23 -44 -49.5 -79.5t-61.5 -60.5t-81 -38.5t-108 -13.5v192q73 0 125.5 27t91.5 72.5t67.5 106t53.5 128.5q5 13 12 30.5t15.5 33.5t18.5 26t21 9q10 -2 14.5 -12.5t4.5 -27t-3.5 -36t-7.5 -38.5q-7 -30 -9.5 -65.5t1 -71t13 -68.5
t26 -58.5t41.5 -40.5t60 -15q73 0 119.5 31t78 81t54.5 113t49 127q5 13 11.5 28.5t14.5 28t17.5 20t21.5 4.5q19 -5 22 -29.5t-4 -62.5q-5 -26 -6.5 -61.5t2 -73.5t14 -74.5t29 -66t46.5 -47.5t67 -18q29 1 56 7.5t50 17.5q20 10 39.5 24t36 34.5t27.5 48t15 63.5
q4 48 -15 98.5t-45 94.5q-14 25 -31.5 49.5t-37.5 47.5l52 95q10 18 21 35t20.5 30.5t17.5 22t13 8.5zM724 844l-138 139l137 139l140 -140zM1032 844l-140 139l139 139l138 -140zM1014 1197l-131 -131l-132 132l131 131z" />
    <glyph glyph-name="uni0634.medi" unicode="&#x634;" horiz-adv-x="1597" arabic-form="medial" 
d="M1406 533q-2 -29 1 -65.5t11.5 -74.5t23 -74t37 -64.5t52.5 -45.5t70 -17v-192q-57 0 -103.5 16.5t-79 48t-50.5 76.5t-18 102q-27 -75 -57 -122.5t-64 -74.5t-73 -36.5t-83 -9.5q-116 0 -181.5 64t-67.5 179q-27 -75 -58 -122.5t-66.5 -74.5t-75 -36.5t-84.5 -9.5
q-78 0 -130 48.5t-72 143.5q-6 19 -7.5 38.5t-1.5 39.5q-9 -20 -18.5 -39.5t-17.5 -38.5q-24 -44 -50.5 -79.5t-61.5 -60.5t-81 -38.5t-108 -13.5v192q72 0 124.5 27t91.5 72.5t68 106.5t54 129q6 13 13 30.5t15.5 33t18 25.5t20.5 9q10 -2 14.5 -12.5t4.5 -27t-3 -36
t-7 -38.5q-7 -30 -9.5 -65.5t0.5 -71t12 -68.5t26 -58.5t42 -40.5t60 -15q73 0 119.5 31t78.5 81.5t55 113.5t49 127q5 13 11.5 28t14.5 27.5t17.5 20t21.5 4.5q18 -5 21 -29.5t-3 -62.5q-5 -26 -7 -61.5t1.5 -73.5t13.5 -74.5t28 -66t46 -47.5t67 -18q49 0 84 14.5t59 39.5
t40 59.5t28 73.5t21.5 81.5t21.5 84.5q4 15 8 29.5t8.5 26t12 18t19.5 6.5q12 1 19.5 -6t10.5 -20t3.5 -30t-0.5 -36zM722 790l-138 139l137 139l140 -140zM1030 790l-140 139l139 139l138 -140zM1012 1143l-131 -131l-132 132l131 131z" />
    <glyph glyph-name="uni0634.fina" unicode="&#x634;" horiz-adv-x="2655" arabic-form="final" 
d="M2472 534q-2 -29 1 -65.5t11.5 -74.5t23.5 -74.5t37 -64.5t52 -45.5t69 -17.5v-192q-115 0 -181.5 64.5t-68.5 179.5q-27 -76 -57 -123.5t-64.5 -74.5t-73 -36.5t-82.5 -9.5q-40 0 -73.5 10.5t-61 28t-49 39t-37.5 44.5q-18 27 -32.5 57.5t-24.5 64.5q-8 -34 -22 -64.5
t-32 -57.5q-15 -23 -36.5 -44.5t-50 -38t-64 -27t-78.5 -10.5q-74 0 -117 18t-68 41q-14 11 -24 25.5t-17 31.5q1 -26 2 -56t-2 -57q-11 -134 -59 -246t-135 -192.5t-213.5 -125t-293.5 -43.5q-82 0 -164 23.5t-152 71.5t-122 120t-74.5 168t-10 217.5t72.5 267.5
q9 21 19.5 48.5t22 55t24 52.5t25 41t25 21t23.5 -7q10 -10 8 -22.5t-11 -36t-24.5 -60t-32.5 -94.5q-18 -64 -30.5 -134t-11.5 -139.5t21 -134t67.5 -116t126 -86t198.5 -43.5q128 -10 237.5 18.5t190 90t126 154t45.5 212.5q-4 72 -20.5 131.5t-37 106t-41 78.5t-32.5 49
q16 30 35 63t36.5 61.5t31 47t19.5 18.5q5 0 17.5 -33t32.5 -82.5t47 -107.5t62.5 -107.5t79 -82.5t95.5 -33q56 0 96 32t67.5 83t44.5 113.5t29 122.5q2 14 6.5 28t10.5 25.5t15 19t20 7.5q19 0 29 -27t10 -65q0 -26 6.5 -61.5t19 -73.5t32 -75t45.5 -66t59 -47t73 -18
q49 0 83.5 14.5t59 39.5t40.5 59t28 73.5t21.5 82t21.5 84.5q4 15 7 29.5t8 26t13 18t20 6.5q13 0 20 -7t10 -19.5t3 -29.5t-1 -36zM1699 844l-138 139l137 139l140 -140zM2007 844l-140 139l139 139l138 -140zM1989 1197l-131 -131l-132 132l131 131z" />
    <glyph glyph-name="uni0636" unicode="&#x636;" horiz-adv-x="2566" arabic-form="isolated" 
d="M2278 808q82 -23 129.5 -62.5t69 -88.5t21.5 -104t-14 -111t-37.5 -108.5t-48.5 -95.5q-41 -72 -103 -121.5t-137 -80.5t-158.5 -45t-167.5 -15t-163.5 8t-146 25.5t-116 38t-73.5 43.5q2 -23 1 -41.5t-1 -47.5q0 -138 -45.5 -250.5t-133.5 -191.5t-216.5 -122
t-294.5 -41q-83 0 -164.5 23.5t-151.5 71t-122 119t-74.5 168t-9.5 218.5t72 269q9 21 19.5 48t22 54t24 52t25 41.5t25 21.5t23.5 -7q10 -10 8 -23t-11 -36t-24.5 -60t-32.5 -95q-18 -63 -30.5 -133.5t-11.5 -140t21 -134t67.5 -116t126.5 -85.5t198 -43
q128 -11 237.5 17.5t190 90t126 154.5t45.5 212q-4 72 -24 131.5t-45 106t-49 78.5l-36 48q15 30 34 63.5t36.5 62t32 47t21.5 18.5q8 0 17 -20.5t20 -54.5t25.5 -77t33.5 -88t44 -87.5t58 -75.5q25 33 64.5 78t89.5 96t107.5 104.5t119.5 102.5t126.5 90.5t127 68.5t122 37
t111.5 -5zM2403 404q8 30 -2 60.5t-34.5 57.5t-61.5 48.5t-83 33.5q-86 22 -169 5t-159 -57.5t-142 -95.5t-117.5 -108t-85 -96.5t-45.5 -59.5q157 -22 282.5 -24.5t222.5 9t167.5 35.5t118 54.5t73.5 66.5t35 71zM2256 1158l-146 -146l-147 147l146 146z" />
    <glyph glyph-name="uni0636.init" unicode="&#x636;" horiz-adv-x="1564" arabic-form="initial" 
d="M-106 96q0 40 28 68t68 28h1q73 0 124 27t87.5 72.5t63 106t51.5 128.5q5 13 12 30.5t16 33.5t19 26t21 9q10 -2 13.5 -12.5t3 -27t-3.5 -36t-6 -38.5q-13 -83 -1.5 -137.5t30.5 -86.5q20 -36 53 -58q22 34 64 92t98 125.5t123 136.5t139 125.5t147 92t146 35.5
q97 0 157 -28.5t92.5 -73t42.5 -99t7.5 -106t-12.5 -93.5t-18 -63q-18 -45 -40 -91t-53 -90t-75 -82.5t-106.5 -67.5t-146.5 -45.5t-196 -16.5q-150 0 -249 20t-158.5 57.5t-86.5 91.5t-33 121l-37 -78q-23 -44 -48 -79.5t-57 -60.5t-75.5 -38.5t-104.5 -13.5h-4
q-40 0 -68 28t-28 68zM1384 398q5 13 7 36t-3.5 49.5t-20.5 53t-42.5 47.5t-69 33t-101.5 9q-77 -4 -146 -29t-129.5 -62.5t-111.5 -83.5t-92 -91.5t-71.5 -87t-49.5 -69.5q54 -15 126.5 -23.5t170.5 -8.5q108 -1 188 12t138 34.5t96 48t61 52t34.5 47t15.5 33.5zM1275 1158
l-146 -146l-147 147l146 146z" />
    <glyph glyph-name="uni0636.medi" unicode="&#x636;" horiz-adv-x="1553" arabic-form="medial" 
d="M-103 96q0 40 28 68t68 28h2q73 0 125 27t89.5 73t65.5 106.5t53 127.5q5 13 12 30.5t15.5 33.5t18.5 26t21 9q10 -2 13.5 -12.5t3 -27t-3.5 -36t-5 -38.5q-13 -83 -1.5 -137.5t30.5 -86.5q20 -36 53 -58q22 34 64 92t97.5 125.5t122.5 136.5t139 125.5t147 92t146 35.5
q73 0 124.5 -16.5t86 -44t54 -64t28 -76t8 -79.5t-5.5 -75.5t-12.5 -63.5t-13.5 -44q-18 -45 -38.5 -90t-50.5 -88q28 -2 60.5 -2.5t59.5 -0.5h64v-192q-47 0 -101.5 0.5t-111 2t-113 5.5t-107.5 10q-56 -19 -124 -28.5t-154 -9.5q-151 0 -250 20t-158.5 57.5t-86.5 91.5
t-33 121q-8 -20 -17.5 -39.5t-18.5 -38.5q-24 -44 -49.5 -79.5t-59.5 -60.5t-79 -38.5t-107 -13.5h-2q-40 0 -68 28t-28 68zM564 203q55 -15 127.5 -23.5t170.5 -8.5q107 -1 187.5 12t138 34.5t95.5 48t61.5 52t35 47t15.5 33.5q5 13 7 36t-3.5 49.5t-20.5 53.5t-42.5 48
t-69 33t-101.5 10q-77 -4 -146.5 -29.5t-130 -63.5t-112 -84t-92.5 -92t-71.5 -87t-48.5 -69zM1297 1163l-146 -146l-147 147l146 146z" />
    <glyph glyph-name="uni0636.fina" unicode="&#x636;" horiz-adv-x="2533" arabic-form="final" 
d="M2542 193v-193h-28q-47 0 -83.5 12t-63.5 29.5t-45.5 37.5t-28.5 37q-37 -38 -92.5 -64t-123 -42t-142 -22.5t-149.5 -5t-146 10.5t-131 23t-105.5 33.5t-68.5 41.5q1 -23 0.5 -42t-0.5 -46q0 -138 -45.5 -250.5t-133.5 -192t-217 -122.5t-295 -42q-83 0 -164.5 23.5
t-151.5 71.5t-121.5 120t-74 168.5t-9.5 218.5t72 269q8 20 18.5 47t22 54.5t24 52t25.5 41t25 21.5t24 -7q10 -10 8 -23.5t-12 -36.5t-25 -60t-32 -94q-18 -64 -30.5 -134t-11.5 -139.5t21 -134t67.5 -115.5t126.5 -85.5t198 -43.5q128 -11 238 17.5t190.5 90t126 154.5
t45.5 212q-4 72 -24.5 132t-45.5 106t-49 78t-36 49q16 29 34.5 62.5t36 62t32 47t22.5 18.5t16.5 -20.5t20 -54.5t26 -77t34 -87.5t44 -87t56.5 -75.5q34 41 91 104t128.5 132.5t154 137.5t168 118t169.5 74t159 6q72 -18 118.5 -56t70 -87t26.5 -105t-12 -111
q-34 -121 -85 -206q20 -28 50 -39.5t65 -11.5h28zM1504 193q237 -33 402.5 -24.5t271.5 43.5t160 87t68 106q7 29 -3 59.5t-34.5 57.5t-61.5 48.5t-83 33.5q-64 16 -127.5 10t-123 -28t-115 -56t-105 -73.5t-91 -81t-74 -78t-54 -64.5t-30.5 -40zM2250 1169l-146 -146
l-147 147l146 146z" />
    <glyph glyph-name="uni0638" unicode="&#x638;" horiz-adv-x="1481" arabic-form="isolated" 
d="M1122 857q97 0 157 -28.5t92.5 -73t42.5 -98.5t7.5 -105.5t-12.5 -94.5t-18 -64q-19 -44 -44 -91.5t-62 -92.5t-87 -86t-118 -71.5t-155.5 -48.5t-199.5 -18q-138 0 -237.5 6t-174.5 18q-29 4 -47 7.5t-30 6.5l-20 6q-47 13 -79.5 31t-55 40.5t-37.5 49.5t-27 57
q-7 17 -1 26t21 6q62 -15 145.5 -24.5t177.5 -16.5q8 9 19.5 24.5t22 30.5t18.5 26t10 13q13 19 21 47.5t13 59.5t7 60.5t2 50.5v42q-3 230 -14.5 392t-21.5 266q-8 60 -15.5 110t-14.5 89q21 23 40 42l36 36q16 14 31 27t28 23t22.5 15t13.5 2q2 -3 2.5 -8t1.5 -13
q1 -5 1 -15l12 -219q5 -102 8 -237t1 -292q0 -20 -0.5 -57.5t-5.5 -83t-15.5 -94t-31.5 -90.5q61 72 132 145t145 132.5t149 97t145 37.5zM1314 419q5 13 7 36.5t-4 49.5t-20.5 53t-41.5 48t-69 33t-102 9q-76 -4 -146.5 -31t-133.5 -68t-117.5 -90.5t-99.5 -99t-79.5 -93
t-56.5 -72.5q16 -2 34 -3.5t40 -2.5q36 -3 90 -4t123 -1q115 0 201.5 14t148.5 36t103 49.5t66.5 53.5t38 48.5t18.5 34.5zM1242 1181l-146 -146l-147 147l146 146z" />
    <glyph glyph-name="uni0638.init" unicode="&#x638;" horiz-adv-x="1191" arabic-form="initial" 
d="M-115 96q0 40 28 68t68 28h102q5 8 17 24.5l24 33t21.5 29t10.5 13.5q12 19 20.5 47.5t13 59.5t6.5 60.5t2 51.5v41q-4 230 -15 392t-22 266q-7 61 -14.5 110.5t-14.5 88.5q20 23 39.5 42t37.5 36q15 14 30 27.5t27.5 23t22 14.5t13.5 2q5 -4 7 -20q1 -5 1 -8.5v-7.5
q3 -50 5.5 -104t5.5 -114q4 -103 7 -238.5t0 -292.5q0 -18 -0.5 -55.5t-5 -83.5t-15 -94.5t-31.5 -89.5q61 72 132 145t145 132.5t149 97t144 37.5q97 0 157 -28.5t92.5 -73t42.5 -99t7.5 -106t-12.5 -94t-18 -63.5q-17 -44 -38.5 -90.5t-53 -90t-76 -82.5t-107 -67.5
t-146.5 -45.5t-195 -17h-504q-4 -1 -14 -1q-40 0 -68 28t-28 68zM1040 420q5 13 6.5 36t-4 49.5t-20 53t-42 47.5t-69 33t-100.5 9q-77 -4 -147.5 -31t-133.5 -68t-118 -91t-100 -99.5t-79.5 -93t-56.5 -72.5q55 -1 139.5 -0.5t191.5 -0.5q108 0 188 13.5t137.5 35t95 48
t61 51.5t35 46.5t16.5 33.5zM954 1184l-146 -146l-147 147l146 146z" />
    <glyph glyph-name="uni0638.medi" unicode="&#x638;" horiz-adv-x="1241" arabic-form="medial" 
d="M-123 96q0 40 28 68t68 28h4h101q5 8 16.5 24.5t23.5 32.5t21.5 28.5t10.5 13.5q12 19 20.5 47.5t14 59.5t7.5 60.5t2 51.5v41q-4 230 -15 392t-22 266q-13 120 -30 199l77 78q14 14 29 27.5t27.5 23t22 14.5t13.5 2q5 -2 6 -7.5t2 -12.5v-16l12 -218q3 -103 6.5 -238.5
t1.5 -292.5q0 -18 -0.5 -55.5t-5 -83t-15.5 -94.5t-31 -90q60 72 131 145.5t145 132.5t149 96.5t143 37.5q97 0 157 -28.5t92.5 -73t43 -99t8.5 -106t-11.5 -94t-17.5 -63.5q-21 -51 -45.5 -101t-61.5 -97l188 -3h64v-192q-81 0 -142.5 1t-106.5 3q-38 1 -77 3t-74 5
t-64.5 7.5t-48.5 10.5q-54 -15 -115 -22.5t-136 -7.5h-516h-4q-40 0 -68 28t-28 68zM172 192q54 -1 138.5 -0.5t191.5 -0.5q108 0 188 13.5t137.5 34.5t95.5 47.5t61.5 51.5t34.5 47t16 34q5 13 7 36t-4 49.5t-20.5 53t-41.5 47.5t-69 33t-102 9q-77 -4 -147.5 -31
t-133.5 -68t-117.5 -91t-99.5 -99.5t-79 -93t-56 -72.5zM986 1181l-146 -146l-147 147l146 146z" />
    <glyph glyph-name="uni0638.fina" unicode="&#x638;" horiz-adv-x="1509" arabic-form="final" 
d="M1524 192v-192h-151t-109 1q-36 0 -75 1t-77 2.5t-72 4t-61 6.5q-54 -14 -118 -22.5t-136 -8.5q-138 0 -239 6t-176 18q-26 4 -44.5 7.5t-29.5 6.5l-21 6q-47 13 -79.5 31t-55 40.5t-37.5 49.5t-27 57q-7 17 -1.5 26t18.5 6q65 -15 149 -24.5t177 -16.5q8 9 19.5 24.5
t22.5 30.5t19 26t9 13q13 19 21 47.5t13 59.5t7 60.5t2 50.5v42q-5 230 -16 392t-24 266q-5 60 -12 110t-14 89q19 23 39 42t38 36q14 14 28.5 27t27.5 23t23 15t14 2q3 -3 3.5 -8t2.5 -13q1 -5 1 -15l12 -219q2 -102 6 -237t1 -292q0 -20 -0.5 -57.5t-5 -83t-15 -94
t-31.5 -90.5q61 72 132 145t145 132.5t148 97t143 37.5q97 0 157 -28.5t92.5 -73t42.5 -98.5t7.5 -105.5t-13 -94.5t-18.5 -64q-17 -48 -44.5 -98t-69.5 -101q19 -1 44.5 -1h63.5h144zM738 182q114 -1 200 12.5t148 36t103.5 50.5t67.5 54.5t38.5 49t17.5 33.5
q5 13 6.5 36.5t-4 49.5t-20.5 53t-42.5 48t-69 33t-100.5 9q-77 -4 -147 -31t-133 -68t-118 -90.5t-99.5 -99t-79 -93t-56.5 -72.5q16 -2 34.5 -3.5t39.5 -2.5q36 -3 88.5 -4t125.5 -1zM1240 1181l-146 -146l-147 147l146 146z" />
    <glyph glyph-name="uni063A" unicode="&#x63a;" horiz-adv-x="1186" arabic-form="isolated" 
d="M1195 -456q48 9 23 -28q-26 -37 -71.5 -75.5t-109.5 -70.5t-144 -52.5t-174 -20.5q-162 0 -284.5 37.5t-204.5 105t-123.5 162t-41.5 208.5q0 86 31 164t84 144.5t123 119.5t148 91q-39 19 -75.5 46t-65.5 61.5t-46.5 78t-17.5 96.5q0 37 17 83t46.5 94t69 93.5t84 81
t91 57t91.5 21.5q42 0 84.5 -9t83.5 -32t79.5 -62t72.5 -100q5 -10 5 -19t-6.5 -14t-21.5 -4t-40 11q-8 4 -25.5 11t-45.5 14t-67.5 12t-92.5 5q-55 0 -106.5 -20.5t-91.5 -50.5t-64 -65t-24 -63q0 -16 15 -40.5t42.5 -51t65.5 -51.5t84 -42t98.5 -22.5t108.5 6.5l97 22
q39 8 79 18t64 17q4 3 9 2.5t2 -11.5q-1 -4 -8.5 -30.5t-18.5 -56.5l-25 -80q-79 -17 -173 -37.5t-188.5 -48.5t-183 -66t-157 -90t-109.5 -119.5t-41 -155.5q0 -57 36 -117.5t111.5 -110t193 -81.5t280.5 -32q88 0 154.5 7.5t117 18t88 22t68.5 19.5zM814 1345l-146 -146
l-147 147l146 146z" />
    <glyph glyph-name="uni063A.init" unicode="&#x63a;" horiz-adv-x="985" arabic-form="initial" 
d="M-105 96q0 40 28 68t68 28h4q35 0 84.5 1t132.5 5q-59 42 -95.5 99t-36.5 138q0 36 17 82t46.5 93.5t69 93t83.5 81.5t90.5 57.5t90.5 21.5q43 0 85.5 -9t83 -32t78.5 -62t72 -99q5 -10 5.5 -19t-6.5 -14t-21.5 -4t-38.5 11q-8 4 -25.5 11t-45.5 14t-68 12t-93 5
q-54 0 -105.5 -20.5t-91 -50.5t-63.5 -64.5t-24 -62.5q0 -17 15 -44.5t43.5 -57.5t69.5 -58t93 -46t114.5 -22t133.5 16q84 23 134.5 43.5t73.5 32.5q9 3 10 -2q2 -1 2 -5l-67 -192q-46 -24 -97 -42.5t-105 -33.5h-2q-72 -20 -149.5 -33t-155 -21t-153 -11.5t-142.5 -3.5
h-42h-4q-40 0 -68 28t-28 68zM618 1219l-146 -146l-147 147l146 146z" />
    <glyph glyph-name="uni063A.medi" unicode="&#x63a;" horiz-adv-x="979" arabic-form="medial" 
d="M-104 96q0 40 28 68t68 28h119q55 0 95.5 1.5t73.5 6.5t62.5 13.5t63.5 21.5q-61 51 -112 95q-22 19 -44 37.5t-40.5 34.5t-33 28.5t-20.5 18.5q-34 27 -53 47t-27 37t-7.5 32.5t5.5 33.5q10 35 19 63q7 23 13 43t6 21q17 18 39.5 33.5t50.5 29.5q47 23 121.5 43
t184.5 20q70 0 136 -8t120.5 -25.5t94 -44.5t58.5 -65q17 -36 3.5 -90.5t-48.5 -117.5t-88.5 -131.5t-116.5 -132.5q33 -27 66 -35t71 -10h182v-192h-193q-42 0 -85.5 20t-79.5 46q-22 14 -42.5 30.5t-40.5 35.5q-41 -30 -82 -54t-91 -41.5t-112 -27t-145 -9.5h-119h-4
q-40 0 -68 28t-28 68zM228 611q9 -9 28 -26t44.5 -39.5t55 -48.5t59.5 -51q69 -60 151 -131q21 15 48 38.5t54 51.5t51.5 57.5t41.5 56.5t24 49t-2 35q-23 28 -81 48.5t-135.5 25.5t-166 -9.5t-172.5 -56.5zM653 1227l-146 -146l-147 147l146 146z" />
    <glyph glyph-name="uni063A.fina" unicode="&#x63a;" horiz-adv-x="1164" arabic-form="final" 
d="M1065 0q-72 0 -137 25t-122.5 62.5t-107.5 80t-93 77.5q-34 -9 -82 -29.5t-100.5 -50t-104.5 -68t-93.5 -83t-67 -94.5t-25.5 -104q0 -73 46 -135.5t128.5 -108t196.5 -71.5t250 -26q88 0 155 8t117.5 18.5t87.5 21.5t67 17q27 7 32.5 1t-9.5 -27q-24 -37 -69.5 -75.5
t-109.5 -70.5t-144.5 -52.5t-174.5 -20.5q-141 0 -261 30.5t-207 93.5t-136.5 159.5t-49.5 229.5q0 86 26 166t78 150.5t129.5 129t179.5 101.5q-19 16 -41 35t-43.5 37.5t-40 34.5t-30.5 25q-34 25 -53 45t-27.5 37.5t-8.5 33.5t6 33q6 22 13 45t13 41l9 30q4 12 18 27
q7 8 24 19t44 25q45 24 121.5 48t196.5 34q69 5 132 1.5t114.5 -17t89 -38t55.5 -61.5q7 -13 7 -47t-8 -80t-25.5 -99.5t-45.5 -105.5q-12 -19 -26.5 -37.5t-38 -36.5t-57.5 -36.5t-85 -38.5q22 -19 49 -39.5t65.5 -38t91.5 -28.5t125 -11h73v-192h-116zM378 649
q11 -11 28 -26t37 -32.5t42.5 -37t45.5 -38.5q26 -22 54 -45.5t58 -49.5q79 25 148.5 55.5t114.5 65t57.5 71.5t-24.5 75q-23 22 -84 31.5t-141.5 5t-169 -23t-166.5 -51.5zM792 1223l-146 -146l-147 147l146 146z" />
    <glyph glyph-name="uni06A9.init" unicode="&#x6a9;" horiz-adv-x="874" arabic-form="initial" 
d="M-114 96q0 40 28 68t68 28h4h314q28 1 52 7.5t47 17.5q19 9 38 23.5t34.5 35t26.5 48t15 64.5q8 66 -21.5 135.5t-79 134.5t-110 123.5t-114.5 103.5t-92.5 74t-43.5 36q-8 8 -3.5 35.5t11.5 59.5l22 79l425 191q79 35 156.5 69t139.5 60t102 41t43 12q2 -2 2 -10.5
t-2 -21.5t-5 -29.5t-7 -33.5l-23 -89l-635 -267q31 -37 70 -85t78.5 -104t76.5 -119t64 -128.5t41 -132.5t7 -132q-9 -97 -39 -170t-73.5 -122t-98 -73.5t-112.5 -24.5h-310q-40 0 -68 28t-28 68z" />
    <glyph glyph-name="uni06A9.medi" unicode="&#x6a9;" horiz-adv-x="1053" arabic-form="medial" 
d="M-113 96q0 40 28 68t68 28h235q46 1 87 7.5t77 17.5q31 9 61.5 23t55.5 34.5t41.5 48.5t20.5 64q6 50 -10 101.5t-46.5 102t-71.5 99t-84.5 91.5t-87 80t-78.5 65t-58.5 45.5t-27.5 22.5q-3 4 -3.5 13.5t1 22.5t4.5 28t7 31l24 79l423 191q80 36 157 69.5t138.5 59
t101 40t44.5 13.5q3 -1 2.5 -9.5t-2.5 -21.5t-5.5 -29.5t-7.5 -33.5q-5 -21 -10 -43.5t-12 -46.5l-633 -267q5 -6 24.5 -30t49 -62t66.5 -90t76 -114q24 -42 54.5 -102.5t67 -127.5t78.5 -133.5t91 -119.5t105 -86t118 -33h4v-192h-4q-59 0 -115.5 28.5t-107.5 74t-97 103.5
t-84 117q-30 -161 -145.5 -242t-296.5 -81h-227q-40 0 -68 28t-28 68z" />
    <glyph glyph-name="uni0641" unicode="&#x641;" horiz-adv-x="1770" arabic-form="isolated" 
d="M1706 513q3 -26 2.5 -51.5t-2.5 -48.5q-9 -97 -52 -166.5t-110 -116.5t-154 -75t-183 -42.5t-197 -19t-197 -4.5q-59 0 -130.5 2.5t-145.5 12.5t-146.5 31t-133 58t-104 93.5t-60.5 137.5t-2.5 189t70.5 250q5 16 15.5 21t20 1.5t15 -14.5t-0.5 -26q-38 -102 -42 -180.5
t17 -137.5t62.5 -100t96 -68t117 -42.5t125.5 -23t121.5 -9.5t104.5 -2q82 0 170.5 2.5t173.5 10t163 21.5t139.5 37.5t102.5 58.5t53 83l-15 -8q-22 -9 -80 -22.5t-152 -13.5q-60 0 -104.5 12.5t-77 33t-54 47t-34 55t-17.5 56.5t-5 52q0 85 23.5 160t64 130.5t95 88
t116.5 32.5q54 0 99 -22.5t81 -60.5t63 -88.5t46 -106.5t29 -114.5t13 -112.5zM1588 569l12 8q-23 72 -56 130q-14 24 -33.5 47.5t-43.5 42t-53.5 30t-63.5 11.5q-49 0 -85 -16.5t-59 -42t-34.5 -55.5t-11.5 -57q0 -41 15 -67t42.5 -40.5t67 -20t87.5 -5.5q96 0 147.5 13
t68.5 22zM1488 1360l-146 -146l-147 147l146 146z" />
    <glyph glyph-name="uni0641.init" unicode="&#x641;" horiz-adv-x="829" arabic-form="initial" 
d="M-99 96q0 40 28 68t68 28h4h289q82 0 147.5 13.5t112 39t72.5 62t30 81.5l-15 -8q-20 -9 -78.5 -22.5t-151.5 -13.5q-90 0 -147 26.5t-89.5 65.5t-45 83.5t-12.5 80.5q0 85 23.5 160t64 130.5t95.5 88t117 32.5q54 0 99 -22.5t81 -60.5t63.5 -88.5t46.5 -106.5
t29.5 -114.5t13.5 -112.5q6 -137 -32 -233t-107.5 -156.5t-164 -88.5t-199.5 -28h-242h-4q-40 0 -68 28t-28 68zM625 563l12 7q-11 36 -25 68.5t-31 61.5q-14 24 -33.5 47.5t-43.5 42t-53.5 30t-63.5 11.5q-49 0 -85 -16.5t-59 -42t-34.5 -55.5t-11.5 -57q0 -41 15 -67
t43 -40.5t68 -20t89 -5.5q95 0 145.5 13t67.5 23zM519 1364l-146 -146l-147 147l146 146z" />
    <glyph glyph-name="uni0641.medi" unicode="&#x641;" horiz-adv-x="868" arabic-form="medial" 
d="M-99 96q0 40 28 68t68 28h4h140q26 0 57 -1t60 6q-14 15 -33 33t-37 43.5t-30.5 60.5t-12.5 84q0 39 9 88t26 99t42.5 97.5t59 84t74 59t88.5 22.5q49 0 88 -20t69 -53.5t51.5 -77t35 -90.5t19.5 -94.5t6 -89.5q0 -51 -9.5 -87t-24.5 -64t-33.5 -49.5t-35.5 -42.5
q29 -7 55 -7.5t52 -0.5h166v-192h-175q-48 0 -96.5 9t-88.5 21q-23 7 -45.5 14.5t-44.5 16.5q-32 -17 -75 -31q-35 -12 -80 -21t-99 -9h-178h-4q-40 0 -68 28t-28 68zM524 317q16 12 31 26.5t27 31.5t19 36.5t7 40.5q0 35 -17 73t-44.5 69.5t-63.5 52t-74 20.5
q-39 0 -73.5 -15.5t-60 -43t-40.5 -66t-15 -83.5q0 -23 9.5 -43.5t25 -38.5t35.5 -33t41 -27q24 -15 51.5 -27.5t58.5 -23.5q23 11 44 23.5t39 27.5zM583 1230l-146 -146l-147 147l146 146z" />
    <glyph glyph-name="uni0641.fina" unicode="&#x641;" horiz-adv-x="1859" arabic-form="final" 
d="M1740 192h133v-192h-142q-48 0 -96.5 9.5t-90.5 21.5q-25 7 -47 15.5t-45 17.5q-66 -26 -141 -42t-154 -25t-160 -12t-159 -3q-59 0 -130 2t-145 12.5t-146.5 31t-133 57.5t-104 93.5t-60.5 137.5t-2.5 189t70.5 250q7 16 17.5 21t19.5 1t13.5 -14.5t-0.5 -25.5
q-38 -102 -42 -180.5t17 -137.5t63 -100t96 -68t116.5 -42.5t125.5 -23t121 -9.5t104 -2q53 0 111 0.5t115.5 3.5t112 8.5t100.5 16.5q-14 15 -32.5 32t-35.5 41t-29 58t-12 84q0 39 9 88t26 99t42.5 97.5t59 84t74 59t88.5 22.5q49 0 88.5 -20t69.5 -53t51 -76.5t34.5 -91
t19.5 -95t6 -89.5q0 -51 -9.5 -87t-24.5 -64t-33 -49.5t-35 -42.5q30 -7 55 -7.5t51 -0.5zM1465 266q23 11 43.5 24t39.5 27q31 25 57 58.5t26 76.5q0 35 -16.5 73t-44.5 69.5t-63.5 52t-74.5 20.5t-73.5 -15.5t-60 -43t-40 -66t-14.5 -83.5q0 -23 9 -43.5t24.5 -38
t35.5 -33t41 -27.5q25 -14 52 -27t59 -24zM1605 1240l-146 -146l-147 147l146 146z" />
    <glyph glyph-name="veh.isol" unicode="&#x6a4;" horiz-adv-x="1787" arabic-form="isolated" 
d="M1706 513q3 -26 2.5 -51.5t-2.5 -48.5q-9 -97 -52 -166.5t-110 -116.5t-154 -75t-183 -42.5t-197 -19t-197 -4.5q-59 0 -130.5 2.5t-145.5 12.5t-146.5 31t-133 58t-104 93.5t-60.5 137.5t-2.5 189t70.5 250q5 16 15.5 21t20 1.5t15 -14.5t-0.5 -26q-38 -102 -42 -180.5
t17 -137.5t62.5 -100t96 -68t117 -42.5t125.5 -23t121.5 -9.5t104.5 -2q82 0 170.5 2.5t173.5 10t163 21.5t139.5 37.5t102.5 58.5t53 83l-15 -8q-22 -9 -80 -22.5t-152 -13.5q-60 0 -104.5 12.5t-77 33t-54 47t-34 55t-17.5 56.5t-5 52q0 85 23.5 160t64 130.5t95 88
t116.5 32.5q54 0 99 -22.5t81 -60.5t63 -88.5t46 -106.5t29 -114.5t13 -112.5zM1588 569l12 8q-23 72 -56 130q-14 24 -33.5 47.5t-43.5 42t-53.5 30t-63.5 11.5q-49 0 -85 -16.5t-59 -42t-34.5 -55.5t-11.5 -57q0 -41 15 -67t42.5 -40.5t67 -20t87.5 -5.5q96 0 147.5 13
t68.5 22zM1213 1224l-138 139l137 139l140 -140zM1521 1224l-140 139l139 139l138 -140zM1503 1577l-131 -131l-132 132l131 131z" />
    <glyph glyph-name="veh.init" unicode="&#x6a4;" horiz-adv-x="807" arabic-form="initial" 
d="M-99 96q0 40 28 68t68 28h4h289q82 0 147.5 13.5t112 39t72.5 62t30 81.5l-15 -8q-20 -9 -78.5 -22.5t-151.5 -13.5q-90 0 -147 26.5t-89.5 65.5t-45 83.5t-12.5 80.5q0 85 23.5 160t64 130.5t95.5 88t117 32.5q54 0 99 -22.5t81 -60.5t63.5 -88.5t46.5 -106.5
t29.5 -114.5t13.5 -112.5q6 -137 -32 -233t-107.5 -156.5t-164 -88.5t-199.5 -28h-242h-4q-40 0 -68 28t-28 68zM625 563l12 7q-11 36 -25 68.5t-31 61.5q-14 24 -33.5 47.5t-43.5 42t-53.5 30t-63.5 11.5q-49 0 -85 -16.5t-59 -42t-34.5 -55.5t-11.5 -57q0 -41 15 -67
t43 -40.5t68 -20t89 -5.5q95 0 145.5 13t67.5 23zM256 1138l-138 139l137 139l140 -140zM564 1138l-140 139l139 139l138 -140zM546 1491l-131 -131l-132 132l131 131z" />
    <glyph glyph-name="veh.medi" unicode="&#x6a4;" horiz-adv-x="869" arabic-form="medial" 
d="M-99 96q0 40 28 68t68 28h4h140q26 0 57 -1t60 6q-14 15 -33 33t-37 43.5t-30.5 60.5t-12.5 84q0 39 9 88t26 99t42.5 97.5t59 84t74 59t88.5 22.5q49 0 88 -20t69 -53.5t51.5 -77t35 -90.5t19.5 -94.5t6 -89.5q0 -51 -9.5 -87t-24.5 -64t-33.5 -49.5t-35.5 -42.5
q29 -7 55 -7.5t52 -0.5h166v-192h-175q-48 0 -96.5 9t-88.5 21q-23 7 -45.5 14.5t-44.5 16.5q-32 -17 -75 -31q-35 -12 -80 -21t-99 -9h-178h-4q-40 0 -68 28t-28 68zM524 317q16 12 31 26.5t27 31.5t19 36.5t7 40.5q0 35 -17 73t-44.5 69.5t-63.5 52t-74 20.5
q-39 0 -73.5 -15.5t-60 -43t-40.5 -66t-15 -83.5q0 -23 9.5 -43.5t25 -38.5t35.5 -33t41 -27q24 -15 51.5 -27.5t58.5 -23.5q23 11 44 23.5t39 27.5zM289 1003l-138 139l137 139l140 -140zM597 1003l-140 139l139 139l138 -140zM579 1356l-131 -131l-132 132l131 131z" />
    <glyph glyph-name="veh.fina" unicode="&#x6a4;" horiz-adv-x="1855" arabic-form="final" 
d="M1740 192h133v-192h-142q-48 0 -96.5 9.5t-90.5 21.5q-25 7 -47 15.5t-45 17.5q-66 -26 -141 -42t-154 -25t-160 -12t-159 -3q-59 0 -130 2t-145 12.5t-146.5 31t-133 57.5t-104 93.5t-60.5 137.5t-2.5 189t70.5 250q7 16 17.5 21t19.5 1t13.5 -14.5t-0.5 -25.5
q-38 -102 -42 -180.5t17 -137.5t63 -100t96 -68t116.5 -42.5t125.5 -23t121 -9.5t104 -2q53 0 111 0.5t115.5 3.5t112 8.5t100.5 16.5q-14 15 -32.5 32t-35.5 41t-29 58t-12 84q0 39 9 88t26 99t42.5 97.5t59 84t74 59t88.5 22.5q49 0 88.5 -20t69.5 -53t51 -76.5t34.5 -91
t19.5 -95t6 -89.5q0 -51 -9.5 -87t-24.5 -64t-33 -49.5t-35 -42.5q30 -7 55 -7.5t51 -0.5zM1465 266q23 11 43.5 24t39.5 27q31 25 57 58.5t26 76.5q0 35 -16.5 73t-44.5 69.5t-63.5 52t-74.5 20.5t-73.5 -15.5t-60 -43t-40 -66t-14.5 -83.5q0 -23 9 -43.5t24.5 -38
t35.5 -33t41 -27.5q25 -14 52 -27t59 -24zM1302 966l-138 139l137 139l140 -140zM1610 966l-140 139l139 139l138 -140zM1592 1319l-131 -131l-132 132l131 131z" />
    <glyph glyph-name="uni0642.init" unicode="&#x642;" horiz-adv-x="835" arabic-form="initial" 
d="M-99 96q0 40 28 68t68 28h4h289q82 0 147.5 13.5t112 39t72.5 62t30 81.5l-15 -8q-20 -9 -78.5 -22.5t-151.5 -13.5q-90 0 -147 26.5t-89.5 65.5t-45 83.5t-12.5 80.5q0 85 23.5 160t64 130.5t95.5 88t117 32.5q54 0 99 -22.5t81 -60.5t63.5 -88.5t46.5 -106.5
t29.5 -114.5t13.5 -112.5q6 -137 -32 -233t-107.5 -156.5t-164 -88.5t-199.5 -28h-242h-4q-40 0 -68 28t-28 68zM625 563l12 7q-11 36 -25 68.5t-31 61.5q-14 24 -33.5 47.5t-43.5 42t-53.5 30t-63.5 11.5q-49 0 -85 -16.5t-59 -42t-34.5 -55.5t-11.5 -57q0 -41 15 -67
t43 -40.5t68 -20t89 -5.5q95 0 145.5 13t67.5 23zM245 1218l-138 139l137 139l140 -140zM527 1218l-140 139l139 139l138 -140z" />
    <glyph glyph-name="uni0642.medi" unicode="&#x642;" horiz-adv-x="868" arabic-form="medial" 
d="M-99 96q0 40 28 68t68 28h4h140q26 0 57 -1t60 6q-14 15 -33 33t-37 43.5t-30.5 60.5t-12.5 84q0 39 9 88t26 99t42.5 97.5t59 84t74 59t88.5 22.5q49 0 88 -20t69 -53.5t51.5 -77t35 -90.5t19.5 -94.5t6 -89.5q0 -51 -9.5 -87t-24.5 -64t-33.5 -49.5t-35.5 -42.5
q29 -7 55 -7.5t52 -0.5h166v-192h-175q-48 0 -96.5 9t-88.5 21q-23 7 -45.5 14.5t-44.5 16.5q-32 -17 -75 -31q-35 -12 -80 -21t-99 -9h-178h-4q-40 0 -68 28t-28 68zM524 317q16 12 31 26.5t27 31.5t19 36.5t7 40.5q0 35 -17 73t-44.5 69.5t-63.5 52t-74 20.5
q-39 0 -73.5 -15.5t-60 -43t-40.5 -66t-15 -83.5q0 -23 9.5 -43.5t25 -38.5t35.5 -33t41 -27q24 -15 51.5 -27.5t58.5 -23.5q23 11 44 23.5t39 27.5zM296 1090l-138 139l137 139l140 -140zM578 1090l-140 139l139 139l138 -140z" />
    <glyph glyph-name="uni0642" unicode="&#x642;" horiz-adv-x="1347" arabic-form="isolated" 
d="M956 788q72 0 124.5 -42.5t90 -109t61.5 -148t37.5 -159.5t18.5 -143.5t5 -99.5q0 -187 -50 -318t-141 -214t-219.5 -121t-285.5 -38q-82 0 -164 23.5t-152 71t-122 119t-74.5 168t-10 218.5t72.5 269q9 21 19.5 48t22.5 54t24.5 51.5t25 40.5t25 21t23.5 -6q10 -9 8 -22
t-11.5 -36t-24.5 -59.5t-32 -94.5q-18 -63 -31 -133.5t-11.5 -140t21 -134t67 -116t126.5 -85.5t198 -43q122 -11 226 13.5t182 80t125.5 140t56.5 192.5q-7 -2 -29.5 -8.5t-54.5 -13.5t-70.5 -12.5t-77.5 -5.5q-75 0 -133 17.5t-97.5 54.5t-59.5 95t-18 138q1 57 15 115.5
t37 113t53.5 101.5t64.5 82.5t70 55.5t69 20zM1156 233q-8 50 -21.5 94.5t-30.5 83.5q-14 33 -32.5 65t-42.5 57.5t-53 41.5t-63 16t-66 -19.5t-57.5 -52t-42 -73.5t-17.5 -83q-2 -50 11 -82.5t40 -52.5t67.5 -28t94.5 -8q87 0 135.5 12.5t66.5 22.5zM801 1046l-138 139
l137 139l140 -140zM1083 1046l-140 139l139 139l138 -140z" />
    <glyph glyph-name="uni0642.fina" unicode="&#x642;" horiz-adv-x="1364" arabic-form="final" 
d="M1311 192h63v-192h-61q0 -138 -45.5 -250.5t-133.5 -192t-217 -122.5t-295 -41q-83 0 -165 23.5t-151.5 71t-121 119.5t-73.5 168.5t-9.5 218.5t72.5 269q13 31 30 74.5t35.5 79.5t37.5 54.5t36 0.5q9 -9 7.5 -22.5t-11 -36.5t-24.5 -60t-32 -94q-20 -64 -33 -134.5
t-11.5 -140t21.5 -134t67.5 -116t126.5 -85.5t198 -43q117 -9 224.5 11.5t190 70t131.5 127.5t49 184h-325q-45 0 -85.5 17.5t-71 55t-48 95.5t-15.5 138q1 57 15 115.5t37.5 112.5t54 101.5t65 82.5t70 55.5t69.5 20.5q61 0 107.5 -30.5t81 -80.5t59 -114t40.5 -131
t25.5 -131t14.5 -115zM754 368q-3 -66 20.5 -102t77.5 -52.5t141 -19t212 -2.5q-12 56 -26.5 106.5t-33.5 95.5q-16 37 -36.5 73.5t-46.5 65t-57.5 46t-68.5 17.5q-34 0 -66 -19.5t-57.5 -51.5t-41.5 -73t-17 -84zM835 1051l-138 139l137 139l140 -140zM1117 1051l-140 139
l139 139l138 -140z" />
    <glyph glyph-name="uni0646.init" unicode="&#x646;" horiz-adv-x="513" arabic-form="initial" 
d="M-103 96q0 40 28 68t68 28h1h87q31 1 57.5 3.5t50.5 7.5q21 4 41 10t35.5 15t26.5 21.5t14 29.5q3 24 -1.5 53t-14 61.5t-22.5 65.5t-26 65q-17 36 -35 73.5t-41 78.5l53 96q10 18 20 35t19.5 30.5t17 22t12.5 8.5t18.5 -25.5t30 -68.5t33 -99t28.5 -117t16.5 -123
t-3.5 -117q-9 -59 -39.5 -116t-72.5 -102t-90.5 -72.5t-94.5 -27.5h-117h-4q-40 0 -68 28t-28 68zM425 1185l-146 -146l-147 147l146 146z" />
    <glyph glyph-name="uni0646.medi" unicode="&#x646;" horiz-adv-x="627" arabic-form="medial" 
d="M-105 96q0 40 28 68t68 28h44q-1 0 17 1t45 7t59.5 17.5t60 32t47 52.5t20.5 77q2 33 -4 66.5t-13 60.5q-9 32 -19 60l49 67q9 13 18.5 25t17.5 20.5t14 12t9 0.5q0 -1 5.5 -24t12 -64.5t12 -100t6.5 -129.5q0 -2 1.5 -16.5t8 -34.5t20 -43t38.5 -42t63 -32t93 -13h19
v-192h-7q-43 0 -85.5 14t-81.5 37.5t-73 54.5t-59 66v-3q-21 -32 -52 -62.5t-70 -54t-85 -38t-98 -14.5h-29h-4q-40 0 -68 28t-28 68zM483 984l-146 -146l-147 147l146 146z" />
    <glyph glyph-name="uni0646" unicode="&#x646;" horiz-adv-x="1351" arabic-form="isolated" 
d="M1155 640q8 0 28.5 -42.5t42.5 -116.5t38.5 -176t16.5 -220q0 -187 -49.5 -317.5t-140 -212.5t-218 -119.5t-284.5 -37.5q-82 0 -164 23.5t-152 70.5t-122 118.5t-74.5 168.5t-10 218.5t72.5 269.5q13 31 30 74t35.5 79t37.5 55t36 2q10 -10 8 -23t-11 -36t-24.5 -60
t-32.5 -95q-18 -63 -31 -133.5t-11.5 -140t21 -134t67 -116t126.5 -85.5t199 -43q128 -11 237.5 17.5t190 90t126 154.5t45.5 212q-4 72 -24.5 131.5t-45.5 106t-49 78.5l-36 48q16 30 34.5 63.5t35.5 62t31 47t21 18.5zM796 482l-146 -146l-147 147l146 146z" />
    <glyph glyph-name="uni0646.fina" unicode="&#x646;" horiz-adv-x="1547" arabic-form="final" 
d="M1554 192v-192h-11q-45 0 -84.5 11t-73 28.5t-60 38t-45.5 40.5q2 -26 1 -55.5t-1 -58.5q0 -138 -45.5 -251t-133.5 -192.5t-216.5 -122t-294.5 -41.5q-83 0 -164.5 23.5t-151.5 71t-122 119.5t-74.5 168.5t-9.5 218.5t72 269q9 21 19.5 48t22 54.5t24 52t25 40.5t25 21
t23.5 -7q10 -9 8 -22t-11 -36t-24 -60t-32 -95q-18 -64 -31 -134.5t-11.5 -140t21 -134t67 -116t126.5 -85.5t198 -43q128 -10 237.5 18.5t190 90t126 154t45.5 212.5q-4 72 -24 131.5t-45 106t-49 78.5t-36 49q15 29 33.5 62.5t36 62t31.5 47t21 18.5q5 0 21 -33t40.5 -83
t58 -108t74.5 -108t89.5 -83t102.5 -33h11zM839 584l-146 -146l-147 147l146 146z" />
    <glyph glyph-name="uni06C0" unicode="&#x6c0;" horiz-adv-x="843" arabic-form="isolated" 
d="M748 427q9 -109 -16.5 -192t-76 -138.5t-119.5 -84t-145 -28.5q-69 0 -131 26t-104.5 73t-60 113.5t2.5 147.5q15 63 37 121t42 105q23 50 51 100l52 95q10 18 20.5 35.5t20 31t17.5 21.5t14 8q3 0 32 -11.5t70.5 -34.5t90.5 -58.5t92 -84t74 -109.5t37 -136zM402 175
q37 0 84 7.5t88.5 22t70 36t28.5 50.5q0 37 -16 71.5t-42.5 64.5t-60 56t-67.5 48q-40 26 -86.5 49t-98.5 43q-80 -102 -103.5 -184.5t-4 -141t75 -90.5t132.5 -32zM145 1078l85 50q13 9 25 16q-20 11 -38.5 27.5t-33 37t-22.5 45.5t-6 52q1 19 11 42.5t27 48t38.5 47t46 40
t49.5 28t48 9.5q22 -1 44 -7t43 -19t40 -34.5t35 -53.5q5 -11 -1.5 -18t-31.5 5q-9 5 -36.5 15.5t-83.5 12.5q-29 1 -56.5 -8t-49 -24t-35 -32.5t-14.5 -32.5q-1 -13 15 -35.5t45 -42.5t68 -32.5t84 -4.5l51 8q20 3 41.5 7.5t34.5 7.5q2 1 5 0.5t1 -5.5l-17 -48
q-4 -10 -7.5 -20.5t-7.5 -23.5q-50 -9 -106 -22t-111.5 -31t-108.5 -41.5t-98 -53.5z" />
    <glyph glyph-name="uni06C0.fina" unicode="&#x6c0;" horiz-adv-x="929" arabic-form="final" 
d="M942 192v-192h-39q-65 0 -116 24t-89.5 63t-64 88.5t-38.5 100.5l-132 -127q-26 -8 -56 -12q-26 -3 -64 -1.5t-84 14.5q-56 14 -93.5 49.5t-54 85.5t-10.5 110.5t37 124.5q17 33 61.5 75.5t100 86.5t114 85.5t102.5 71.5q-3 19 -4 33.5t-2 25.5l-3 21q19 20 35.5 38.5
t33.5 35.5q13 13 27 25.5t25.5 21t20.5 12.5t13 2l11 -150q7 -70 14 -166t18 -211q9 -100 25 -164.5t42 -102.5t63.5 -53t90.5 -15h16zM172 442q9 -32 34.5 -53.5t61 -35.5t78 -20.5t85.5 -8.5t83 0.5t70 6.5q-16 109 -28.5 200.5t-21.5 166.5q-64 -27 -131 -62t-120.5 -70
t-85 -68t-25.5 -56zM312 1171l85 50q13 9 25 16q-20 11 -38.5 27.5t-33 37t-22.5 45.5t-6 52q1 19 11 42.5t27 48t38.5 47t46 40t49.5 28t48 9.5q22 -1 44 -7t43 -19t40 -34.5t35 -53.5q5 -11 -1.5 -18t-31.5 5q-9 5 -36.5 15.5t-83.5 12.5q-29 1 -56.5 -8t-49 -24
t-35 -32.5t-14.5 -32.5q-1 -13 15 -35.5t45 -42.5t68 -32.5t84 -4.5l51 8q20 3 41.5 7.5t34.5 7.5q2 1 5 0.5t1 -5.5l-17 -48q-4 -10 -7.5 -20.5t-7.5 -23.5q-50 -9 -106 -22t-111.5 -31t-108.5 -41.5t-98 -53.5z" />
    <glyph glyph-name="uni0624" unicode="&#x624;" horiz-adv-x="852" arabic-form="isolated" 
d="M426 788q55 0 99 -25.5t77.5 -68t59 -98t43 -116t28.5 -121.5t17.5 -114.5t9 -95t2.5 -62.5q0 -115 -31 -211.5t-79.5 -174.5t-107.5 -137t-115 -98.5t-101.5 -59.5t-67.5 -20h-3q-22 1 -55 17t-65.5 36t-58.5 40.5t-34 32.5q-7 11 -3 21t20 13h7q1 0 3 -0.5t4 -0.5
q15 0 40.5 3t57.5 14q43 14 92 36t98 51.5t96 67.5t86 86.5t67.5 106.5t41.5 128l-20 -8q-14 -5 -36 -11t-50 -12t-60 -10t-65 -4q-74 0 -132 18t-97 55.5t-59 95.5t-18 138q1 57 15 115.5t37.5 112.5t54 101.5t64.5 82.5t69.5 55.5t68.5 20.5zM632 233q-11 50 -25 93.5
t-31 84.5q-14 33 -33.5 65t-44 57.5t-53.5 41t-63 15.5q-33 0 -65 -19.5t-57.5 -52t-42 -73.5t-17.5 -84q-2 -49 10.5 -81.5t39.5 -52t67.5 -28t94.5 -8.5q87 0 137.5 12.5t69.5 22.5zM242 964l85 50q13 9 25 16q-20 11 -38.5 27.5t-33 37t-22.5 45.5t-6 52q1 19 11 42.5
t27 48t38.5 47t46 40t49.5 28t48 9.5q22 -1 44 -7t43 -19t40 -34.5t35 -53.5q5 -11 -1.5 -18t-31.5 5q-9 5 -36.5 15.5t-83.5 12.5q-29 1 -56.5 -8t-49 -24t-35 -32.5t-14.5 -32.5q-1 -13 15 -35.5t45 -42.5t68 -32.5t84 -4.5l51 8q20 3 41.5 7.5t34.5 7.5q2 1 5 0.5t1 -5.5
l-17 -48q-4 -10 -7.5 -20.5t-7.5 -23.5q-50 -9 -106 -22t-111.5 -31t-108.5 -41.5t-98 -53.5z" />
    <glyph glyph-name="uni0624.fina" unicode="&#x624;" horiz-adv-x="818" arabic-form="final" 
d="M633 192q-8 56 -20.5 107.5t-29.5 96.5q-14 37 -33 73.5t-43.5 64.5t-55.5 45.5t-68 17.5q-33 0 -65.5 -19.5t-58 -52t-41.5 -73.5t-17 -84q-3 -64 16.5 -99.5t67 -52.5t126 -20.5t194.5 -3.5h28zM427 795q61 0 107.5 -30.5t81 -80.5t59 -114t41 -131t26 -131.5
t14.5 -115.5h71v-192h-67q-7 -134 -41.5 -231t-84 -164.5t-107.5 -109t-111.5 -64t-96.5 -30.5t-61 -8q-24 0 -57 17t-64.5 39.5t-57 45.5t-33.5 35q-7 8 -2.5 17t23.5 10q3 0 25 1t72 4q103 6 191 46t154 101t105 137t43 154h-321q-44 0 -84.5 18t-71 55.5t-48 95.5
t-15.5 138q1 57 15 115.5t37.5 112.5t54 101.5t64.5 82.5t70 55.5t69 20.5zM244 962l85 50q13 9 25 16q-20 11 -38.5 27.5t-33 37t-22.5 45.5t-6 52q1 19 11 42.5t27 48t38.5 47t46 40t49.5 28t48 9.5q22 -1 44 -7t43 -19t40 -34.5t35 -53.5q5 -11 -1.5 -18t-31.5 5
q-9 5 -36.5 15.5t-83.5 12.5q-29 1 -56.5 -8t-49 -24t-35 -32.5t-14.5 -32.5q-1 -13 15 -35.5t45 -42.5t68 -32.5t84 -4.5l51 8q20 3 41.5 7.5t34.5 7.5q2 1 5 0.5t1 -5.5l-17 -48q-4 -10 -7.5 -20.5t-7.5 -23.5q-50 -9 -106 -22t-111.5 -31t-108.5 -41.5t-98 -53.5z" />
    <glyph glyph-name="uni0649.init" unicode="&#x649;" horiz-adv-x="475" arabic-form="initial" 
d="M-103 96q0 40 28 68t68 28h1h87q31 1 57.5 3.5t50.5 7.5q21 4 41 10t35.5 15t26.5 21.5t14 29.5q3 24 -1.5 53t-14 61.5t-22.5 65.5t-26 65q-17 36 -35 73.5t-41 78.5l53 96q10 18 20 35t19.5 30.5t17 22t12.5 8.5t18.5 -25.5t30 -68.5t33 -99t28.5 -117t16.5 -123
t-3.5 -117q-9 -59 -39.5 -116t-72.5 -102t-90.5 -72.5t-94.5 -27.5h-117h-4q-40 0 -68 28t-28 68z" />
    <glyph glyph-name="uni0649.medi" unicode="&#x649;" horiz-adv-x="629" arabic-form="medial" 
d="M-107 96q0 40 28 68t68 28h44q-1 0 17 1t45 7t59.5 17.5t60 32t47 52.5t20.5 77q2 33 -4 66.5t-13 60.5q-9 32 -19 60l49 67q9 13 18.5 25t17.5 20.5t14 12t9 0.5q0 -1 5.5 -24t12 -64.5t12 -100t6.5 -129.5q0 -2 1.5 -16.5t8 -34.5t20 -43t38.5 -42t63 -32t93 -13h19
v-192h-7q-43 0 -85.5 14t-81.5 37.5t-73 54.5t-59 66v-3q-21 -32 -52 -62.5t-70 -54t-85 -38t-98 -14.5h-29h-4q-40 0 -68 28t-28 68z" />
    <glyph glyph-name="uni064A.init" unicode="&#x64a;" horiz-adv-x="651" arabic-form="initial" 
d="M-101 96q0 40 28 68t68 28h81q26 0 61 0.5t73 3t76 8t71 15t58 24t37 36.5q3 24 -1.5 53t-14 61.5t-22.5 65.5t-26 65q-17 36 -35 73.5t-41 78.5l53 96q10 18 20 35t19.5 30.5t17 22t12.5 8.5t18.5 -25.5t30 -68.5t33 -99t28.5 -117t16.5 -123t-3.5 -117
q-9 -59 -41.5 -116t-89 -102t-136 -72.5t-181.5 -27.5h-110h-4q-40 0 -68 28t-28 68zM157 -487l-138 139l137 139l140 -140zM439 -487l-140 139l139 139l138 -140z" />
    <glyph glyph-name="uni064A.medi" unicode="&#x64a;" horiz-adv-x="738" arabic-form="medial" 
d="M-103 96q0 40 28 68t68 28h4h34q-1 0 22 1t58 7t76 17.5t76.5 32t60 52.5t25.5 77q2 33 -4 66.5t-13 60.5q-9 32 -19 60l49 67q9 13 18.5 25t17.5 20.5t14 12t9 0.5q0 -1 5.5 -24t12 -64.5t12 -100t6.5 -129.5q0 -2 1.5 -16.5t9.5 -34.5t24.5 -43t46.5 -42t76 -32
t113 -13h19v-192h-7q-68 0 -121 14t-94.5 37.5t-73.5 54.5t-57 66v-3q-21 -32 -56 -62.5t-82.5 -54t-107 -38t-128.5 -14.5h-23h-4q-40 0 -68 28t-28 68zM264 -506l-138 139l137 139l140 -140zM546 -506l-140 139l139 139l138 -140z" />
    <glyph glyph-name="uni064A" unicode="&#x64a;" horiz-adv-x="1592" arabic-form="isolated" 
d="M1453 10q31 -67 30 -137t-31 -136t-87.5 -124.5t-139 -104.5t-185.5 -76t-227 -37q-111 -7 -215.5 4.5t-192 49t-151.5 105t-93 173.5t-17.5 254.5t75.5 347.5q7 22 17 54t23 65.5t27.5 65.5t29 54.5t28 31.5t25.5 -2q9 -10 4 -31.5t-16.5 -55t-27.5 -79.5t-30 -105
q-13 -53 -24 -114t-14.5 -124.5t3 -126.5t28.5 -120t61.5 -104.5t102 -79.5t150.5 -46t207 -4q157 13 265.5 49t176.5 79t98.5 85t30.5 68q0 20 -22 32t-59 21t-84 16t-96 16.5t-96 23.5t-84.5 36.5t-60.5 55.5t-24 81q-1 108 30 209.5t84.5 186.5t125.5 148t152.5 95
t165 27.5t163.5 -55.5q5 -3 5 -18.5t-3.5 -37t-10 -45t-14.5 -42t-18 -28t-19 -2.5q-48 31 -108 30.5t-122 -23t-121.5 -62t-106.5 -87t-76.5 -99t-32.5 -96.5q-2 -32 28 -51.5t78.5 -34t108.5 -27.5t116.5 -31.5t102.5 -46t67 -71.5zM733 -1161l-138 139l137 139l140 -140z
M1015 -1161l-140 139l139 139l138 -140z" />
    <glyph glyph-name="uni064A.fina" unicode="&#x64a;" horiz-adv-x="1525" arabic-form="final" 
d="M1532 0q-63 0 -108.5 1.5t-75.5 3.5q13 -10 25 -21.5t23 -23.5q19 -21 33.5 -50.5t14.5 -62.5q0 -80 -46 -157t-129.5 -139.5t-199.5 -104.5t-256 -51q-111 -6 -216 5.5t-192 49t-151 105.5t-93 173.5t-18 254t74 347.5q7 22 17.5 54t23.5 65.5t27 66t28.5 55t28 31.5
t25.5 -3q9 -10 4.5 -31.5t-16.5 -55.5t-28 -80t-30 -104q-13 -52 -23.5 -113t-14 -124.5t2.5 -127t27.5 -120.5t61.5 -104.5t102.5 -80t151 -46.5t208.5 -3q115 9 213 30.5t169.5 49.5t112 59.5t40.5 60.5q0 17 -20 38t-54.5 44t-80.5 47.5t-98.5 48t-109 45t-110.5 38.5
q-3 0 2 13t12.5 28.5t14.5 29t7 14.5q3 4 10.5 16t16.5 25t17 23.5t11 10.5q105 -14 180 -21.5t137.5 -11.5t120 -4.5t128.5 -0.5v-192zM602 -1093l-138 139l137 139l140 -140zM884 -1093l-140 139l139 139l138 -140z" />
    <glyph glyph-name="uni06CC" unicode="&#x6cc;" horiz-adv-x="1559" arabic-form="isolated" 
d="M1453 10q31 -67 30 -137t-31 -136t-87.5 -124.5t-139 -104.5t-185.5 -76t-227 -37q-111 -7 -215.5 4.5t-192 49t-151.5 105t-93 173.5t-17.5 254.5t75.5 347.5q7 22 17 54t23 65.5t27.5 65.5t29 54.5t28 31.5t25.5 -2q9 -10 4 -31.5t-16.5 -55t-27.5 -79.5t-30 -105
q-13 -53 -24 -114t-14.5 -124.5t3 -126.5t28.5 -120t61.5 -104.5t102 -79.5t150.5 -46t207 -4q157 13 265.5 49t176.5 79t98.5 85t30.5 68q0 20 -22 32t-59 21t-84 16t-96 16.5t-96 23.5t-84.5 36.5t-60.5 55.5t-24 81q-1 108 30 209.5t84.5 186.5t125.5 148t152.5 95
t165 27.5t163.5 -55.5q5 -3 5 -18.5t-3.5 -37t-10 -45t-14.5 -42t-18 -28t-19 -2.5q-48 31 -108 30.5t-122 -23t-121.5 -62t-106.5 -87t-76.5 -99t-32.5 -96.5q-2 -32 28 -51.5t78.5 -34t108.5 -27.5t116.5 -31.5t102.5 -46t67 -71.5z" />
    <glyph glyph-name="uni06CC.init" unicode="&#x6cc;" horiz-adv-x="645" arabic-form="initial" 
d="M-101 96q0 40 28 68t68 28h81q26 0 61 0.5t73 3t76 8t71 15t58 24t37 36.5q3 24 -1.5 53t-14 61.5t-22.5 65.5t-26 65q-17 36 -35 73.5t-41 78.5l53 96q10 18 20 35t19.5 30.5t17 22t12.5 8.5t18.5 -25.5t30 -68.5t33 -99t28.5 -117t16.5 -123t-3.5 -117
q-9 -59 -41.5 -116t-89 -102t-136 -72.5t-181.5 -27.5h-110h-4q-40 0 -68 28t-28 68zM190 -495l-138 139l137 139l140 -140zM472 -495l-140 139l139 139l138 -140z" />
    <glyph glyph-name="uni06CC.medi" unicode="&#x6cc;" horiz-adv-x="737" arabic-form="medial" 
d="M-103 96q0 40 28 68t68 28h4h34q-1 0 22 1t58 7t76 17.5t76.5 32t60 52.5t25.5 77q2 33 -4 66.5t-13 60.5q-9 32 -19 60l49 67q9 13 18.5 25t17.5 20.5t14 12t9 0.5q0 -1 5.5 -24t12 -64.5t12 -100t6.5 -129.5q0 -2 1.5 -16.5t9.5 -34.5t24.5 -43t46.5 -42t76 -32
t113 -13h19v-192h-7q-68 0 -121 14t-94.5 37.5t-73.5 54.5t-57 66v-3q-21 -32 -56 -62.5t-82.5 -54t-107 -38t-128.5 -14.5h-23h-4q-40 0 -68 28t-28 68zM226 -465l-138 139l137 139l140 -140zM508 -465l-140 139l139 139l138 -140z" />
    <glyph glyph-name="uni06CC.fina" unicode="&#x6cc;" horiz-adv-x="1521" arabic-form="final" 
d="M1532 0q-63 0 -108.5 1.5t-75.5 3.5q13 -10 25 -21.5t23 -23.5q19 -21 33.5 -50.5t14.5 -62.5q0 -80 -46 -157t-129.5 -139.5t-199.5 -104.5t-256 -51q-111 -6 -216 5.5t-192 49t-151 105.5t-93 173.5t-18 254t74 347.5q7 22 17.5 54t23.5 65.5t27 66t28.5 55t28 31.5
t25.5 -3q9 -10 4.5 -31.5t-16.5 -55.5t-28 -80t-30 -104q-13 -52 -23.5 -113t-14 -124.5t2.5 -127t27.5 -120.5t61.5 -104.5t102.5 -80t151 -46.5t208.5 -3q115 9 213 30.5t169.5 49.5t112 59.5t40.5 60.5q0 17 -20 38t-54.5 44t-80.5 47.5t-98.5 48t-109 45t-110.5 38.5
q-3 0 2 13t12.5 28.5t14.5 29t7 14.5q3 4 10.5 16t16.5 25t17 23.5t11 10.5q105 -14 180 -21.5t137.5 -11.5t120 -4.5t128.5 -0.5v-192z" />
    <glyph glyph-name="uni06D3" unicode="&#x6d3;" horiz-adv-x="1818" arabic-form="isolated" 
d="M1700 276q25 -52 7 -107q-20 -53 -87 -89q-68 -36 -290 -67q-112 -16 -221 -23.5t-216 -7.5q-178 0 -368 18q-192 18 -319 48q-128 32 -128 60q0 42 27 146q29 105 51 127q79 79 198 135q36 17 139 51q51 17 85 29.5t51 19.5q34 15 68 49t55 74q12 20 36 20
q18 0 30.5 -12.5t12.5 -30.5q0 -4 -2 -12q-1 -4 -2 -6q-17 -51 -37.5 -90.5t-46 -68.5t-57 -48.5t-70.5 -31.5q-87 -26 -148.5 -48t-99.5 -40q-75 -35 -180 -105q134 -56 304 -78q87 -11 194 -16.5t238 -5.5q185 0 397 30q107 15 201 35t178 45zM337 825l85 50q13 9 25 16
q-20 11 -38.5 27.5t-33 37t-22.5 45.5t-6 52q1 19 11 42.5t27 48t38.5 47t46 40t49.5 28t48 9.5q22 -1 44 -7t43 -19t40 -34.5t35 -53.5q5 -11 -1.5 -18t-31.5 5q-9 5 -36.5 15.5t-83.5 12.5q-29 1 -56.5 -8t-49 -24t-35 -32.5t-14.5 -32.5q-1 -13 15 -35.5t45 -42.5
t68 -32.5t84 -4.5l51 8q20 3 41.5 7.5t34.5 7.5q2 1 5 0.5t1 -5.5l-17 -48q-4 -10 -7.5 -20.5t-7.5 -23.5q-50 -9 -106 -22t-111.5 -31t-108.5 -41.5t-98 -53.5z" />
    <glyph glyph-name="uni06D3.fina" unicode="&#x6d3;" horiz-adv-x="1235" arabic-form="final" 
d="M179 -238q238 -70 550 -70q324 0 627 56q-3 -53 -23.5 -90t-64 -78t-128.5 -57q-104 -15 -343 -15t-387.5 23.5t-247 59.5t-98.5 62q0 31 23.5 110t37.5 91q178 171 438.5 254.5t680.5 83.5q26 0 26 -27v-141q0 -24 -26 -24q-234 0 -435.5 -24t-350 -76.5t-279.5 -137.5z
M267 239l85 50q13 9 25 16q-20 11 -38.5 27.5t-33 37t-22.5 45.5t-6 52q1 19 11 42.5t27 48t38.5 47t46 40t49.5 28t48 9.5q22 -1 44 -7t43 -19t40 -34.5t35 -53.5q5 -11 -1.5 -18t-31.5 5q-9 5 -36.5 15.5t-83.5 12.5q-29 1 -56.5 -8t-49 -24t-35 -32.5t-14.5 -32.5
q-1 -13 15 -35.5t45 -42.5t68 -32.5t84 -4.5l51 8q20 3 41.5 7.5t34.5 7.5q2 1 5 0.5t1 -5.5l-17 -48q-4 -10 -7.5 -20.5t-7.5 -23.5q-50 -9 -106 -22t-111.5 -31t-108.5 -41.5t-98 -53.5z" />
    <glyph glyph-name="uni0626" unicode="&#x626;" horiz-adv-x="1536" arabic-form="isolated" 
d="M1409 10q31 -67 30 -137t-31 -136t-87.5 -124.5t-139 -104.5t-185.5 -76t-227 -37q-111 -7 -215.5 4.5t-192 49t-151.5 105t-93 173.5t-17.5 254.5t75.5 347.5q7 22 17 54t23 65.5t27.5 65.5t29 54.5t28 31.5t25.5 -2q9 -10 4 -31.5t-16.5 -55t-27.5 -79.5t-30 -105
q-13 -53 -24 -114t-14.5 -124.5t3 -126.5t28.5 -120t61.5 -104.5t102 -79.5t150.5 -46t207 -4q157 13 265.5 49t176.5 79t98.5 85t30.5 68q0 20 -22 32t-59 21t-84 16t-96 16.5t-96 23.5t-84.5 36.5t-60.5 55.5t-24 81q-1 108 30 209.5t84.5 186.5t125.5 148t152.5 95
t165 27.5t163.5 -55.5q5 -3 5 -18.5t-3.5 -37t-10 -45t-14.5 -42t-18 -28t-19 -2.5q-48 31 -108 30.5t-122 -23t-121.5 -62t-106.5 -87t-76.5 -99t-32.5 -96.5q-2 -32 28 -51.5t78.5 -34t108.5 -27.5t116.5 -31.5t102.5 -46t67 -71.5zM404 382l85 50q13 9 25 16
q-20 11 -38.5 27.5t-33 37t-22.5 45.5t-6 52q1 19 11 42.5t27 48t38.5 47t46 40t49.5 28t48 9.5q22 -1 44 -7t43 -19t40 -34.5t35 -53.5q5 -11 -1.5 -18t-31.5 5q-9 5 -36.5 15.5t-83.5 12.5q-29 1 -56.5 -8t-49 -24t-35 -32.5t-14.5 -32.5q-1 -13 15 -35.5t45 -42.5
t68 -32.5t84 -4.5l51 8q20 3 41.5 7.5t34.5 7.5q2 1 5 0.5t1 -5.5l-17 -48q-4 -10 -7.5 -20.5t-7.5 -23.5q-50 -9 -106 -22t-111.5 -31t-108.5 -41.5t-98 -53.5z" />
    <glyph glyph-name="uni0626.init" unicode="&#x626;" horiz-adv-x="585" arabic-form="initial" 
d="M33 998l85 50q13 9 25 16q-20 11 -38.5 27.5t-33 37t-22.5 45.5t-6 52q1 19 11 42.5t27 48t38.5 47t46 40t49.5 28t48 9.5q22 -1 44 -7t43 -19t40 -34.5t35 -53.5q5 -11 -1.5 -18t-31.5 5q-9 5 -36.5 15.5t-83.5 12.5q-29 1 -56.5 -8t-49 -24t-35 -32.5t-14.5 -32.5
q-1 -13 15 -35.5t45 -42.5t68 -32.5t84 -4.5l51 8q20 3 41.5 7.5t34.5 7.5q2 1 5 0.5t1 -5.5l-17 -48q-4 -10 -7.5 -20.5t-7.5 -23.5q-50 -9 -106 -22t-111.5 -31t-108.5 -41.5t-98 -53.5zM-111 96q0 40 28 68t68 28h81q26 0 61 0.5t73 3t76 8t71 15t58 24t37 36.5
q3 24 -1.5 53t-14 61.5t-22.5 65.5t-26 65q-17 36 -35 73.5t-41 78.5l53 96q10 18 20 35t19.5 30.5t17 22t12.5 8.5t18.5 -25.5t30 -68.5t33 -99t28.5 -117t16.5 -123t-3.5 -117q-9 -59 -41.5 -116t-89 -102t-136 -72.5t-181.5 -27.5h-110h-4q-40 0 -68 28t-28 68z" />
    <glyph glyph-name="uni0626.medi" unicode="&#x626;" horiz-adv-x="626" arabic-form="medial" 
d="M-107 96q0 40 28 68t68 28h44q-1 0 17 1t45 7t59.5 17.5t60 32t47 52.5t20.5 77q2 33 -4 66.5t-13 60.5q-9 32 -19 60l49 67q9 13 18.5 25t17.5 20.5t14 12t9 0.5q0 -1 5.5 -24t12 -64.5t12 -100t6.5 -129.5q0 -2 1.5 -16.5t8 -34.5t20 -43t38.5 -42t63 -32t93 -13h19
v-192h-7q-43 0 -85.5 14t-81.5 37.5t-73 54.5t-59 66v-3q-21 -32 -52 -62.5t-70 -54t-85 -38t-98 -14.5h-29h-4q-40 0 -68 28t-28 68zM116 774l85 50q13 9 25 16q-20 11 -38.5 27.5t-33 37t-22.5 45.5t-6 52q1 19 11 42.5t27 48t38.5 47t46 40t49.5 28t48 9.5q22 -1 44 -7
t43 -19t40 -34.5t35 -53.5q5 -11 -1.5 -18t-31.5 5q-9 5 -36.5 15.5t-83.5 12.5q-29 1 -56.5 -8t-49 -24t-35 -32.5t-14.5 -32.5q-1 -13 15 -35.5t45 -42.5t68 -32.5t84 -4.5l51 8q20 3 41.5 7.5t34.5 7.5q2 1 5 0.5t1 -5.5l-17 -48q-4 -10 -7.5 -20.5t-7.5 -23.5
q-50 -9 -106 -22t-111.5 -31t-108.5 -41.5t-98 -53.5z" />
    <glyph glyph-name="uni0626.fina" unicode="&#x626;" horiz-adv-x="1516" arabic-form="final" 
d="M1532 0q-63 0 -108.5 1.5t-75.5 3.5q13 -10 25 -21.5t23 -23.5q19 -21 33.5 -50.5t14.5 -62.5q0 -80 -46 -157t-129.5 -139.5t-199.5 -104.5t-256 -51q-111 -6 -216 5.5t-192 49t-151 105.5t-93 173.5t-18 254t74 347.5q7 22 17.5 54t23.5 65.5t27 66t28.5 55t28 31.5
t25.5 -3q9 -10 4.5 -31.5t-16.5 -55.5t-28 -80t-30 -104q-13 -52 -23.5 -113t-14 -124.5t2.5 -127t27.5 -120.5t61.5 -104.5t102.5 -80t151 -46.5t208.5 -3q115 9 213 30.5t169.5 49.5t112 59.5t40.5 60.5q0 17 -20 38t-54.5 44t-80.5 47.5t-98.5 48t-109 45t-110.5 38.5
q-3 0 2 13t12.5 28.5t14.5 29t7 14.5q3 4 10.5 16t16.5 25t17 23.5t11 10.5q105 -14 180 -21.5t137.5 -11.5t120 -4.5t128.5 -0.5v-192zM464 212l85 50q13 9 25 16q-20 11 -38.5 27.5t-33 37t-22.5 45.5t-6 52q1 19 11 42.5t27 48t38.5 47t46 40t49.5 28t48 9.5q22 -1 44 -7
t43 -19t40 -34.5t35 -53.5q5 -11 -1.5 -18t-31.5 5q-9 5 -36.5 15.5t-83.5 12.5q-29 1 -56.5 -8t-49 -24t-35 -32.5t-14.5 -32.5q-1 -13 15 -35.5t45 -42.5t68 -32.5t84 -4.5l51 8q20 3 41.5 7.5t34.5 7.5q2 1 5 0.5t1 -5.5l-17 -48q-4 -10 -7.5 -20.5t-7.5 -23.5
q-50 -9 -106 -22t-111.5 -31t-108.5 -41.5t-98 -53.5z" />
    <glyph glyph-name="uni06C2" unicode="&#x6c2;" horiz-adv-x="841" 
d="M758 427q9 -109 -16.5 -192t-76 -138.5t-119.5 -84t-145 -28.5q-69 0 -131 26t-104.5 73t-60 113.5t2.5 147.5q15 63 37 121t42 105q23 50 51 100l52 95q10 18 20.5 35.5t20 31t17.5 21.5t14 8q3 0 32 -11.5t70.5 -34.5t90.5 -58.5t92 -84t74 -109.5t37 -136zM412 175
q37 0 84 7.5t88.5 22t70 36t28.5 50.5q0 37 -16 71.5t-42.5 64.5t-60 56t-67.5 48q-40 26 -86.5 49t-98.5 43q-80 -102 -103.5 -184.5t-4 -141t75 -90.5t132.5 -32zM156 961l85 50q13 9 25 16q-20 11 -38.5 27.5t-33 37t-22.5 45.5t-6 52q1 19 11 42.5t27 48t38.5 47t46 40
t49.5 28t48 9.5q22 -1 44 -7t43 -19t40 -34.5t35 -53.5q5 -11 -1.5 -18t-31.5 5q-9 5 -36.5 15.5t-83.5 12.5q-29 1 -56.5 -8t-49 -24t-35 -32.5t-14.5 -32.5q-1 -13 15 -35.5t45 -42.5t68 -32.5t84 -4.5l51 8q20 3 41.5 7.5t34.5 7.5q2 1 5 0.5t1 -5.5l-17 -48
q-4 -10 -7.5 -20.5t-7.5 -23.5q-50 -9 -106 -22t-111.5 -31t-108.5 -41.5t-98 -53.5z" />
    <glyph glyph-name="uni06C1" unicode="&#x6c1;" horiz-adv-x="835" arabic-form="isolated" 
d="M748 427q9 -109 -16.5 -192t-76 -138.5t-119.5 -84t-145 -28.5q-69 0 -131 26t-104.5 73t-60 113.5t2.5 147.5q15 63 37 121t42 105q23 50 51 100l52 95q10 18 20.5 35.5t20 31t17.5 21.5t14 8q3 0 32 -11.5t70.5 -34.5t90.5 -58.5t92 -84t74 -109.5t37 -136zM402 175
q37 0 84 7.5t88.5 22t70 36t28.5 50.5q0 37 -16 71.5t-42.5 64.5t-60 56t-67.5 48q-40 26 -86.5 49t-98.5 43q-80 -102 -103.5 -184.5t-4 -141t75 -90.5t132.5 -32z" />
    <glyph glyph-name="uni06C3" unicode="&#x6c3;" horiz-adv-x="822" 
d="M743 427q9 -109 -16.5 -192t-76 -138.5t-119.5 -84t-145 -28.5q-69 0 -131 26t-104.5 73t-60 113.5t2.5 147.5q15 63 37 121t42 105q23 50 51 100l52 95q10 18 20.5 35.5t20 31t17.5 21.5t14 8q3 0 32 -11.5t70.5 -34.5t90.5 -58.5t92 -84t74 -109.5t37 -136zM397 175
q37 0 84 7.5t88.5 22t70 36t28.5 50.5q0 37 -16 71.5t-42.5 64.5t-60 56t-67.5 48q-40 26 -86.5 49t-98.5 43q-80 -102 -103.5 -184.5t-4 -141t75 -90.5t132.5 -32zM210 928l-138 139l137 139l140 -140zM492 928l-140 139l139 139l138 -140z" />
    <glyph glyph-name="uni06BE.fina" unicode="&#x6be;" horiz-adv-x="846" arabic-form="final" 
d="M853 192v-192h-9q-67 -2 -122 -24q-24 -9 -48 -23t-45.5 -34t-38 -47t-24.5 -63q-8 -33 -6 -61.5t10.5 -51.5t22 -41.5t29.5 -32.5q34 -34 87 -55l-93 -174q-102 51 -175.5 119.5t-123 148.5t-77 168.5t-37.5 179.5q-65 -5 -117 -22t-85 -48l-45 105q16 21 43.5 47t60 49
t68.5 39t71 18q8 123 37 235t69.5 197.5t86.5 136t87 50.5q24 0 49 -17.5t47.5 -47.5t41 -69.5t30.5 -85t15.5 -93.5t-4.5 -94q-14 -91 -48.5 -156.5t-82.5 -111t-107 -73.5t-122 -43q9 -57 25.5 -110.5t41 -101t58 -87t76.5 -68.5q-7 22 -11 45t-5 49q-3 43 7 99t45 119
q46 85 99.5 130t100.5 65q54 24 109 27h9zM440 643q-29 0 -56 -36t-48.5 -97t-35.5 -140t-15 -165q47 6 93 16.5t85 27t67.5 40t40.5 55.5q9 23 10 54.5t-5 65t-18 65.5t-29.5 57.5t-40 41t-48.5 15.5z" />
    <glyph glyph-name="uni06BE.init" unicode="&#x6be;" horiz-adv-x="1147" arabic-form="initial" 
d="M-108 96q0 40 28 68t68 28h4h183h11h21h26h26q-41 29 -61 72t-25.5 91t0 96t15.5 87q11 39 34.5 79.5t46.5 72.5q14 19 28.5 37t30.5 36l-84 28q33 45 60 78q23 31 45.5 53.5t33.5 19.5q4 -1 45 -14.5t103.5 -39.5t138 -63.5t148 -87.5t133.5 -111t95.5 -134t33.5 -157
t-53 -179q-34 -61 -81.5 -94t-100.5 -47t-107.5 -13t-101.5 9t-82.5 19t-50.5 16q-32 -18 -73.5 -27.5t-86.5 -13.5t-90.5 -4.5t-87.5 -0.5h-173h-4q-40 0 -68 28t-28 68zM634 360q8 25 7 58t-9 67.5t-22 68.5t-32 61t-38 44.5t-40 20.5q-46 7 -87 -3t-73.5 -33.5t-54 -58.5
t-29.5 -78q-10 -59 13 -102.5t64.5 -74.5t94 -51.5t100.5 -33.5q20 5 39 19q17 11 35 34t32 62zM975 226q19 43 13.5 84.5t-27 79.5t-54 71t-66.5 60t-65.5 46t-51.5 29q16 -52 9.5 -115.5t-23.5 -127.5q-7 -24 -18.5 -50.5t-22.5 -49.5l-27 -53q76 -20 141 -27
q27 -4 56.5 -5t56.5 4.5t48 18t31 35.5z" />
    <glyph glyph-name="uni06BE.medi" unicode="&#x6be;" horiz-adv-x="785" arabic-form="medial" 
d="M-102 96q0 40 28 68t68 28h13q20 0 52.5 1.5t78.5 3.5q8 123 37 235t69.5 197.5t86.5 136t87 50.5q24 0 49 -17.5t47.5 -47.5t41 -69.5t30.5 -85t15.5 -93.5t-4.5 -94q-14 -91 -48.5 -156.5t-82.5 -111t-107 -73.5t-122 -43q9 -57 25.5 -110.5t41 -101t58 -87t76.5 -68.5
q-7 22 -11 45t-5 49q-3 43 7 99t45 119q46 85 99.5 130t100.5 65q54 24 109 27h9v-192h-9q-67 -2 -122 -24q-24 -9 -48 -23t-45.5 -34t-38 -47t-24.5 -63q-8 -33 -6 -61.5t10.5 -51.5t22 -41.5t29.5 -32.5q34 -34 87 -55l-93 -174q-102 51 -175.5 119.5t-123 148.5
t-77 168.5t-37.5 179.5l-43 -5q-20 -2 -45 -3t-56 -1h-4q-40 0 -68 28t-28 68zM379 643q-29 0 -56 -36t-48.5 -97t-35.5 -140t-15 -165q47 6 93 16.5t85 27t67.5 40t40.5 55.5q9 23 10 54.5t-5 65t-18 65.5t-29.5 57.5t-40 41t-48.5 15.5z" />
    <glyph glyph-name="fathatan_01" unicode="&#xfe70;" arabic-form="isolated" 
d="M344 1156l-392 -161v102l392 156v-97zM344 1396l-392 -161v103l392 154v-96z" />
    <glyph glyph-name="dammatan_01" unicode="&#xfe72;" arabic-form="isolated" 
d="M358 1128l-18 3l-15 1q-26 -37 -62.5 -66t-79.5 -49.5t-89.5 -31t-92.5 -10.5h-17h-8t-9 1l-2 6q15 39 21.5 72t6.5 56q0 53 -22 53q-14 0 -51 -13t-80 -36l-4 4l17 95q15 9 33.5 18t36.5 16.5t33 12.5t24 5q19 0 32 -9.5t20.5 -26t10.5 -38t3 -45.5q0 -21 -1.5 -42
t-5.5 -40q20 -1 48 5t58.5 16.5t60.5 26t54 34.5q-51 12 -83.5 26t-51.5 31.5t-26 37.5t-7 43q0 30 14 60t38 54.5t55 40t65 15.5q31 0 51.5 -15.5t33 -40.5t17.5 -55t5 -59q0 -41 -10 -75q11 -2 23 -2.5t25 -1.5zM153 1328q0 -8 5.5 -21.5t22 -28.5t48 -30.5t83.5 -27.5
q3 7 4 14t1 15q0 26 -7.5 49t-20 40t-29 27t-34.5 10q-30 0 -51.5 -15t-21.5 -32z" />
    <glyph glyph-name="kasratan_01" unicode="&#xfe74;" arabic-form="isolated" 
d="M351 -521l-392 -161v102l392 155v-96zM351 -281l-392 -161v103l392 154v-96z" />
    <glyph glyph-name="fatha_01" unicode="&#xfe76;" arabic-form="isolated" 
d="M377 1188l-392 -161v103l392 155v-97z" />
    <glyph glyph-name="damma_01" unicode="&#xfe78;" arabic-form="isolated" 
d="M283 1143q-27 -35 -63.5 -62.5t-74 -48t-73.5 -35t-61 -23.5q-7 0 -26.5 1.5t-41 4.5t-39.5 7t-22 10l-2 7q43 17 88.5 35t88.5 37.5t81 40t67 41.5q-78 15 -117 45t-39 88q0 37 16 69.5t41 56.5t56.5 38t61.5 14q19 0 38.5 -9.5t36 -31t27 -57t10.5 -86.5q0 -15 -2 -28
t-6 -27q-5 -20 -12 -36t-15 -27q-9 -13 -18 -24zM110 1335q0 -34 43.5 -58.5t118.5 -38.5q3 12 3 23q0 22 -7.5 45t-20 41.5t-29 30t-33.5 11.5q-15 0 -28.5 -5t-24 -12.5t-16.5 -17.5t-6 -19z" />
    <glyph glyph-name="kasra_01" unicode="&#xfe7a;" arabic-form="isolated" 
d="M390 -337l-392 -161v103l392 155v-97z" />
    <glyph glyph-name="shadda_01" unicode="&#xfe7c;" arabic-form="isolated" 
d="M349 1422q3 0 13 -18t21.5 -46.5t20.5 -62.5t9 -67q0 -41 -9.5 -72.5t-26 -53.5t-38.5 -34.5t-46 -14.5q-47 -6 -69 5.5t-37 34.5q-17 -35 -47.5 -49t-68.5 -15q-40 -1 -65.5 10t-39.5 29t-19 41.5t-5 48.5t4.5 48.5t8.5 41.5q3 8 6.5 14.5t6.5 12.5q7 11 14 14.5
t16 -4.5q2 -2 1 -15.5t-2 -31.5t0 -39t7 -38t19 -28t36 -10q31 2 48.5 14t26.5 31t11.5 44t4.5 55q0 13 6.5 24t17.5 12q8 2 15.5 -9.5t10.5 -27.5q4 -21 8 -43t13 -39.5t23.5 -28t39.5 -8.5q13 2 23.5 3t19.5 3q16 5 29 14.5t11 28.5q-1 18 -11 42t-21 47q-7 14 -14.5 26
t-15.5 26l18 43q7 15 14 27.5t12 14.5z" />
    <glyph glyph-name="sukun_01" unicode="&#xfe7e;" arabic-form="isolated" 
d="M189 1393q22 0 50 -10t52.5 -33.5t41 -63t16.5 -97.5q0 -47 -18.5 -79t-44 -52t-53.5 -29t-47 -9q-37 0 -65 14t-46.5 38t-28 55t-9.5 65q0 54 16 92.5t39.5 62.5t49.5 35t47 11zM190 1123q25 0 46.5 8t37 18.5t24.5 22t9 17.5q0 5 -8.5 21.5t-25.5 34.5t-42.5 32.5
t-59.5 14.5q-13 0 -28.5 -5t-29 -15.5t-22.5 -25.5t-9 -35q0 -15 6 -30.5t19 -28t33.5 -21t49.5 -8.5z" />
    <glyph glyph-name="uni0651064C" unicode="&#xfc5e;" arabic-form="isolated" 
d="M349 1422q3 0 13 -18t21.5 -46.5t20.5 -62.5t9 -67q0 -41 -9.5 -72.5t-26 -53.5t-38.5 -34.5t-46 -14.5q-47 -6 -69 5.5t-37 34.5q-17 -35 -47.5 -49t-68.5 -15q-40 -1 -65.5 10t-39.5 29t-19 41.5t-5 48.5t4.5 48.5t8.5 41.5q3 8 6.5 14.5t6.5 12.5q7 11 14 14.5
t16 -4.5q2 -2 1 -15.5t-2 -31.5t0 -39t7 -38t19 -28t36 -10q31 2 48.5 14t26.5 31t11.5 44t4.5 55q0 13 6.5 24t17.5 12q8 2 15.5 -9.5t10.5 -27.5q4 -21 8 -43t13 -39.5t23.5 -28t39.5 -8.5q13 2 23.5 3t19.5 3q16 5 29 14.5t11 28.5q-1 18 -11 42t-21 47q-7 14 -14.5 26
t-15.5 26l18 43q7 15 14 27.5t12 14.5zM298 1514l-18 3l-15 1q-26 -37 -62.5 -66t-79.5 -49.5t-89.5 -31t-92.5 -10.5h-17h-8t-9 1l-2 6q15 39 21.5 72t6.5 56q0 53 -22 53q-14 0 -51 -13t-80 -36l-4 4l17 95q15 9 33.5 18t36.5 16.5t33 12.5t24 5q19 0 32 -9.5t20.5 -26
t10.5 -38t3 -45.5q0 -21 -1.5 -42t-5.5 -40q20 -1 48 5t58.5 16.5t60.5 26t54 34.5q-51 12 -83.5 26t-51.5 31.5t-26 37.5t-7 43q0 30 14 60t38 54.5t55 40t65 15.5q31 0 51.5 -15.5t33 -40.5t17.5 -55t5 -59q0 -41 -10 -75q11 -2 23 -2.5t25 -1.5zM93 1714q0 -8 5.5 -21.5
t22 -28.5t48 -30.5t83.5 -27.5q3 7 4 14t1 15q0 26 -7.5 49t-20 40t-29 27t-34.5 10q-30 0 -51.5 -15t-21.5 -32z" />
    <glyph glyph-name="uni0651064D" unicode="&#xfc5f;" arabic-form="isolated" 
d="M349 1422q3 0 13 -18t21.5 -46.5t20.5 -62.5t9 -67q0 -41 -9.5 -72.5t-26 -53.5t-38.5 -34.5t-46 -14.5q-47 -6 -69 5.5t-37 34.5q-17 -35 -47.5 -49t-68.5 -15q-40 -1 -65.5 10t-39.5 29t-19 41.5t-5 48.5t4.5 48.5t8.5 41.5q3 8 6.5 14.5t6.5 12.5q7 11 14 14.5
t16 -4.5q2 -2 1 -15.5t-2 -31.5t0 -39t7 -38t19 -28t36 -10q31 2 48.5 14t26.5 31t11.5 44t4.5 55q0 13 6.5 24t17.5 12q8 2 15.5 -9.5t10.5 -27.5q4 -21 8 -43t13 -39.5t23.5 -28t39.5 -8.5q13 2 23.5 3t19.5 3q16 5 29 14.5t11 28.5q-1 18 -11 42t-21 47q-7 14 -14.5 26
t-15.5 26l18 43q7 15 14 27.5t12 14.5zM408 655l-392 -161v102l392 155v-96zM408 895l-392 -161v103l392 154v-96z" />
    <glyph glyph-name="uni0651064E" unicode="&#xfc60;" arabic-form="isolated" 
d="M349 1422q3 0 13 -18t21.5 -46.5t20.5 -62.5t9 -67q0 -41 -9.5 -72.5t-26 -53.5t-38.5 -34.5t-46 -14.5q-47 -6 -69 5.5t-37 34.5q-17 -35 -47.5 -49t-68.5 -15q-40 -1 -65.5 10t-39.5 29t-19 41.5t-5 48.5t4.5 48.5t8.5 41.5q3 8 6.5 14.5t6.5 12.5q7 11 14 14.5
t16 -4.5q2 -2 1 -15.5t-2 -31.5t0 -39t7 -38t19 -28t36 -10q31 2 48.5 14t26.5 31t11.5 44t4.5 55q0 13 6.5 24t17.5 12q8 2 15.5 -9.5t10.5 -27.5q4 -21 8 -43t13 -39.5t23.5 -28t39.5 -8.5q13 2 23.5 3t19.5 3q16 5 29 14.5t11 28.5q-1 18 -11 42t-21 47q-7 14 -14.5 26
t-15.5 26l18 43q7 15 14 27.5t12 14.5zM325 1509l-392 -161v103l392 155v-97z" />
    <glyph glyph-name="uni0651064F" unicode="&#xfc61;" arabic-form="isolated" 
d="M349 1422q3 0 13 -18t21.5 -46.5t20.5 -62.5t9 -67q0 -41 -9.5 -72.5t-26 -53.5t-38.5 -34.5t-46 -14.5q-47 -6 -69 5.5t-37 34.5q-17 -35 -47.5 -49t-68.5 -15q-40 -1 -65.5 10t-39.5 29t-19 41.5t-5 48.5t4.5 48.5t8.5 41.5q3 8 6.5 14.5t6.5 12.5q7 11 14 14.5
t16 -4.5q2 -2 1 -15.5t-2 -31.5t0 -39t7 -38t19 -28t36 -10q31 2 48.5 14t26.5 31t11.5 44t4.5 55q0 13 6.5 24t17.5 12q8 2 15.5 -9.5t10.5 -27.5q4 -21 8 -43t13 -39.5t23.5 -28t39.5 -8.5q13 2 23.5 3t19.5 3q16 5 29 14.5t11 28.5q-1 18 -11 42t-21 47q-7 14 -14.5 26
t-15.5 26l18 43q7 15 14 27.5t12 14.5zM283 1509q-27 -35 -63.5 -62.5t-74 -48t-73.5 -35t-61 -23.5q-7 0 -26.5 1.5t-41 4.5t-39.5 7t-22 10l-2 7q43 17 88.5 35t88.5 37.5t81 40t67 41.5q-78 15 -117 45t-39 88q0 37 16 69.5t41 56.5t56.5 38t61.5 14q19 0 38.5 -9.5
t36 -31t27 -57t10.5 -86.5q0 -15 -2 -28t-6 -27q-5 -20 -12 -36t-15 -27q-9 -13 -18 -24zM110 1701q0 -34 43.5 -58.5t118.5 -38.5q3 12 3 23q0 22 -7.5 45t-20 41.5t-29 30t-33.5 11.5q-15 0 -28.5 -5t-24 -12.5t-16.5 -17.5t-6 -19z" />
    <glyph glyph-name="uni06510650" unicode="&#xfc62;" arabic-form="isolated" 
d="M349 1422q3 0 13 -18t21.5 -46.5t20.5 -62.5t9 -67q0 -41 -9.5 -72.5t-26 -53.5t-38.5 -34.5t-46 -14.5q-47 -6 -69 5.5t-37 34.5q-17 -35 -47.5 -49t-68.5 -15q-40 -1 -65.5 10t-39.5 29t-19 41.5t-5 48.5t4.5 48.5t8.5 41.5q3 8 6.5 14.5t6.5 12.5q7 11 14 14.5
t16 -4.5q2 -2 1 -15.5t-2 -31.5t0 -39t7 -38t19 -28t36 -10q31 2 48.5 14t26.5 31t11.5 44t4.5 55q0 13 6.5 24t17.5 12q8 2 15.5 -9.5t10.5 -27.5q4 -21 8 -43t13 -39.5t23.5 -28t39.5 -8.5q13 2 23.5 3t19.5 3q16 5 29 14.5t11 28.5q-1 18 -11 42t-21 47q-7 14 -14.5 26
t-15.5 26l18 43q7 15 14 27.5t12 14.5zM398 880l-392 -161v103l392 155v-97z" />
    <glyph glyph-name="uniFC63" unicode="&#xfc63;" arabic-form="isolated" 
d="M349 1422q3 0 13 -18t21.5 -46.5t20.5 -62.5t9 -67q0 -41 -9.5 -72.5t-26 -53.5t-38.5 -34.5t-46 -14.5q-47 -6 -69 5.5t-37 34.5q-17 -35 -47.5 -49t-68.5 -15q-40 -1 -65.5 10t-39.5 29t-19 41.5t-5 48.5t4.5 48.5t8.5 41.5q3 8 6.5 14.5t6.5 12.5q7 11 14 14.5
t16 -4.5q2 -2 1 -15.5t-2 -31.5t0 -39t7 -38t19 -28t36 -10q31 2 48.5 14t26.5 31t11.5 44t4.5 55q0 13 6.5 24t17.5 12q8 2 15.5 -9.5t10.5 -27.5q4 -21 8 -43t13 -39.5t23.5 -28t39.5 -8.5q13 2 23.5 3t19.5 3q16 5 29 14.5t11 28.5q-1 18 -11 42t-21 47q-7 14 -14.5 26
t-15.5 26l18 43q7 15 14 27.5t12 14.5zM153 1373q-4 -4 -6 -3t-2 3q-1 51 -2.5 88t-3.5 67t-4.5 57t-5.5 58q-3 35 -7.5 71.5t-8.5 65.5q13 8 24 15t22 13q18 10 34 18t21 6q2 -1 4 -7v-5q1 -35 2.5 -74.5t0.5 -75.5q0 -31 -1.5 -56t-3.5 -49t-6 -50.5t-8 -60.5
q-3 -12 -9 -24t-13 -22.5t-14.5 -19.5z" />
    <glyph glyph-name="uni0672.fina" unicode="&#x672;" horiz-adv-x="563" 
d="M525 0q-53 0 -105 21.5t-93.5 62.5t-67.5 100.5t-26 136.5q0 99 -3.5 207t-9 212.5t-12 200.5t-12.5 172.5t-11.5 127.5t-7.5 66q12 11 20 19t15.5 14.5t14.5 13t16 14.5q16 14 31 29t27.5 26.5t21 17.5t10.5 2q4 -4 5.5 -13.5t1.5 -16.5q8 -138 12 -249.5t6 -204
t2.5 -170t0 -147.5t-1.5 -137t-1 -138q0 -33 7 -57.5t19 -42.5t28 -30.5t34 -20.5q20 -11 41 -17.5t49 -6.5h39v-192h-50zM-133 1577q11 18 25.5 44t40.5 44t67.5 21.5t106.5 -23.5q22 -9 42 -13t35 -4.5t25 0.5t13 3q-39 22 -61 56.5t-18 89.5q1 19 11 42.5t27 48t38.5 47
t46 40t49.5 28t48 9.5q22 -1 44 -7t43 -19t40 -34.5t35 -53.5q5 -11 -1.5 -18t-31.5 5q-9 5 -36.5 15.5t-83.5 12.5q-29 1 -56.5 -8t-49 -24t-35 -32.5t-14.5 -32.5q-1 -13 15 -35.5t45 -42.5t68 -32.5t84 -4.5l51 8q20 3 41.5 7.5t34.5 7.5q2 1 5 0.5t1 -5.5
q-8 -22 -14 -40q-5 -16 -10.5 -31t-7.5 -21q-24 -14 -61 -29t-83 -27.5t-97.5 -21t-104.5 -9.5q-29 -1 -55 7.5t-50 19t-46.5 19.5t-45.5 8.5t-47 -13t-51 -45.5q-3 -4 -9.5 -2.5t-12 7t-7 15t6.5 23.5z" />
    <glyph glyph-name="uni0673.fina" unicode="&#x673;" horiz-adv-x="544" 
d="M505 0q-53 0 -105 21.5t-93.5 62.5t-67.5 100.5t-26 136.5q0 99 -3.5 207t-9 212.5t-12 200.5t-12.5 172.5t-11.5 127.5t-7.5 66q12 11 20 19t15.5 14.5t14.5 13t16 14.5q16 14 31 29t27.5 26.5t21 17.5t10.5 2q4 -4 5.5 -13.5t1.5 -16.5q8 -138 12 -249.5t6 -204
t2.5 -170t0 -147.5t-1.5 -137t-1 -138q0 -33 7 -57.5t19 -42.5t28 -30.5t34 -20.5q20 -11 41 -17t49 -6h39v-193h-50zM-8 -547q11 18 25.5 44t40.5 44t67.5 21.5t106.5 -23.5q22 -9 42 -13t35 -4.5t25 0.5t13 3q-39 22 -61 56.5t-18 89.5q1 19 11 42.5t27 48t38.5 47t46 40
t49.5 28t48 9.5q22 -1 44 -7t43 -19t40 -34.5t35 -53.5q5 -11 -1.5 -18t-31.5 5q-9 5 -36.5 15.5t-83.5 12.5q-29 1 -56.5 -8t-49 -24t-35 -32.5t-14.5 -32.5q-1 -13 15 -35.5t45 -42.5t68 -32.5t84 -4.5l51 8q20 3 41.5 7.5t34.5 7.5q2 1 5 0.5t1 -5.5q-8 -22 -14 -40
q-5 -16 -10.5 -31t-7.5 -21q-24 -14 -61 -29t-83 -27.5t-97.5 -21t-104.5 -9.5q-29 -1 -55 7.5t-50 19t-46.5 19.5t-45.5 8.5t-47 -13t-51 -45.5q-3 -4 -9.5 -2.5t-12 7t-7 15t6.5 23.5z" />
    <glyph glyph-name="uni0675.fina" unicode="&#x675;" horiz-adv-x="538" 
d="M505 0q-53 0 -105 21.5t-93.5 62.5t-67.5 100.5t-26 136.5q0 99 -3.5 207t-9 212.5t-12 200.5t-12.5 172.5t-11.5 127.5t-7.5 66q12 11 20 19t15.5 14.5t14.5 13t16 14.5q16 14 31 29t27.5 26.5t21 17.5t10.5 2q4 -4 5.5 -13.5t1.5 -16.5q8 -138 12 -249.5t6 -204
t2.5 -170t0 -147.5t-1.5 -137t-1 -138q0 -33 7 -57.5t19 -42.5t28 -30.5t34 -20.5q20 -11 41 -17.5t49 -6.5h39v-192h-50zM404 1382l85 50q13 9 25 16q-20 11 -38.5 27.5t-33 37t-22.5 45.5t-6 52q1 19 11 42.5t27 48t38.5 47t46 40t49.5 28t48 9.5q22 -1 44 -7t43 -19
t40 -34.5t35 -53.5q5 -11 -1.5 -18t-31.5 5q-9 5 -36.5 15.5t-83.5 12.5q-29 1 -56.5 -8t-49 -24t-35 -32.5t-14.5 -32.5q-1 -13 15 -35.5t45 -42.5t68 -32.5t84 -4.5v-1l51 9q20 4 41.5 8t34.5 7q2 1 5 0.5t1 -5.5l-17 -48q-4 -10 -7.5 -20.5t-7.5 -23.5q-50 -9 -106 -22
t-111.5 -31t-108.5 -41.5t-98 -53.5z" />
    <glyph glyph-name="uni0676.fina" unicode="&#x676;" horiz-adv-x="820" 
d="M633 192q-8 56 -20.5 107.5t-29.5 96.5q-14 37 -33 73.5t-43.5 64.5t-55.5 45.5t-68 17.5q-33 0 -65.5 -19.5t-58 -52t-41.5 -73.5t-17 -84q-3 -64 16.5 -99.5t67 -52.5t126 -20.5t194.5 -3.5h28zM427 795q61 0 107.5 -30.5t81 -80.5t59 -114t41 -131t26 -131.5
t14.5 -115.5h71v-192h-67q-7 -134 -41.5 -231t-84 -164.5t-107.5 -109t-111.5 -64t-96.5 -30.5t-61 -8q-24 0 -57 17t-64.5 39.5t-57 45.5t-33.5 35q-7 8 -2.5 17t23.5 10q3 0 25 1t72 4q103 6 191 46t154 101t105 137t43 154h-321q-44 0 -84.5 18t-71 55.5t-48 95.5
t-15.5 138q1 57 15 115.5t37.5 112.5t54 101.5t64.5 82.5t70 55.5t69 20.5zM562 920l85 50q13 9 25 16q-20 11 -38.5 27.5t-33 37t-22.5 45.5t-6 52q1 19 11 42.5t27 48t38.5 47t46 40t49.5 28t48 9.5q22 -1 44 -7t43 -19t40 -34.5t35 -53.5q5 -11 -1.5 -18t-31.5 5
q-9 5 -36.5 15.5t-83.5 12.5q-29 1 -56.5 -8t-49 -24t-35 -32.5t-14.5 -32.5q-1 -13 15 -35.5t45 -42.5t68 -32.5t84 -4.5v-1l51 9q20 4 41.5 8t34.5 7q2 1 5 0.5t1 -5.5l-17 -48q-4 -10 -7.5 -20.5t-7.5 -23.5q-50 -9 -106 -22t-111.5 -31t-108.5 -41.5t-98 -53.5z" />
    <glyph glyph-name="uni0677.fina" unicode="&#x677;" horiz-adv-x="849" 
d="M664 192q-8 56 -20.5 107.5t-29.5 96.5q-14 37 -33 73.5t-43.5 64.5t-55.5 45.5t-68 17.5q-33 0 -65.5 -19.5t-58 -52t-41.5 -73.5t-17 -84q-3 -64 16.5 -99.5t67 -52.5t126 -20.5t194.5 -3.5h28zM458 795q61 0 107.5 -30.5t81 -80.5t59 -114t41 -131t26 -131.5
t14.5 -115.5h71v-192h-67q-7 -134 -41.5 -231t-84 -164.5t-107.5 -109t-111.5 -64t-96.5 -30.5t-61 -8q-24 0 -57 17t-64.5 39.5t-57 45.5t-33.5 35q-7 8 -2.5 17t23.5 10q3 0 25 1t72 4q103 6 191 46t154 101t105 137t43 154h-321q-44 0 -84.5 18t-71 55.5t-48 95.5
t-15.5 138q1 57 15 115.5t37.5 112.5t54 101.5t64.5 82.5t70 55.5t69 20.5zM394 957q-27 -35 -63.5 -62.5t-74 -48t-73.5 -35t-61 -23.5q-7 0 -26.5 1.5t-41 4.5t-39.5 7t-22 10l-2 7q43 17 88.5 35t88.5 37.5t81 40t67 41.5q-78 15 -117 45t-39 88q0 37 16 69.5t41 56.5
t56.5 38t61.5 14q19 0 38.5 -9.5t36 -31t27 -57t10.5 -86.5q0 -15 -2 -28t-6 -27q-5 -20 -12 -36t-15 -27q-9 -13 -18 -24zM221 1149q0 -34 43.5 -58.5t118.5 -38.5q3 12 3 23q0 22 -7.5 45t-20 41.5t-29 30t-33.5 11.5q-15 0 -28.5 -5t-24 -12.5t-16.5 -17.5t-6 -19z
M645 917l85 50q13 9 25 16q-20 11 -38.5 27.5t-33 37t-22.5 45.5t-6 52q1 19 11 42.5t27 48t38.5 47t46 40t49.5 28t48 9.5q22 -1 44 -7t43 -19t40 -34.5t35 -53.5q5 -11 -1.5 -18t-31.5 5q-9 5 -36.5 15.5t-83.5 12.5q-29 1 -56.5 -8t-49 -24t-35 -32.5t-14.5 -32.5
q-1 -13 15 -35.5t45 -42.5t68 -32.5t84 -4.5v-1l51 9q20 4 41.5 8t34.5 7q2 1 5 0.5t1 -5.5l-17 -48q-4 -10 -7.5 -20.5t-7.5 -23.5q-50 -9 -106 -22t-111.5 -31t-108.5 -41.5t-98 -53.5z" />
    <glyph glyph-name="uni0678.fina" unicode="&#x678;" horiz-adv-x="1520" 
d="M1532 0q-63 0 -108.5 1.5t-75.5 3.5q13 -10 25 -21.5t23 -23.5q19 -21 33.5 -50.5t14.5 -62.5q0 -80 -46 -157t-129.5 -139.5t-199.5 -104.5t-256 -51q-111 -6 -216 5.5t-192 49t-151 105.5t-93 173.5t-18 254t74 347.5q7 22 17.5 54t23.5 65.5t27 66t28.5 55t28 31.5
t25.5 -3q9 -10 4.5 -31.5t-16.5 -55.5t-28 -80t-30 -104q-13 -52 -23.5 -113t-14 -124.5t2.5 -127t27.5 -120.5t61.5 -104.5t102.5 -80t151 -46.5t208.5 -3q115 9 213 30.5t169.5 49.5t112 59.5t40.5 60.5q0 17 -20 38t-54.5 44t-80.5 47.5t-98.5 48t-109 45t-110.5 38.5
q-3 0 2 13t12.5 28.5t14.5 29t7 14.5q3 4 10.5 16t16.5 25t17 23.5t11 10.5q105 -14 180 -21.5t137.5 -11.5t120 -4.5t128.5 -0.5v-192zM861 365l85 50q13 9 25 16q-20 11 -38.5 27.5t-33 37t-22.5 45.5t-6 52q1 19 11 42.5t27 48t38.5 47t46 40t49.5 28t48 9.5q22 -1 44 -7
t43 -19t40 -34.5t35 -53.5q5 -11 -1.5 -18t-31.5 5q-9 5 -36.5 15.5t-83.5 12.5q-29 1 -56.5 -8t-49 -24t-35 -32.5t-14.5 -32.5q-1 -13 15 -35.5t45 -42.5t68 -32.5t84 -4.5v-1l51 9q20 4 41.5 8t34.5 7q2 1 5 0.5t1 -5.5l-17 -48q-4 -10 -7.5 -20.5t-7.5 -23.5
q-50 -9 -106 -22t-111.5 -31t-108.5 -41.5t-98 -53.5z" />
    <glyph glyph-name="uni067A.init" unicode="&#x67a;" horiz-adv-x="685" arabic-form="initial" 
d="M-101 96q0 40 28 68t68 28h81q26 0 61 0.5t73 3t76 8t71 15t58 24t37 36.5q3 24 -1.5 53t-14 61.5t-22.5 65.5t-26 65q-17 36 -35 73.5t-41 78.5l53 96q10 18 20 35t19.5 30.5t17 22t12.5 8.5t18.5 -25.5t30 -68.5t33 -99t28.5 -117t16.5 -123t-3.5 -117
q-9 -59 -41.5 -116t-89 -102t-136 -72.5t-181.5 -27.5h-110h-4q-40 0 -68 28t-28 68zM548 1124l-139 -138l-139 137l140 140zM548 1432l-139 -140l-139 139l140 138z" />
    <glyph glyph-name="uni067A.medi" unicode="&#x67a;" horiz-adv-x="741" arabic-form="medial" 
d="M-103 96q0 40 28 68t68 28h4h34q-1 0 22 1t58 7t76 17.5t76.5 32t60 52.5t25.5 77q2 33 -4 66.5t-13 60.5q-9 32 -19 60l49 67q9 13 18.5 25t17.5 20.5t14 12t9 0.5q0 -1 5.5 -24t12 -64.5t12 -100t6.5 -129.5q0 -2 1.5 -16.5t9.5 -34.5t24.5 -43t46.5 -42t76 -32
t113 -13h19v-192h-7q-68 0 -121 14t-94.5 37.5t-73.5 54.5t-57 66v-3q-21 -32 -56 -62.5t-82.5 -54t-107 -38t-128.5 -14.5h-23h-4q-40 0 -68 28t-28 68zM533 887l-139 -138l-139 137l140 140zM533 1195l-139 -140l-139 139l140 138z" />
    <glyph glyph-name="uni067A.fina" unicode="&#x67a;" horiz-adv-x="1854" arabic-form="final" 
d="M1691 489q-7 -23 -12 -54t-5 -64t7 -65t26.5 -57.5t53 -41t84.5 -15.5h23v-192h-23q-58 0 -102 17.5t-75.5 45.5t-51.5 61.5t-29 66.5q-12 46 -15 86q-45 -54 -110.5 -105.5t-156 -91.5t-209 -64.5t-271.5 -24.5q-58 0 -129 2t-145.5 12.5t-146.5 31t-133 57.5
t-104.5 93.5t-61 137.5t-3 189t70.5 250q7 16 17.5 21t20 1t14.5 -14.5t0 -25.5q-38 -102 -42 -181t16.5 -137.5t62 -99.5t95.5 -68t116.5 -42.5t125.5 -23t121.5 -9.5t104.5 -2q173 0 298 23t212.5 60t143 83t89.5 91t52 84.5t31 64.5q12 22 25 31t23.5 7.5t16 -12
t1.5 -26.5q-3 -11 -8 -36.5t-18 -63.5zM1039 686l-139 -138l-139 137l140 140zM1039 994l-139 -140l-139 139l140 138z" />
    <glyph glyph-name="uni067B.init" unicode="&#x67b;" horiz-adv-x="501" arabic-form="initial" 
d="M-103 96q0 40 28 68t68 28h1h87q31 1 57.5 3.5t50.5 7.5q21 4 41 10t35.5 15t26.5 21.5t14 29.5q3 24 -1.5 53t-14 61.5t-22.5 65.5t-26 65q-17 36 -35 73.5t-41 78.5l53 96q10 18 20 35t19.5 30.5t17 22t12.5 8.5t18.5 -25.5t30 -68.5t33 -99t28.5 -117t16.5 -123
t-3.5 -117q-9 -59 -39.5 -116t-72.5 -102t-90.5 -72.5t-94.5 -27.5h-117h-4q-40 0 -68 28t-28 68zM374 -555l-139 -138l-139 137l140 140zM374 -247l-139 -140l-139 139l140 138z" />
    <glyph glyph-name="uni067B.medi" unicode="&#x67b;" horiz-adv-x="629" arabic-form="medial" 
d="M-104 96q0 40 28 68t68 28h44q-1 0 17 1t45 7t59.5 17.5t60 32t47 52.5t20.5 77q2 33 -4 66.5t-13 60.5q-9 32 -19 60l49 67q9 13 18.5 25t17.5 20.5t14 12t9 0.5q0 -1 5.5 -24t12 -64.5t12 -100t6.5 -129.5q0 -2 1.5 -16.5t8 -34.5t20 -43t38.5 -42t63 -32t93 -13h19
v-192h-7q-43 0 -85.5 14t-81.5 37.5t-73 54.5t-59 66v-3q-21 -32 -52 -62.5t-70 -54t-85 -38t-98 -14.5h-29h-4q-40 0 -68 28t-28 68zM470 -504l-139 -138l-139 137l140 140zM470 -196l-139 -140l-139 139l140 138z" />
    <glyph glyph-name="uni067B.fina" unicode="&#x67b;" horiz-adv-x="1838" arabic-form="final" 
d="M1667 489q-7 -23 -12 -54t-5 -64t7 -65t26.5 -57.5t53 -41t84.5 -15.5h23v-192h-23q-58 0 -102 17.5t-75.5 45.5t-51.5 61.5t-29 66.5q-12 46 -15 86q-45 -54 -110.5 -105.5t-156 -91.5t-209 -64.5t-271.5 -24.5q-58 0 -129 2t-145.5 12.5t-146.5 31t-133 57.5
t-104.5 93.5t-61 137.5t-3 189t70.5 250q7 16 17.5 21t20 1t14.5 -14.5t0 -25.5q-38 -102 -42 -181t16.5 -137.5t62 -99.5t95.5 -68t116.5 -42.5t125.5 -23t121.5 -9.5t104.5 -2q173 0 298 23t212.5 60t143 83t89.5 91t52 84.5t31 64.5q12 22 25 31t23.5 7.5t16 -12
t1.5 -26.5q-3 -11 -8 -36.5t-18 -63.5zM945 -619l-139 -138l-139 137l140 140zM945 -311l-139 -140l-139 139l140 138z" />
    <glyph glyph-name="uni067C.init" unicode="&#x67c;" horiz-adv-x="544" 
d="M-103 96q0 40 28 68t68 28h1h87q31 1 57.5 3.5t50.5 7.5q21 4 41 10t35.5 15t26.5 21.5t14 29.5q3 24 -1.5 53t-14 61.5t-22.5 65.5t-26 65q-17 36 -35 73.5t-41 78.5l53 96q10 18 20 35t19.5 30.5t17 22t12.5 8.5t18.5 -25.5t30 -68.5t33 -99t28.5 -117t16.5 -123
t-3.5 -117q-9 -59 -39.5 -116t-72.5 -102t-90.5 -72.5t-94.5 -27.5h-117h-4q-40 0 -68 28t-28 68zM263 123q22 0 50 -10t52.5 -33.5t41 -63t16.5 -97.5q0 -47 -18.5 -79t-44 -52t-53.5 -29t-47 -9q-37 0 -65 14t-46.5 38t-28 55t-9.5 65q0 54 16 92.5t39.5 62.5t49.5 35
t47 11zM264 -147q25 0 46.5 8t37 18.5t24.5 22t9 17.5q0 5 -8.5 21.5t-25.5 34.5t-42.5 32.5t-59.5 14.5q-13 0 -28.5 -5t-29 -15.5t-22.5 -25.5t-9 -35q0 -15 6 -30.5t19 -28t33.5 -21t49.5 -8.5zM133 1000l-138 139l137 139l140 -140zM415 1000l-140 139l139 139l138 -140
z" />
    <glyph glyph-name="uni067C.medi" unicode="&#x67c;" horiz-adv-x="732" 
d="M-103 96q0 40 28 68t68 28h4h34q-1 0 22 1t58 7t76 17.5t76.5 32t60 52.5t25.5 77q2 33 -4 66.5t-13 60.5q-9 32 -19 60l49 67q9 13 18.5 25t17.5 20.5t14 12t9 0.5q0 -1 5.5 -24t12 -64.5t12 -100t6.5 -129.5q0 -2 1.5 -16.5t9.5 -34.5t24.5 -43t46.5 -42t76 -32
t113 -13h19v-192h-7q-68 0 -121 14t-94.5 37.5t-73.5 54.5t-57 66v-3q-21 -32 -56 -62.5t-82.5 -54t-107 -38t-128.5 -14.5h-23h-4q-40 0 -68 28t-28 68zM234 760l-138 139l137 139l140 -140zM516 760l-140 139l139 139l138 -140zM357 129q22 0 50 -10t52.5 -33.5t41 -63
t16.5 -97.5q0 -47 -18.5 -79t-44 -52t-53.5 -29t-47 -9q-37 0 -65 14t-46.5 38t-28 55t-9.5 65q0 54 16 92.5t39.5 62.5t49.5 35t47 11zM358 -141q25 0 46.5 8t37 18.5t24.5 22t9 17.5q0 5 -8.5 21.5t-25.5 34.5t-42.5 32.5t-59.5 14.5q-13 0 -28.5 -5t-29 -15.5
t-22.5 -25.5t-9 -35q0 -15 6 -30.5t19 -28t33.5 -21t49.5 -8.5z" />
    <glyph glyph-name="uni067C.fina" unicode="&#x67c;" horiz-adv-x="1829" 
d="M1661 489q-7 -23 -12 -54t-5 -64t7 -65t26.5 -57.5t53 -41t84.5 -15.5h23v-192h-23q-58 0 -102 17.5t-75.5 45.5t-51.5 61.5t-29 66.5q-12 46 -15 86q-45 -54 -110.5 -105.5t-156 -91.5t-209 -64.5t-271.5 -24.5q-58 0 -129 2t-145.5 12.5t-146.5 31t-133 57.5
t-104.5 93.5t-61 137.5t-3 189t70.5 250q7 16 17.5 21t20 1t14.5 -14.5t0 -25.5q-38 -102 -42 -181t16.5 -137.5t62 -99.5t95.5 -68t116.5 -42.5t125.5 -23t121.5 -9.5t104.5 -2q173 0 298 23t212.5 60t143 83t89.5 91t52 84.5t31 64.5q12 22 25 31t23.5 7.5t16 -12
t1.5 -26.5q-3 -11 -8 -36.5t-18 -63.5zM715 576l-138 139l137 139l140 -140zM997 576l-140 139l139 139l138 -140zM1051 101q22 0 50 -10t52.5 -33.5t41 -63t16.5 -97.5q0 -47 -18.5 -79t-44 -52t-53.5 -29t-47 -9q-37 0 -65 14t-46.5 38t-28 55t-9.5 65q0 54 16 92.5
t39.5 62.5t49.5 35t47 11zM1052 -169q25 0 46.5 8t37 18.5t24.5 22t9 17.5q0 5 -8.5 21.5t-25.5 34.5t-42.5 32.5t-59.5 14.5q-13 0 -28.5 -5t-29 -15.5t-22.5 -25.5t-9 -35q0 -15 6 -30.5t19 -28t33.5 -21t49.5 -8.5z" />
    <glyph glyph-name="uni067D.init" unicode="&#x67d;" horiz-adv-x="634" 
d="M-101 96q0 40 28 68t68 28h81q26 0 61 0.5t73 3t76 8t71 15t58 24t37 36.5q3 24 -1.5 53t-14 61.5t-22.5 65.5t-26 65q-17 36 -35 73.5t-41 78.5l53 96q10 18 20 35t19.5 30.5t17 22t12.5 8.5t18.5 -25.5t30 -68.5t33 -99t28.5 -117t16.5 -123t-3.5 -117
q-9 -59 -41.5 -116t-89 -102t-136 -72.5t-181.5 -27.5h-110h-4q-40 0 -68 28t-28 68zM313 1271l-140 -140l-137 139l138 139zM619 1271l-138 -140l-139 139l140 139zM329 924l-131 131l132 132l131 -131z" />
    <glyph glyph-name="uni067D.medi" unicode="&#x67d;" horiz-adv-x="739" 
d="M-103 96q0 40 28 68t68 28h4h34q-1 0 22 1t58 7t76 17.5t76.5 32t60 52.5t25.5 77q2 33 -4 66.5t-13 60.5q-9 32 -19 60l49 67q9 13 18.5 25t17.5 20.5t14 12t9 0.5q0 -1 5.5 -24t12 -64.5t12 -100t6.5 -129.5q0 -2 1.5 -16.5t9.5 -34.5t24.5 -43t46.5 -42t76 -32
t113 -13h19v-192h-7q-68 0 -121 14t-94.5 37.5t-73.5 54.5t-57 66v-3q-21 -32 -56 -62.5t-82.5 -54t-107 -38t-128.5 -14.5h-23h-4q-40 0 -68 28t-28 68zM372 1157l-140 -140l-137 139l138 139zM678 1157l-138 -140l-139 139l140 139zM388 810l-131 131l132 132l131 -131z
" />
    <glyph glyph-name="uni067D.fina" unicode="&#x67d;" horiz-adv-x="1820" 
d="M1651 489q-7 -23 -12 -54t-5 -64t7 -65t26.5 -57.5t53 -41t84.5 -15.5h23v-192h-23q-58 0 -102 17.5t-75.5 45.5t-51.5 61.5t-29 66.5q-12 46 -15 86q-45 -54 -110.5 -105.5t-156 -91.5t-209 -64.5t-271.5 -24.5q-58 0 -129 2t-145.5 12.5t-146.5 31t-133 57.5
t-104.5 93.5t-61 137.5t-3 189t70.5 250q7 16 17.5 21t20 1t14.5 -14.5t0 -25.5q-38 -102 -42 -181t16.5 -137.5t62 -99.5t95.5 -68t116.5 -42.5t125.5 -23t121.5 -9.5t104.5 -2q173 0 298 23t212.5 60t143 83t89.5 91t52 84.5t31 64.5q12 22 25 31t23.5 7.5t16 -12
t1.5 -26.5q-3 -11 -8 -36.5t-18 -63.5zM807 776l-140 -140l-137 139l138 139zM1113 776l-138 -140l-139 139l140 139zM823 429l-131 131l132 132l131 -131z" />
    <glyph glyph-name="uni067F.init" unicode="&#x67f;" horiz-adv-x="733" arabic-form="initial" 
d="M-101 96q0 40 28 68t68 28h81q26 0 61 0.5t73 3t76 8t71 15t58 24t37 36.5q3 24 -1.5 53t-14 61.5t-22.5 65.5t-26 65q-17 36 -35 73.5t-41 78.5l53 96q10 18 20 35t19.5 30.5t17 22t12.5 8.5t18.5 -25.5t30 -68.5t33 -99t28.5 -117t16.5 -123t-3.5 -117
q-9 -59 -41.5 -116t-89 -102t-136 -72.5t-181.5 -27.5h-110h-4q-40 0 -68 28t-28 68zM258 950l-138 139l137 139l140 -140zM566 950l-140 139l139 139l138 -140zM258 1329l-138 139l137 139l140 -140zM566 1329l-140 139l139 139l138 -140z" />
    <glyph glyph-name="uni067F.medi" unicode="&#x67f;" horiz-adv-x="741" arabic-form="medial" 
d="M-103 96q0 40 28 68t68 28h4h34q-1 0 22 1t58 7t76 17.5t76.5 32t60 52.5t25.5 77q2 33 -4 66.5t-13 60.5q-9 32 -19 60l49 67q9 13 18.5 25t17.5 20.5t14 12t9 0.5q0 -1 5.5 -24t12 -64.5t12 -100t6.5 -129.5q0 -2 1.5 -16.5t9.5 -34.5t24.5 -43t46.5 -42t76 -32
t113 -13h19v-192h-7q-68 0 -121 14t-94.5 37.5t-73.5 54.5t-57 66v-3q-21 -32 -56 -62.5t-82.5 -54t-107 -38t-128.5 -14.5h-23h-4q-40 0 -68 28t-28 68zM244 770l-138 139l137 139l140 -140zM552 770l-140 139l139 139l138 -140zM244 1149l-138 139l137 139l140 -140z
M552 1149l-140 139l139 139l138 -140z" />
    <glyph glyph-name="uni067F.fina" unicode="&#x67f;" horiz-adv-x="1842" arabic-form="final" 
d="M1672 489q-7 -23 -12 -54t-5 -64t7 -65t26.5 -57.5t53 -41t84.5 -15.5h23v-192h-23q-58 0 -102 17.5t-75.5 45.5t-51.5 61.5t-29 66.5q-12 46 -15 86q-45 -54 -110.5 -105.5t-156 -91.5t-209 -64.5t-271.5 -24.5q-58 0 -129 2t-145.5 12.5t-146.5 31t-133 57.5
t-104.5 93.5t-61 137.5t-3 189t70.5 250q7 16 17.5 21t20 1t14.5 -14.5t0 -25.5q-38 -102 -42 -181t16.5 -137.5t62 -99.5t95.5 -68t116.5 -42.5t125.5 -23t121.5 -9.5t104.5 -2q173 0 298 23t212.5 60t143 83t89.5 91t52 84.5t31 64.5q12 22 25 31t23.5 7.5t16 -12
t1.5 -26.5q-3 -11 -8 -36.5t-18 -63.5zM717 407l-138 139l137 139l140 -140zM1025 407l-140 139l139 139l138 -140zM717 786l-138 139l137 139l140 -140zM1025 786l-140 139l139 139l138 -140z" />
    <glyph glyph-name="uni0680.init" unicode="&#x680;" horiz-adv-x="642" arabic-form="initial" 
d="M-99 96q0 40 28 68t68 28h81q26 0 61 0.5t73 3t76 8t71 15t58 24t37 36.5q3 24 -1.5 53t-14 61.5t-22.5 65.5t-26 65q-17 36 -35 73.5t-41 78.5l53 96q10 18 20 35t19.5 30.5t17 22t12.5 8.5t18.5 -25.5t30 -68.5t33 -99t28.5 -117t16.5 -123t-3.5 -117
q-9 -59 -41.5 -116t-89 -102t-136 -72.5t-181.5 -27.5h-110h-4q-40 0 -68 28t-28 68zM122 -729l-138 139l137 139l140 -140zM430 -729l-140 139l139 139l138 -140zM122 -375l-138 139l137 139l140 -140zM430 -375l-140 139l139 139l138 -140z" />
    <glyph glyph-name="uni0680.medi" unicode="&#x680;" horiz-adv-x="735" arabic-form="medial" 
d="M-103 96q0 40 28 68t68 28h4h34q-1 0 22 1t58 7t76 17.5t76.5 32t60 52.5t25.5 77q2 33 -4 66.5t-13 60.5q-9 32 -19 60l49 67q9 13 18.5 25t17.5 20.5t14 12t9 0.5q0 -1 5.5 -24t12 -64.5t12 -100t6.5 -129.5q0 -2 1.5 -16.5t9.5 -34.5t24.5 -43t46.5 -42t76 -32
t113 -13h19v-192h-7q-68 0 -121 14t-94.5 37.5t-73.5 54.5t-57 66v-3q-21 -32 -56 -62.5t-82.5 -54t-107 -38t-128.5 -14.5h-23h-4q-40 0 -68 28t-28 68zM210 -701l-138 139l137 139l140 -140zM518 -701l-140 139l139 139l138 -140zM210 -347l-138 139l137 139l140 -140z
M518 -347l-140 139l139 139l138 -140z" />
    <glyph glyph-name="uni0680.fina" unicode="&#x680;" horiz-adv-x="1838" arabic-form="final" 
d="M1669 489q-7 -23 -12 -54t-5 -64t7 -65t26.5 -57.5t53 -41t84.5 -15.5h23v-192h-23q-58 0 -102 17.5t-75.5 45.5t-51.5 61.5t-29 66.5q-12 46 -15 86q-45 -54 -110.5 -105.5t-156 -91.5t-209 -64.5t-271.5 -24.5q-58 0 -129 2t-145.5 12.5t-146.5 31t-133 57.5
t-104.5 93.5t-61 137.5t-3 189t70.5 250q7 16 17.5 21t20 1t14.5 -14.5t0 -25.5q-38 -102 -42 -181t16.5 -137.5t62 -99.5t95.5 -68t116.5 -42.5t125.5 -23t121.5 -9.5t104.5 -2q173 0 298 23t212.5 60t143 83t89.5 91t52 84.5t31 64.5q12 22 25 31t23.5 7.5t16 -12
t1.5 -26.5q-3 -11 -8 -36.5t-18 -63.5zM673 -777l-138 139l137 139l140 -140zM981 -777l-140 139l139 139l138 -140zM673 -423l-138 139l137 139l140 -140zM981 -423l-140 139l139 139l138 -140z" />
    <glyph glyph-name="uni0681.init" unicode="&#x681;" horiz-adv-x="1331" 
d="M-105 96q0 40 28 68t68 28h108q46 0 111 9t140.5 25.5t157.5 40t162 53.5t154.5 66t135.5 76q-95 33 -177 66.5t-151.5 60.5t-127.5 44t-106 17q-52 0 -94.5 -20t-72.5 -45q-19 -14 -35 -30t-30 -33q-12 -18 -27 -26t-26.5 -5t-15.5 18t6 44q51 141 128.5 213t183.5 72
q54 0 113 -19t124.5 -47t137.5 -61.5t151.5 -63t167.5 -50t184 -22.5q28 -1 30 -9t-3 -21l-92 -151q-68 -17 -151.5 -52.5t-177.5 -79.5t-196.5 -90.5t-208.5 -84.5t-213.5 -62.5t-211.5 -24.5h-74h-4q-40 0 -68 28t-28 68zM576 1048l85 50q13 9 25 16q-20 11 -38.5 27.5
t-33 37t-22.5 45.5t-6 52q1 19 11 42.5t27 48t38.5 47t46 40t49.5 28t48 9.5q22 -1 44 -7t43 -19t40 -34.5t35 -53.5q5 -11 -1.5 -18t-31.5 5q-9 5 -36.5 15.5t-83.5 12.5q-29 1 -56.5 -8t-49 -24t-35 -32.5t-14.5 -32.5q-1 -13 15 -35.5t45 -42.5t68 -32.5t84 -4.5v-1l51 9
q20 4 41.5 8t34.5 7q2 1 5 0.5t1 -5.5l-17 -48q-4 -10 -7.5 -20.5t-7.5 -23.5q-50 -9 -106 -22t-111.5 -31t-108.5 -41.5t-98 -53.5z" />
    <glyph glyph-name="uni0681.medi" unicode="&#x681;" horiz-adv-x="1358" 
d="M-106 96q0 40 28 68t68 28h4h97q46 0 111 8.5t140.5 25t157.5 40t162 53t154.5 65t134.5 74.5q-95 33 -176.5 67t-151.5 61t-128 44t-105 17q-52 0 -95 -20.5t-72 -43.5q-20 -14 -35.5 -29.5t-29.5 -32.5q-12 -19 -27.5 -27t-26.5 -4.5t-15.5 18.5t5.5 43
q51 141 129 212.5t183 71.5q54 0 113.5 -18.5t124.5 -47t137.5 -62t151.5 -62.5t166.5 -49.5t183.5 -22.5q29 -1 31 -9.5t-3 -19.5l-91 -152q-76 -20 -169 -61q6 -41 21.5 -67.5t44 -42.5t73 -22.5t109.5 -6.5h69v-192h-69q-104 0 -168.5 21t-101 59.5t-52 91.5t-20.5 117
q-99 -45 -208.5 -96t-224 -93.5t-231.5 -71t-232 -28.5h-67h-4q-40 0 -68 28t-28 68zM592 992l85 50q13 9 25 16q-20 11 -38.5 27.5t-33 37t-22.5 45.5t-6 52q1 19 11 42.5t27 48t38.5 47t46 40t49.5 28t48 9.5q22 -1 44 -7t43 -19t40 -34.5t35 -53.5q5 -11 -1.5 -18
t-31.5 5q-9 5 -36.5 15.5t-83.5 12.5q-29 1 -56.5 -8t-49 -24t-35 -32.5t-14.5 -32.5q-1 -13 15 -35.5t45 -42.5t68 -32.5t84 -4.5v-1l51 9q20 4 41.5 8t34.5 7q2 1 5 0.5t1 -5.5l-17 -48q-4 -10 -7.5 -20.5t-7.5 -23.5q-50 -9 -106 -22t-111.5 -31t-108.5 -41.5t-98 -53.5z
" />
    <glyph glyph-name="uni0681.fina" unicode="&#x681;" horiz-adv-x="1450" 
d="M1467 192v-192h-80q-85 0 -144 17t-98 47t-61 71t-32.5 90t-13 103t-2.5 110q-152 -13 -273.5 -42.5t-214.5 -71t-159.5 -92.5t-109 -106t-62.5 -112.5t-20 -112.5q0 -78 40 -154.5t121 -136.5t204 -97t290 -37q94 0 172.5 7t141.5 17.5t110 21.5t77 19q27 7 33.5 -1
t-10.5 -26q-23 -26 -66 -63.5t-111.5 -72t-166 -59t-229.5 -24.5q-170 0 -307.5 41t-231.5 118t-138.5 187.5t-27.5 250.5q6 54 24.5 117t54.5 128t93 129.5t142 121t200 101.5t268 73q-58 19 -115 44t-111.5 47t-106.5 37t-99 15q-54 0 -96.5 -20.5t-72.5 -43.5
q-17 -15 -33 -30.5t-31 -33.5q-12 -18 -27 -26t-26 -5t-15 18.5t6 43.5q25 70 57.5 126t71.5 96t85 61.5t98 21.5q53 0 115 -19.5t131 -48.5t145.5 -63.5t160.5 -64.5t174.5 -51t187.5 -24q28 0 30 -8.5t-3 -19.5l-94 -164q-47 0 -91.5 -1.5t-87.5 -3.5q1 -64 10.5 -111.5
t36.5 -79t76.5 -47t130.5 -15.5h80zM933 968l85 50q13 9 25 16q-20 11 -38.5 27.5t-33 37t-22.5 45.5t-6 52q1 19 11 42.5t27 48t38.5 47t46 40t49.5 28t48 9.5q22 -1 44 -7t43 -19t40 -34.5t35 -53.5q5 -11 -1.5 -18t-31.5 5q-9 5 -36.5 15.5t-83.5 12.5q-29 1 -56.5 -8
t-49 -24t-35 -32.5t-14.5 -32.5q-1 -13 15 -35.5t45 -42.5t68 -32.5t84 -4.5v-1l51 9q20 4 41.5 8t34.5 7q2 1 5 0.5t1 -5.5l-17 -48q-4 -10 -7.5 -20.5t-7.5 -23.5q-50 -9 -106 -22t-111.5 -31t-108.5 -41.5t-98 -53.5z" />
    <glyph glyph-name="uni0682.init" unicode="&#x682;" horiz-adv-x="1359" 
d="M-105 96q0 40 28 68t68 28h108q46 0 111 9t140.5 25.5t157.5 40t162 53.5t154.5 66t135.5 76q-95 33 -177 66.5t-151.5 60.5t-127.5 44t-106 17q-52 0 -94.5 -20t-72.5 -45q-19 -14 -35 -30t-30 -33q-12 -18 -27 -26t-26.5 -5t-15.5 18t6 44q51 141 128.5 213t183.5 72
q54 0 113 -19t124.5 -47t137.5 -61.5t151.5 -63t167.5 -50t184 -22.5q28 -1 30 -9t-3 -21l-92 -151q-68 -17 -151.5 -52.5t-177.5 -79.5t-196.5 -90.5t-208.5 -84.5t-213.5 -62.5t-211.5 -24.5h-74h-4q-40 0 -68 28t-28 68zM852 1045l-139 -138l-139 137l140 140zM852 1353
l-139 -140l-139 139l140 138z" />
    <glyph glyph-name="uni0682.medi" unicode="&#x682;" horiz-adv-x="1353" 
d="M-106 96q0 40 28 68t68 28h4h97q46 0 111 8.5t140.5 25t157.5 40t162 53t154.5 65t134.5 74.5q-95 33 -176.5 67t-151.5 61t-128 44t-105 17q-52 0 -95 -20.5t-72 -43.5q-20 -14 -35.5 -29.5t-29.5 -32.5q-12 -19 -27.5 -27t-26.5 -4.5t-15.5 18.5t5.5 43
q51 141 129 212.5t183 71.5q54 0 113.5 -18.5t124.5 -47t137.5 -62t151.5 -62.5t166.5 -49.5t183.5 -22.5q29 -1 31 -9.5t-3 -19.5l-91 -152q-76 -20 -169 -61q6 -41 21.5 -67.5t44 -42.5t73 -22.5t109.5 -6.5h69v-192h-69q-104 0 -168.5 21t-101 59.5t-52 91.5t-20.5 117
q-99 -45 -208.5 -96t-224 -93.5t-231.5 -71t-232 -28.5h-67h-4q-40 0 -68 28t-28 68zM861 1047l-139 -138l-139 137l140 140zM861 1355l-139 -140l-139 139l140 138z" />
    <glyph glyph-name="uni0682.fina" unicode="&#x682;" horiz-adv-x="1476" 
d="M1491 192v-192h-80q-85 0 -144 17t-98 47t-61 71t-32.5 90t-13 103t-2.5 110q-152 -13 -273.5 -42.5t-214.5 -71t-159.5 -92.5t-109 -106t-62.5 -112.5t-20 -112.5q0 -78 40 -154.5t121 -136.5t204 -97t290 -37q94 0 172.5 7t141.5 17.5t110 21.5t77 19q27 7 33.5 -1
t-10.5 -26q-23 -26 -66 -63.5t-111.5 -72t-166 -59t-229.5 -24.5q-170 0 -307.5 41t-231.5 118t-138.5 187.5t-27.5 250.5q6 54 24.5 117t54.5 128t93 129.5t142 121t200 101.5t268 73q-58 19 -115 44t-111.5 47t-106.5 37t-99 15q-54 0 -96.5 -20.5t-72.5 -43.5
q-17 -15 -33 -30.5t-31 -33.5q-12 -18 -27 -26t-26 -5t-15 18.5t6 43.5q25 70 57.5 126t71.5 96t85 61.5t98 21.5q53 0 115 -19.5t131 -48.5t145.5 -63.5t160.5 -64.5t174.5 -51t187.5 -24q28 0 30 -8.5t-3 -19.5l-94 -164q-47 0 -91.5 -1.5t-87.5 -3.5q1 -64 10.5 -111.5
t36.5 -79t76.5 -47t130.5 -15.5h80zM977 1053l-139 -138l-139 137l140 140zM977 1361l-139 -140l-139 139l140 138z" />
    <glyph glyph-name="uni0683.init" unicode="&#x683;" horiz-adv-x="1336" arabic-form="initial" 
d="M-105 96q0 40 28 68t68 28h108q46 0 111 9t140.5 25.5t157.5 40t162 53.5t154.5 66t135.5 76q-95 33 -177 66.5t-151.5 60.5t-127.5 44t-106 17q-52 0 -94.5 -20t-72.5 -45q-19 -14 -35 -30t-30 -33q-12 -18 -27 -26t-26.5 -5t-15.5 18t6 44q51 141 128.5 213t183.5 72
q54 0 113 -19t124.5 -47t137.5 -61.5t151.5 -63t167.5 -50t184 -22.5q28 -1 30 -9t-3 -21l-92 -151q-68 -17 -151.5 -52.5t-177.5 -79.5t-196.5 -90.5t-208.5 -84.5t-213.5 -62.5t-211.5 -24.5h-74h-4q-40 0 -68 28t-28 68zM487 -393l-138 139l137 139l140 -140zM795 -393
l-140 139l139 139l138 -140z" />
    <glyph glyph-name="uni0683.medi" unicode="&#x683;" horiz-adv-x="1356" arabic-form="medial" 
d="M-106 96q0 40 28 68t68 28h4h97q46 0 111 8.5t140.5 25t157.5 40t162 53t154.5 65t134.5 74.5q-95 33 -176.5 67t-151.5 61t-128 44t-105 17q-52 0 -95 -20.5t-72 -43.5q-20 -14 -35.5 -29.5t-29.5 -32.5q-12 -19 -27.5 -27t-26.5 -4.5t-15.5 18.5t5.5 43
q51 141 129 212.5t183 71.5q54 0 113.5 -18.5t124.5 -47t137.5 -62t151.5 -62.5t166.5 -49.5t183.5 -22.5q29 -1 31 -9.5t-3 -19.5l-91 -152q-76 -20 -169 -61q6 -41 21.5 -67.5t44 -42.5t73 -22.5t109.5 -6.5h69v-192h-69q-104 0 -168.5 21t-101 59.5t-52 91.5t-20.5 117
q-99 -45 -208.5 -96t-224 -93.5t-231.5 -71t-232 -28.5h-67h-4q-40 0 -68 28t-28 68zM484 -401l-138 139l137 139l140 -140zM792 -401l-140 139l139 139l138 -140z" />
    <glyph glyph-name="uni0683.fina" unicode="&#x683;" horiz-adv-x="1479" arabic-form="final" 
d="M1491 192v-192h-80q-85 0 -144 17t-98 47t-61 71t-32.5 90t-13 103t-2.5 110q-152 -13 -273.5 -42.5t-214.5 -71t-159.5 -92.5t-109 -106t-62.5 -112.5t-20 -112.5q0 -78 40 -154.5t121 -136.5t204 -97t290 -37q94 0 172.5 7t141.5 17.5t110 21.5t77 19q27 7 33.5 -1
t-10.5 -26q-23 -26 -66 -63.5t-111.5 -72t-166 -59t-229.5 -24.5q-170 0 -307.5 41t-231.5 118t-138.5 187.5t-27.5 250.5q6 54 24.5 117t54.5 128t93 129.5t142 121t200 101.5t268 73q-58 19 -115 44t-111.5 47t-106.5 37t-99 15q-54 0 -96.5 -20.5t-72.5 -43.5
q-17 -15 -33 -30.5t-31 -33.5q-12 -18 -27 -26t-26 -5t-15 18.5t6 43.5q25 70 57.5 126t71.5 96t85 61.5t98 21.5q53 0 115 -19.5t131 -48.5t145.5 -63.5t160.5 -64.5t174.5 -51t187.5 -24q28 0 30 -8.5t-3 -19.5l-94 -164q-47 0 -91.5 -1.5t-87.5 -3.5q1 -64 10.5 -111.5
t36.5 -79t76.5 -47t130.5 -15.5h80zM656 -255l-138 139l137 139l140 -140zM964 -255l-140 139l139 139l138 -140z" />
    <glyph glyph-name="uni0684.init" unicode="&#x684;" horiz-adv-x="1342" arabic-form="initial" 
d="M-105 96q0 40 28 68t68 28h108q46 0 111 9t140.5 25.5t157.5 40t162 53.5t154.5 66t135.5 76q-95 33 -177 66.5t-151.5 60.5t-127.5 44t-106 17q-52 0 -94.5 -20t-72.5 -45q-19 -14 -35 -30t-30 -33q-12 -18 -27 -26t-26.5 -5t-15.5 18t6 44q51 141 128.5 213t183.5 72
q54 0 113 -19t124.5 -47t137.5 -61.5t151.5 -63t167.5 -50t184 -22.5q28 -1 30 -9t-3 -21l-92 -151q-68 -17 -151.5 -52.5t-177.5 -79.5t-196.5 -90.5t-208.5 -84.5t-213.5 -62.5t-211.5 -24.5h-74h-4q-40 0 -68 28t-28 68zM747 -544l-139 -138l-139 137l140 140zM747 -236
l-139 -140l-139 139l140 138z" />
    <glyph glyph-name="uni0684.medi" unicode="&#x684;" horiz-adv-x="1357" arabic-form="medial" 
d="M-106 96q0 40 28 68t68 28h4h97q46 0 111 8.5t140.5 25t157.5 40t162 53t154.5 65t134.5 74.5q-95 33 -176.5 67t-151.5 61t-128 44t-105 17q-52 0 -95 -20.5t-72 -43.5q-20 -14 -35.5 -29.5t-29.5 -32.5q-12 -19 -27.5 -27t-26.5 -4.5t-15.5 18.5t5.5 43
q51 141 129 212.5t183 71.5q54 0 113.5 -18.5t124.5 -47t137.5 -62t151.5 -62.5t166.5 -49.5t183.5 -22.5q29 -1 31 -9.5t-3 -19.5l-91 -152q-76 -20 -169 -61q6 -41 21.5 -67.5t44 -42.5t73 -22.5t109.5 -6.5h69v-192h-69q-104 0 -168.5 21t-101 59.5t-52 91.5t-20.5 117
q-99 -45 -208.5 -96t-224 -93.5t-231.5 -71t-232 -28.5h-67h-4q-40 0 -68 28t-28 68zM835 -488l-139 -138l-139 137l140 140zM835 -180l-139 -140l-139 139l140 138z" />
    <glyph glyph-name="uni0684.fina" unicode="&#x684;" horiz-adv-x="1473" arabic-form="final" 
d="M161 -385q-28 60 -38.5 129t-0.5 148q6 54 24.5 117t54.5 128t93 129.5t142 121t200 101.5t268 73q-58 19 -115 44t-111.5 47t-106.5 37t-99 15q-54 0 -96.5 -20.5t-72.5 -43.5q-17 -15 -33 -30.5t-31 -33.5q-12 -18 -27 -26t-26 -5t-15 18.5t6 43.5q25 70 57.5 126
t71.5 96t85 61.5t98 21.5q53 0 115 -19.5t131 -48.5t145.5 -63.5t160.5 -64.5t174.5 -51t187.5 -24q28 0 30 -8.5t-3 -19.5l-94 -164q-47 0 -91.5 -1.5t-87.5 -3.5q1 -64 10.5 -111.5t36.5 -79t76.5 -47t130.5 -15.5h80v-192h-80q-85 0 -144 17t-98 47t-61 71t-32.5 90
t-13 103t-2.5 110q-152 -13 -273.5 -42.5t-214.5 -71t-159.5 -92.5t-109 -106t-62.5 -112.5t-20 -112.5q0 -48 15 -95t45 -92zM937 -381l-139 -138l-139 137l140 140zM937 -73l-139 -140l-139 139l140 138z" />
    <glyph glyph-name="uni0685.init" unicode="&#x685;" horiz-adv-x="1347" 
d="M-105 96q0 40 28 68t68 28h108q46 0 111 9t140.5 25.5t157.5 40t162 53.5t154.5 66t135.5 76q-95 33 -177 66.5t-151.5 60.5t-127.5 44t-106 17q-52 0 -94.5 -20t-72.5 -45q-19 -14 -35 -30t-30 -33q-12 -18 -27 -26t-26.5 -5t-15.5 18t6 44q51 141 128.5 213t183.5 72
q54 0 113 -19t124.5 -47t137.5 -61.5t151.5 -63t167.5 -50t184 -22.5q28 -1 30 -9t-3 -21l-92 -151q-68 -17 -151.5 -52.5t-177.5 -79.5t-196.5 -90.5t-208.5 -84.5t-213.5 -62.5t-211.5 -24.5h-74h-4q-40 0 -68 28t-28 68zM659 876l-138 139l137 139l140 -140zM967 876
l-140 139l139 139l138 -140zM949 1229l-131 -131l-132 132l131 131z" />
    <glyph glyph-name="uni0685.medi" unicode="&#x685;" horiz-adv-x="1360" 
d="M-106 96q0 40 28 68t68 28h4h97q46 0 111 8.5t140.5 25t157.5 40t162 53t154.5 65t134.5 74.5q-95 33 -176.5 67t-151.5 61t-128 44t-105 17q-52 0 -95 -20.5t-72 -43.5q-20 -14 -35.5 -29.5t-29.5 -32.5q-12 -19 -27.5 -27t-26.5 -4.5t-15.5 18.5t5.5 43
q51 141 129 212.5t183 71.5q54 0 113.5 -18.5t124.5 -47t137.5 -62t151.5 -62.5t166.5 -49.5t183.5 -22.5q29 -1 31 -9.5t-3 -19.5l-91 -152q-76 -20 -169 -61q6 -41 21.5 -67.5t44 -42.5t73 -22.5t109.5 -6.5h69v-192h-69q-104 0 -168.5 21t-101 59.5t-52 91.5t-20.5 117
q-99 -45 -208.5 -96t-224 -93.5t-231.5 -71t-232 -28.5h-67h-4q-40 0 -68 28t-28 68zM762 864l-138 139l137 139l140 -140zM1070 864l-140 139l139 139l138 -140zM1052 1217l-131 -131l-132 132l131 131z" />
    <glyph glyph-name="uni0685.fina" unicode="&#x685;" horiz-adv-x="1478" 
d="M1491 192v-192h-80q-85 0 -144 17t-98 47t-61 71t-32.5 90t-13 103t-2.5 110q-152 -13 -273.5 -42.5t-214.5 -71t-159.5 -92.5t-109 -106t-62.5 -112.5t-20 -112.5q0 -78 40 -154.5t121 -136.5t204 -97t290 -37q94 0 172.5 7t141.5 17.5t110 21.5t77 19q27 7 33.5 -1
t-10.5 -26q-23 -26 -66 -63.5t-111.5 -72t-166 -59t-229.5 -24.5q-170 0 -307.5 41t-231.5 118t-138.5 187.5t-27.5 250.5q6 54 24.5 117t54.5 128t93 129.5t142 121t200 101.5t268 73q-58 19 -115 44t-111.5 47t-106.5 37t-99 15q-54 0 -96.5 -20.5t-72.5 -43.5
q-17 -15 -33 -30.5t-31 -33.5q-12 -18 -27 -26t-26 -5t-15 18.5t6 43.5q25 70 57.5 126t71.5 96t85 61.5t98 21.5q53 0 115 -19.5t131 -48.5t145.5 -63.5t160.5 -64.5t174.5 -51t187.5 -24q28 0 30 -8.5t-3 -19.5l-94 -164q-47 0 -91.5 -1.5t-87.5 -3.5q1 -64 10.5 -111.5
t36.5 -79t76.5 -47t130.5 -15.5h80zM531 996l-138 139l137 139l140 -140zM839 996l-140 139l139 139l138 -140zM821 1349l-131 -131l-132 132l131 131z" />
    <glyph glyph-name="uni0687.init" unicode="&#x687;" horiz-adv-x="1319" arabic-form="initial" 
d="M-105 96q0 40 28 68t68 28h108q46 0 111 9t140.5 25.5t157.5 40t162 53.5t154.5 66t135.5 76q-95 33 -177 66.5t-151.5 60.5t-127.5 44t-106 17q-52 0 -94.5 -20t-72.5 -45q-19 -14 -35 -30t-30 -33q-12 -18 -27 -26t-26.5 -5t-15.5 18t6 44q51 141 128.5 213t183.5 72
q54 0 113 -19t124.5 -47t137.5 -61.5t151.5 -63t167.5 -50t184 -22.5q28 -1 30 -9t-3 -21l-92 -151q-68 -17 -151.5 -52.5t-177.5 -79.5t-196.5 -90.5t-208.5 -84.5t-213.5 -62.5t-211.5 -24.5h-74h-4q-40 0 -68 28t-28 68zM515 -625l-138 139l137 139l140 -140zM823 -625
l-140 139l139 139l138 -140zM515 -271l-138 139l137 139l140 -140zM823 -271l-140 139l139 139l138 -140z" />
    <glyph glyph-name="uni0687.medi" unicode="&#x687;" horiz-adv-x="1363" arabic-form="medial" 
d="M-106 96q0 40 28 68t68 28h4h97q46 0 111 8.5t140.5 25t157.5 40t162 53t154.5 65t134.5 74.5q-95 33 -176.5 67t-151.5 61t-128 44t-105 17q-52 0 -95 -20.5t-72 -43.5q-20 -14 -35.5 -29.5t-29.5 -32.5q-12 -19 -27.5 -27t-26.5 -4.5t-15.5 18.5t5.5 43
q51 141 129 212.5t183 71.5q54 0 113.5 -18.5t124.5 -47t137.5 -62t151.5 -62.5t166.5 -49.5t183.5 -22.5q29 -1 31 -9.5t-3 -19.5l-91 -152q-76 -20 -169 -61q6 -41 21.5 -67.5t44 -42.5t73 -22.5t109.5 -6.5h69v-192h-69q-104 0 -168.5 21t-101 59.5t-52 91.5t-20.5 117
q-99 -45 -208.5 -96t-224 -93.5t-231.5 -71t-232 -28.5h-67h-4q-40 0 -68 28t-28 68zM507 -667l-138 139l137 139l140 -140zM815 -667l-140 139l139 139l138 -140zM507 -313l-138 139l137 139l140 -140zM815 -313l-140 139l139 139l138 -140z" />
    <glyph glyph-name="uni0687.fina" unicode="&#x687;" horiz-adv-x="1475" arabic-form="final" 
d="M161 -385q-28 60 -38.5 129t-0.5 148q6 54 24.5 117t54.5 128t93 129.5t142 121t200 101.5t268 73q-58 19 -115 44t-111.5 47t-106.5 37t-99 15q-54 0 -96.5 -20.5t-72.5 -43.5q-17 -15 -33 -30.5t-31 -33.5q-12 -18 -27 -26t-26 -5t-15 18.5t6 43.5q25 70 57.5 126
t71.5 96t85 61.5t98 21.5q53 0 115 -19.5t131 -48.5t145.5 -63.5t160.5 -64.5t174.5 -51t187.5 -24q28 0 30 -8.5t-3 -19.5l-94 -164q-47 0 -91.5 -1.5t-87.5 -3.5q1 -64 10.5 -111.5t36.5 -79t76.5 -47t130.5 -15.5h80v-192h-80q-85 0 -144 17t-98 47t-61 71t-32.5 90
t-13 103t-2.5 110q-152 -13 -273.5 -42.5t-214.5 -71t-159.5 -92.5t-109 -106t-62.5 -112.5t-20 -112.5q0 -48 15 -95t45 -92zM596 -504l-138 139l137 139l140 -140zM904 -504l-140 139l139 139l138 -140zM596 -150l-138 139l137 139l140 -140zM904 -150l-140 139l139 139
l138 -140z" />
    <glyph glyph-name="uni0689.fina" unicode="&#x689;" horiz-adv-x="1051" 
d="M867 326q19 -50 49.5 -78t62.5 -41q18 -5 37 -10t39 -5v-192q-54 0 -95 17t-71.5 43.5t-52.5 59t-39 63.5q-27 -59 -71 -95.5t-98.5 -57.5t-116.5 -28.5t-125 -7.5q-74 0 -125.5 19t-85.5 47.5t-53 62.5t-26.5 63.5t-6.5 50t7 23.5q8 4 21.5 -7t44 -25.5t83 -27.5
t138.5 -13q50 0 107.5 1t110 10t93 29t57.5 59q-11 25 -28 64.5t-38.5 88t-45.5 102t-48 106.5l-117 258l51 87q20 34 39 61t30 27q70 -192 127 -350q24 -68 48 -134.5t44.5 -122t34.5 -95t19 -52.5zM513 95q22 0 50 -10t52.5 -33.5t41 -63t16.5 -97.5q0 -47 -18.5 -79
t-44 -52t-53.5 -29t-47 -9q-37 0 -65 14t-46.5 38t-28 55t-9.5 65q0 54 16 92.5t39.5 62.5t49.5 35t47 11zM514 -175q25 0 46.5 8t37 18.5t24.5 22t9 17.5q0 5 -8.5 21.5t-25.5 34.5t-42.5 32.5t-59.5 14.5q-13 0 -28.5 -5t-29 -15.5t-22.5 -25.5t-9 -35q0 -15 6 -30.5
t19 -28t33.5 -21t49.5 -8.5z" />
    <glyph glyph-name="uni068A.fina" unicode="&#x68a;" horiz-adv-x="1051" 
d="M867 326q19 -50 49.5 -78t62.5 -41q18 -5 37 -10t39 -5v-192q-54 0 -95 17t-71.5 43.5t-52.5 59t-39 63.5q-27 -59 -71 -95.5t-98.5 -57.5t-116.5 -28.5t-125 -7.5q-74 0 -125.5 19t-85.5 47.5t-53 62.5t-26.5 63.5t-6.5 50t7 23.5q8 4 21.5 -7t44 -25.5t83 -27.5
t138.5 -13q50 0 107.5 1t110 10t93 29t57.5 59q-11 25 -28 64.5t-38.5 88t-45.5 102t-48 106.5l-117 258l51 87q20 34 39 61t30 27q70 -192 127 -350q24 -68 48 -134.5t44.5 -122t34.5 -95t19 -52.5zM680 -263l-146 -146l-147 147l146 146z" />
    <glyph glyph-name="uni068B.fina" unicode="&#x68b;" horiz-adv-x="1051" 
d="M867 326q19 -50 49.5 -78t62.5 -41q18 -5 37 -10t39 -5v-192q-54 0 -95 17t-71.5 43.5t-52.5 59t-39 63.5q-27 -59 -71 -95.5t-98.5 -57.5t-116.5 -28.5t-125 -7.5q-74 0 -125.5 19t-85.5 47.5t-53 62.5t-26.5 63.5t-6.5 50t7 23.5q8 4 21.5 -7t44 -25.5t83 -27.5
t138.5 -13q50 0 107.5 1t110 10t93 29t57.5 59q-11 25 -28 64.5t-38.5 88t-45.5 102t-48 106.5l-117 258l51 87q20 34 39 61t30 27q70 -192 127 -350q24 -68 48 -134.5t44.5 -122t34.5 -95t19 -52.5zM661 -274l-146 -146l-147 147l146 146zM714 1601q50 0 81 -15t48 -38
t22 -51t4 -55t-6 -49t-9 -33q-14 -35 -37 -72t-62.5 -68.5t-99.5 -51.5t-147 -20q-72 0 -123 3t-91 10q-14 2 -23.5 3t-15.5 3l-11 4q-47 13 -69 36.5t-34 55.5q-3 8 0 13t12 3q31 -8 74 -12.5t91 -7.5q4 4 10.5 12t12 15.5t10 13.5t5.5 7q7 10 11.5 25t7 31t3.5 31t1 26v22
q-1 60 -3 98.5t-5 66t-6 49.5t-6 49q-4 32 -7 57.5t-6 45.5q10 13 19.5 23t17.5 18q17 15 31 26.5t19 9.5q1 -2 1 -5t1 -7q1 -2 1 -7l7 -114q1 -26 2 -45t1 -39.5v-46.5v-66q0 -10 -0.5 -29.5t-2.5 -43t-8 -49t-16 -46.5q31 37 68 75t75 69t77 50.5t75 19.5zM814 1373
q4 10 3 30.5t-12.5 41t-37.5 34.5t-72 12q-59 -3 -111 -31.5t-94.5 -66t-74 -76.5t-49.5 -61q16 -2 39 -3q38 -3 110 -3q90 0 146 15.5t88.5 36t46 41t18.5 30.5z" />
    <glyph glyph-name="uni068C.fina" unicode="&#x68c;" horiz-adv-x="1051" arabic-form="final" 
d="M867 326q19 -50 49.5 -78t62.5 -41q18 -5 37 -10t39 -5v-192q-54 0 -95 17t-71.5 43.5t-52.5 59t-39 63.5q-27 -59 -71 -95.5t-98.5 -57.5t-116.5 -28.5t-125 -7.5q-74 0 -125.5 19t-85.5 47.5t-53 62.5t-26.5 63.5t-6.5 50t7 23.5q8 4 21.5 -7t44 -25.5t83 -27.5
t138.5 -13q50 0 107.5 1t110 10t93 29t57.5 59q-11 25 -28 64.5t-38.5 88t-45.5 102t-48 106.5l-117 258l51 87q20 34 39 61t30 27q70 -192 127 -350q24 -68 48 -134.5t44.5 -122t34.5 -95t19 -52.5zM427 1122l-138 139l137 139l140 -140zM709 1122l-140 139l139 139
l138 -140z" />
    <glyph glyph-name="uni068D.fina" unicode="&#x68d;" horiz-adv-x="1049" arabic-form="final" 
d="M867 326q19 -50 49.5 -78t62.5 -41q18 -5 37 -10t39 -5v-192q-54 0 -95 17t-71.5 43.5t-52.5 59t-39 63.5q-27 -59 -71 -95.5t-98.5 -57.5t-116.5 -28.5t-125 -7.5q-74 0 -125.5 19t-85.5 47.5t-53 62.5t-26.5 63.5t-6.5 50t7 23.5q8 4 21.5 -7t44 -25.5t83 -27.5
t138.5 -13q50 0 107.5 1t110 10t93 29t57.5 59q-11 25 -28 64.5t-38.5 88t-45.5 102t-48 106.5l-117 258l51 87q20 34 39 61t30 27q70 -192 127 -350q24 -68 48 -134.5t44.5 -122t34.5 -95t19 -52.5zM446 -456l-138 139l137 139l140 -140zM754 -456l-140 139l139 139
l138 -140z" />
    </font>
</defs>
</svg>
